<?xml version="1.0" encoding="utf-8"?>
<!-- Generator: Adobe Illustrator 24.0.0, SVG Export Plug-In . SVG Version: 6.00 Build 0)  -->
<svg version="1.1" id="Layer_1" xmlns="http://www.w3.org/2000/svg" xmlns:xlink="http://www.w3.org/1999/xlink" x="0px" y="0px"
	 viewBox="0 0 511.3 284" style="enable-background:new 0 0 511.3 284;" xml:space="preserve">
<style type="text/css">
	.st0{fill:#FFA600;}
	.st1{fill:#FFFFFF;}
	.st2{fill:none;stroke:#FFFFFF;stroke-width:4;stroke-miterlimit:10;}
</style>
<path id="orange-stroke" class="st0" d="M509.1,102.2c0-1.4-0.1-4.2-1-14.1c-0.9-10.4-1.4-12.8-1.6-14.3c-1.8-8.6-9-14.1-18.5-14.1
	c-4.5,0-11.2,0.1-20.4,0.4c-8.7,0.2-15.4,0.4-19.7,0.4c-4.4,0-11.1-0.1-19.9-0.3c-9.3-0.3-16-0.4-20.6-0.4c-4.6,0-8.8,1.8-11.7,4.9
	c-2.8,3.1-4.2,7.2-3.8,11.5l0.1,1.1c0.3,6.7,0.6,12.3,0.8,16.6c-4.9-8.2-11-14.9-18.2-20c-10-7.2-23.5-11.7-40.2-13.3
	c-6-0.6-18.3-0.9-37.6-0.9c-10.4,0-17.8,0.3-22.7,0.8c-0.1,0-0.2,0-0.3,0c-8.3,1.2-14.1,7.5-14.1,15.5c0,2,0,4.3,0.1,6.8
	c-1.8-2.2-3.7-4.2-5.8-6.2c-15.7-15.5-36.3-23.8-57.8-23.7c-6.3,0-12.4,0.8-18.3,2.1c0.3-0.6,0.6-1.2,0.8-1.9c0,0,0-0.1,0.1-0.2
	c0.9-2.5,1.3-5,1.3-7.5s-0.4-5-1.3-7.3c1.5-2.6,1.9-5.2,1.9-7c0-3.8-1.5-6.7-3.7-10.4c-2-3.4-5.7-9.7-13.8-9.7
	c-2.2,0-4.3,0.3-6.4,0.8c-1.6-3.8-2.7-7.7-8.1-10.3s-62-0.9-62.8-0.9C78.1,0.6,72,6.7,72,14.5c0,2.2,0.1,5.4,0.2,9.8
	c0.1,4,0.2,7,0.2,8.9c0,1.5-0.1,5.4-0.5,14.8c-0.1,2.9-0.2,4-0.2,4.5c0,0.4-0.1,0.8-0.1,1.3c0,1.1,0.1,2.2,0.4,3.3
	c-20.8,0.7-38.2,9-51.9,24.7C6.8,96.9,0,115.7,0,137.3c0,22.4,7,41.3,20.7,56.3c14.3,15.7,33.2,23.7,55.9,23.7
	c22.5,0,40.9-8.3,54.7-24.7c0.1-0.1,0.1-0.1,0.2-0.2c0.8-1,1.6-2.1,2.2-3.1c1.5,1.7,3,3.3,4.6,4.9c15.6,15.2,35.9,23.5,57.2,23.5
	c0.3,0,0.6,0,0.9,0c25.9-0.3,48.6-11.8,63.6-29.9c-0.1,4.3-0.1,7.9-0.1,10.9c0,8.8,6.9,15.4,15.9,15.4c2.8,0,7.2,0.1,13,0.3
	c6.2,0.2,10.7,0.3,13.8,0.3c16.1,0,25.8-0.1,29.5-0.2c8.3-0.3,16-1.6,23.1-3.8c0,0.8,0.1,1.6,0.3,2.4c0.6,2.8,0.8,31.1,0.3,33.3
	c-0.1,0.2-0.1,0.5-0.2,0.7c-0.5,2.8-0.9,5-1.2,6.7c-0.7,2.7-1.2,4.8-1.6,6.2c0,0.1-0.1,0.3-0.1,0.4c-0.4,1.5-0.5,2.8-0.5,4.1
	c0,3.4,1.2,9.7,9.3,14c2.3,1.3,5.3,2.4,9.2,3.6c4.1,1.3,8.9,1.9,14.5,1.9c9,0,17-3.1,23.1-9c0.7-0.6,1.4-1.3,2-2.1
	c8.3,9.1,17.6,11.3,24.5,11.3c8.4,0,20.4-3.2,29.7-18.2c6.1-9.8,9.2-21.4,9.2-34.6c0-5.9-0.6-11.5-1.9-16.8
	c10.4,0.2,13.8,0.5,15,0.6c1.9,0.3,3.4,0.4,4.6,0.4c5.9,0,11.1-2.9,14.2-7.9c0.1-0.1,0.2-0.3,0.3-0.4c1.6-2.8,2.9-6.7,4.6-18.3
	c1.5-10.3,0.9-49,0.9-51.1C511.2,129.6,509.1,106.8,509.1,102.2z"/>
<g id="outer-clock-top">
	<path id="outer-clock" class="st1" d="M196.1,204.4c-37.5,0.4-69-30.4-69.5-67.7c-0.5-39.2,30.1-70.2,69.7-70.5
		c37.2-0.3,68.7,30.6,69.1,67.9C265.8,173.1,235.4,204,196.1,204.4z M145,132.9c3.3,0,3.5,0.1,6.8-0.1c2.2-0.1,2.3,1,2.2,2.6
		c-0.1,1.5,0.3,3-2.2,2.9c-6.1-0.2-9.3,0.1-15.4-0.1c-2.6-0.1-3.5,0.6-3.2,3.3c0.9,7.3,2.8,14.3,6,21c0.8,1.6,1.6,1.6,2.9,0.8
		c2.3-1.4,4.7-2.7,7-4.1c1.9-1.1,2.1,0.4,2.7,1.4c0.7,1.1,1.2,1.9-0.5,2.7c-2.4,1.2-4.7,2.8-7.1,4c-1.5,0.8-1.6,1.6-0.6,2.9
		c4.6,6.8,10.4,12.5,17.2,17.1c1.4,1,2.1,0.6,2.9-0.8c1.3-2.4,2.8-4.7,4-7.1c1-2,2-0.7,3-0.1c1,0.5,2.3,0.8,1.1,2.5
		c-1.6,2.3-2.8,4.9-4.2,7.3c-0.7,1.2-0.7,1.9,0.7,2.6c7.2,3.4,14.7,5.6,22.6,6.2c1.9,0.1,2.5-0.5,2.5-2.4c-0.1-6.3,0.1-9.7-0.1-16
		c0-2.1,0.8-2.6,2.7-2.5c1.9,0,2.8,0.3,2.8,2.5c-0.1,6.2,0,9.5-0.1,15.7c0,2.1,0.5,2.9,2.8,2.7c7.8-0.7,15.2-2.8,22.3-6.1
		c1.4-0.7,1.6-1.4,0.7-2.7c-1.3-2.1-2.3-4.3-3.7-6.3c-1-1.6-0.6-2.3,0.9-3.1c1.4-0.8,2.3-1.2,3.2,0.7c1.1,2.3,2.6,4.4,3.8,6.6
		c0.7,1.3,1.4,1.4,2.5,0.6c6.9-4.7,12.7-10.4,17.4-17.3c0.9-1.4,0.4-2-0.8-2.7c-2.2-1.2-4.3-2.6-6.6-3.7c-1.8-0.9-1.7-1.7-0.8-3.3
		c1-1.8,1.8-1.7,3.3-0.7c2.1,1.4,4.4,2.5,6.6,3.8c1.2,0.7,1.9,0.7,2.6-0.6c3.4-7.1,5.5-14.5,6.2-22.3c0.1-1.8-0.5-2.3-2.3-2.3
		c-6.4,0.1-9.8-0.1-16.3,0.1c-2.3,0.1-2.4-1-2.4-2.8c0-1.7-0.1-2.9,2.3-2.8c6.5,0.2,10,0,16.5,0.1c1.7,0,2.2-0.5,2.1-2.2
		c-0.5-8.1-2.7-15.6-6.1-22.9c-0.8-1.7-1.6-1.6-2.9-0.7c-2.3,1.4-4.7,2.7-7,4.1c-1.8,1.2-2.1-0.4-2.7-1.4c-0.7-1-1.2-1.9,0.4-2.8
		c2.5-1.3,4.8-2.8,7.3-4.2c1.3-0.7,1.4-1.4,0.6-2.6c-4.7-6.9-10.4-12.7-17.3-17.4c-1.2-0.8-1.9-0.7-2.5,0.6
		c-1.2,2.3-2.7,4.5-3.9,6.8c-0.8,1.7-1.6,1.7-3.1,0.8c-1.5-0.9-2.1-1.6-1-3.3c1.4-2.1,2.5-4.4,3.8-6.5c0.8-1.3,0.6-2-0.8-2.7
		c-7.1-3.4-14.5-5.5-22.3-6.2c-2.4-0.2-2.9,0.7-2.9,2.9c0.1,6.1,0,9.1,0.1,15.2c0,2.1-0.5,2.8-2.7,2.8c-2.1,0-2.8-0.7-2.8-2.8
		c0.1-6.2,0-9.3,0.1-15.4c0-1.9-0.4-2.8-2.6-2.6c-7.8,0.6-15.3,2.7-22.3,6.1c-1.3,0.6-1.5,1.3-0.8,2.5c1.4,2.2,2.5,4.6,4,6.8
		c1.2,1.7,0.6,2.3-0.9,3.2c-1.7,1-2.4,0.7-3.3-1c-1.1-2.3-2.6-4.4-3.8-6.6c-0.7-1.3-1.4-1.6-2.8-0.7c-6.7,4.6-12.4,10.2-17.1,16.8
		c-1,1.5-0.6,2.2,0.8,2.9c2.3,1.2,4.5,2.7,6.8,3.9c1.8,0.9,1.2,1.8,0.5,3c-0.7,1.1-1.2,2.2-2.9,1.2c-2.4-1.5-4.9-2.8-7.3-4.2
		c-1.1-0.7-1.8-0.6-2.3,0.6c-3.7,7.6-6.1,15.6-6.5,24.1c-0.1,1.6,0.7,1.8,1.9,1.8C138.3,132.9,141.6,132.9,145,132.9z"/>
</g>
<g id="its-top">
	<path id="i" class="st1" d="M96.9,33.1c0,2.3,0.1,5.7,0.2,10.3s0.2,8,0.2,10.3c0,0.4-0.1,0.6-0.3,0.7c0,0-0.3,0.1-0.8,0.1
		c-1.3,0.2-2.9,0.2-5.1,0.2c-2.8,0-4.6-0.1-5.4-0.2c-0.6-0.1-0.8-0.4-0.8-0.9c0,0.3,0.1-1.4,0.3-5.1c0.3-7.8,0.5-13,0.5-15.4
		c0-2.1-0.1-5.2-0.2-9.3s-0.2-7.2-0.2-9.3c0-0.4,0.2-0.6,0.7-0.6c0.6,0,1.5,0,2.7,0.1s2.1,0.1,2.7,0.1s1.5,0,2.7-0.1
		s2.1-0.1,2.7-0.1c0.6,0,0.8,0.2,0.8,0.6c0,2.1-0.1,5.2-0.3,9.3C97,27.9,96.9,31,96.9,33.1z"/>
	<path id="t" class="st1" d="M131.1,22.7c0,0.4-0.2,0.6-0.6,0.6c-0.7,0-3.7-0.1-8.7-0.4c-0.1,4.9-0.2,8.3-0.2,10.2
		c0,2.3,0.1,5.7,0.3,10.3c0.2,4.6,0.3,8,0.3,10.3c0,0.4-0.1,0.6-0.3,0.7c-0.1,0-0.3,0.1-0.8,0.2c-1.2,0.2-2.9,0.2-5.1,0.2
		c-2.5,0-4.3-0.1-5.3-0.2c-0.5-0.1-0.8-0.4-0.8-0.9c0-2.3,0.1-5.7,0.3-10.3c0.2-4.6,0.3-8,0.3-10.3c0-1.5-0.1-4.9-0.2-10.1
		c-3.9,0.4-6.9,0.6-9.3,0.6c-0.3,0-0.5-0.1-0.5-0.3c0-0.3,0.1-1,0.4-2.2c0.3-1.4,0.5-2.2,0.5-2.5c0.1-0.9,0.1-1.8,0.2-2.7
		c0.1-1.4,0.4-2.2,0.7-2.2c0,0,0.2,0,0.4,0c3.1,0.4,7.8,0.6,13.9,0.6c1.7,0,4.9-0.2,9.6-0.6c2.5-0.2,3.8-0.3,3.8-0.3
		c0.4,0,0.6,0,0.7,0.1c0.1,0.1,0.1,0.2,0.1,0.6c0,0.5,0,1.3-0.1,2.2c0,1-0.1,1.8-0.1,2.2c0,0.5,0.1,1.2,0.2,2.1
		C131,21.5,131.1,22.3,131.1,22.7z"/>
	<path id="_x27_" class="st1" d="M145.4,21c0,2.2-0.6,4.5-1.8,7c-1.1,2.3-2.5,4.3-4.2,5.9c-0.4,0.4-0.7,0.6-0.9,0.6
		c-0.2,0-0.4-0.1-0.6-0.4c-0.1-0.1-0.7-0.7-1.8-1.6c-1-0.8-1.4-1.3-1.4-1.4c0,0.2,0.5-0.5,1.5-2c1-1.5,1.5-3.1,1.5-4.7
		c0-1.3-0.7-2.6-2.2-4.1s-2.2-2.3-2.2-2.4c0-0.3,0.5-0.9,1.4-1.6c0.6-0.5,1.3-1,1.9-1.4c0.6-0.6,1.2-1.1,1.8-1.6
		c1-0.9,1.6-1.4,1.7-1.4c0.2,0,0.5,0.1,0.8,0.4C143.9,14.6,145.4,17.5,145.4,21z"/>
	<path id="s" class="st1" d="M167.4,31.1c0,0.2-0.1,0.5-0.4,0.8c-0.5-0.1-1.1-0.2-1.6-0.2c-1.1,0-2.1,0.3-2.9,0.8
		c-0.9,0.6-1.4,1.4-1.4,2.5c0,0.7,0.5,1.5,1.5,2.6c1.5,1.6,2.4,2.6,2.8,3.2c1,1.5,1.5,3,1.5,4.7c0,1-0.2,2-0.6,3.1
		c-0.4,1.2-1,2.1-1.7,2.7c-1.4,1.2-3.1,2.3-5,3.1c-2.1,0.9-4,1.3-5.7,1.3c-0.4,0-1.3-1-2.6-3.2c-1.4-2.1-2-3.4-2-3.8
		c0-0.2,0.1-0.3,0.3-0.3c1.4-0.3,2.7-0.5,4.1-0.8c1.7-0.5,2.6-1.4,2.6-2.7c0-0.8-0.5-1.8-1.5-3c-1.8-2-2.7-3-2.8-3.1
		c-1-1.4-1.5-2.9-1.5-4.4c0-2.9,1.5-5.4,4.4-7.4c2.6-1.8,5.4-2.7,8.4-2.7c0.3,0,1.1,1,2.3,3.1C166.8,29.5,167.4,30.7,167.4,31.1z"/>
</g>
<g id="_x33_0-top">
	<path id="_x33_" class="st1" d="M405.6,247.5c0,7.7-2.2,13.6-6.6,17.8c-3.7,3.6-8.4,5.4-14,5.4c-4.3,0-7.8-0.4-10.6-1.3
		c-6-1.8-9.1-3.4-9.1-4.9c0-0.3,0.1-0.6,0.2-1.1c0.4-1.5,1-3.8,1.8-6.9c0.2-1.5,0.6-3.8,1.2-6.9c0.3-1,0.7-1.6,1.3-1.6
		c-0.1,0,1.2,0.7,3.9,2.1c2.6,1.4,4.8,2.1,6.5,2.1c5.6,0,8.4-2.7,8.4-8.2c0-4.4-2.7-6.5-8-6.5c-0.7,0-1.7,0-2.8,0.1
		c-1.2,0.1-2,0.1-2.3,0.1c-1.8,0-2.7,0-2.9-0.1c-1.3-0.2-1.9-0.9-1.9-2.1c0-6.4,0.2-10.3,0.5-12c0.2-1,0.7-1.6,1.4-1.6
		c1,0,2.4,0.2,4.3,0.5s3.3,0.5,4.3,0.5c1.2,0,2.3-0.6,3.1-1.8c0.8-1.2,1.2-2.7,1.2-4.5c0-4.9-2.5-7.4-7.4-7.4
		c-2.1,0-4.9,0.8-8.4,2.4c-0.1,0-0.3,0.1-0.4,0.1c-0.4,0-0.7-0.6-1-1.7c-0.1-1.7-0.1-3.7-0.3-6c0-0.5-0.1-1.5-0.3-3
		c-0.1-1.2-0.2-2.2-0.2-2.9c0-2.2,2.4-3.9,7-5.1c3.2-0.8,6.4-1.3,9.4-1.3c4.9,0,9.1,1.6,12.8,4.7c4.4,3.7,6.7,8.9,6.7,15.5
		c0,7.6-2.4,13.4-7.1,17.3c2.8,1.4,5,3.7,6.7,6.9C404.7,239.5,405.6,243.3,405.6,247.5z"/>
	<path id="_x30_" class="st1" d="M460.3,231.2c0,10.7-2.4,19.9-7.2,27.6c-5,8-11.1,12-18.4,12s-13.5-4-18.4-12
		c-4.8-7.7-7.2-16.9-7.2-27.6c0-10.8,2.4-19.9,7.2-27.5c4.9-7.9,11.1-11.8,18.4-11.8s13.5,3.9,18.4,11.8
		C457.9,211.3,460.3,220.5,460.3,231.2z M444.3,231.2c0-4.3-0.9-8-2.6-11.1c-1.8-3.4-4.2-5-7.1-5c-3,0-5.3,1.7-7.1,5
		c-1.7,3.1-2.5,6.8-2.5,11.2c0,4.3,0.9,8.1,2.5,11.3c1.8,3.4,4.2,5.2,7.1,5.2c2.8,0,5.2-1.8,7-5.3
		C443.5,239.1,444.3,235.4,444.3,231.2z"/>
</g>
<path class="st1" d="M493.2,121.4c0,0.1,0,0.1,0,0.2C493.2,121.4,493.2,121.4,493.2,121.4z"/>
<g id="code-top">
	<path id="C" class="st1" d="M108.4,157.8c-0.6-0.7-1.2-1-1.8-1c-0.3,0-1.8,1.1-4.5,3.5c-3.2,2.7-6.4,4.9-9.5,6.4
		c-4.7,2.3-9.7,3.5-15,3.5c-8.9,0-16-3.4-21.4-10.2c-4.9-6.3-7.4-14-7.4-23.2c0-9.1,2.5-16.8,7.4-22.9c5.3-6.7,12.5-10,21.4-10
		c5.2,0,10.1,1.2,14.9,3.6c3.2,1.6,6.4,3.9,9.7,6.8c2.7,2.4,4.3,3.6,4.6,3.6c0.7,0,1.3-0.2,1.8-0.7c1.1-0.9,3.7-5.1,8-12.5
		c4.2-7.4,6.3-11.7,6.3-12.8c0-1-0.6-2.2-1.8-3.6c-11.2-12.1-26.6-18.1-46.2-18.1c-18.1,0-33,6.7-44.7,20.2
		c-11.2,12.9-16.8,28.5-16.8,47c0,19.1,5.7,34.8,17.2,47.3C42.3,197.6,57.6,204,76.6,204c18.5,0,33.3-6.6,44.5-19.9
		c1.3-1.6,1.9-2.9,1.9-3.8c0-0.7-2.2-4.4-6.7-11.1C112,162.7,109.4,158.9,108.4,157.8z"/>
	<path id="D" class="st1" d="M374.2,182.7c11.5-13.1,17.2-28.6,17.2-46.4c0-9.8-2.1-19.4-6.4-28.7c-4.4-9.8-10.5-17.5-18.1-22.9
		c-8.1-5.8-19.4-9.5-33.8-10.9c-5.5-0.5-17.6-0.8-36.3-0.8c-9.8,0-16.9,0.3-21.2,0.7c-1.8,0.2-2.6,1-2.6,2.3
		c0,6.9,0.3,17.3,0.8,31.3c0.5,13.9,0.8,24.4,0.8,31.4c0,6.7-0.3,16.7-0.8,30.1c-0.5,13.4-0.8,23.4-0.8,30.1c0,1.4,0.9,2.1,2.6,2.1
		c3,0,7.5,0.1,13.4,0.3c6,0.2,10.5,0.3,13.4,0.3c15.8,0,25.5-0.1,29-0.2C349.8,200.5,364,194.4,374.2,182.7z M348,162.4
		c-6,7-14.3,10.5-24.8,10.5c-9.7,0-14.6-1.3-14.6-3.9c0-3.6-0.1-8.9-0.2-16c-0.1-7.1-0.2-12.4-0.2-15.9c0-3.6,0.1-9,0.2-16.2
		s0.2-12.6,0.2-16.2c0-2.5,4.7-3.7,14-3.7c10.2,0,18.4,3.4,24.6,10.1c6.1,6.5,9.2,14.9,9.2,25.1C356.5,147.1,353.7,155.8,348,162.4z
		"/>
	<path id="E" class="st1" d="M496.7,169.2c-3.2,0-7.9,0.3-14.2,0.9s-11.1,0.9-14.3,0.9c-9,0-13.4,0-13.3,0
		c-6.7-0.4-10.6-1.8-11.6-4.1c-0.6-1.3-0.9-4.3-0.9-8.9c0-3.5,0-5.3,0.1-5.6c0.4-1.2,1.9-1.8,4.4-1.8h9.6c12.3,0,20.2,0.2,23.7,0.5
		l8.2,0.9c1.8,0,2.6-0.6,2.6-1.8c0-4.9,0.2-9.7,0.7-14.6c1-9.6,1.5-14.3,1.6-14.1c-0.1-1.3-0.8-1.9-2.2-1.9c-1.2,0-2.9,0.1-4.9,0.4
		c-2.7,0.2-4.3,0.4-5,0.5c-7.8,0.4-15.6,0.6-23.2,0.6c-1.1,0-2.6,0.1-4.4,0.1s-2.9,0.1-3.5,0.1c-2.9,0-4.9-0.6-5.9-1.7
		c-1.2-1.3-1.8-4.1-1.8-8.2c0-3.9,0.1-6.3,0.5-7c0.7-1.5,2.7-2.3,5.9-2.3c12.9,0,27.4,0.7,43.5,2c0.9,0.1,1.5,0.1,1.9,0.1
		c1.2,0,1.8-0.6,1.8-1.9c0-1.5-0.3-5.8-1-12.9c-0.6-7.1-1.1-11.3-1.4-12.7c-0.5-2.4-2.3-3.6-5.5-3.6c-4.4,0-11.1,0.1-20,0.4
		c-8.9,0.3-15.6,0.4-20,0.4c-4.5,0-11.2-0.1-20.3-0.4s-15.8-0.4-20.3-0.4c-1.6,0-2.4,0.7-2.3,2.1l0.1,1.3c0.5,9.7,0.8,16.9,1,21.8
		c0.7,18.9,1.1,31.8,1.1,38.7c0,6.8-0.4,17-1.1,30.6c-0.8,13.6-1.1,23.8-1.1,30.6c0,1.8,1,2.6,3,2.6c1.4,0,3,0,4.8,0
		c5.7-8.8,13-13.2,21.7-13.2c8.8,0,16.1,4.5,21.8,13.4c17.4,0.1,28.1,0.4,32,0.9c1.3,0.2,2.2,0.3,2.7,0.3c1.3,0,2.3-0.6,3-1.7
		c0.9-1.5,1.8-6,2.9-13.6c1-7,1.5-11.8,1.5-14.4C498.7,170.3,498,169.2,496.7,169.2z"/>
</g>
<g id="clock-hands">
	<line id="hr-hand" class="st2" x1="196" y1="135.3" x2="196" y2="110"/>
	<line id="min-hand" class="st2" x1="196" y1="135.3" x2="234.7" y2="135.2"/>
	<g id="dial">
		<path class="st0" d="M196,140.5c-2.9,0-5.2-2.3-5.2-5.2s2.3-5.2,5.2-5.2s5.2,2.3,5.2,5.2S198.9,140.5,196,140.5z"/>
		<path class="st1" d="M196,131.1c2.3,0,4.2,1.9,4.2,4.2s-1.9,4.2-4.2,4.2c-2.3,0-4.2-1.9-4.2-4.2S193.7,131.1,196,131.1 M196,129.1
			c-3.4,0-6.2,2.8-6.2,6.2s2.8,6.2,6.2,6.2s6.2-2.8,6.2-6.2S199.4,129.1,196,129.1L196,129.1z"/>
	</g>
</g>
</svg>
