<?xml version="1.0" encoding="utf-8"?>
<!-- Generator: Adobe Illustrator 24.0.0, SVG Export Plug-In . SVG Version: 6.00 Build 0)  -->
<svg version="1.1" id="Layer_1" xmlns="http://www.w3.org/2000/svg" xmlns:xlink="http://www.w3.org/1999/xlink" x="0px" y="0px"
	 viewBox="0 0 511.32 284.02" style="enable-background:new 0 0 511.32 284.02;" xml:space="preserve">
<style type="text/css">
	.st0{fill:#FFA600;}
	.st1{fill:#FFFFFF;}
</style>
<g>
	<g>
		<path class="st0" d="M509.13,102.17c0-1.42-0.12-4.2-1.01-14.07c-0.94-10.39-1.35-12.85-1.65-14.26
			c-1.8-8.56-9.04-14.08-18.47-14.08c-4.55,0-11.22,0.12-20.39,0.37c-8.74,0.24-15.35,0.36-19.66,0.36
			c-4.37,0-11.06-0.12-19.89-0.35c-9.25-0.25-15.99-0.36-20.61-0.36c-4.63,0-8.77,1.75-11.68,4.92c-2.82,3.08-4.19,7.15-3.84,11.48
			l0.08,1.07c0.34,6.7,0.6,12.25,0.79,16.6c-4.88-8.15-10.97-14.86-18.19-20.02c-10.01-7.16-23.52-11.65-40.2-13.33
			c-6.01-0.59-18.32-0.88-37.62-0.87c-10.42,0-17.84,0.27-22.69,0.82c-0.11,0.01-0.22,0.03-0.33,0.04
			c-8.31,1.15-14.11,7.5-14.11,15.45c0,1.98,0.02,4.26,0.06,6.81c-1.8-2.16-3.72-4.24-5.75-6.24
			c-15.72-15.45-36.26-23.85-57.8-23.67c-6.25,0.05-12.36,0.76-18.27,2.07c0.28-0.61,0.55-1.23,0.79-1.88
			c0.02-0.05,0.04-0.11,0.06-0.16c0.88-2.52,1.33-5.05,1.33-7.54c0-2.49-0.44-4.96-1.28-7.29c1.52-2.64,1.89-5.15,1.89-6.98
			c0-3.83-1.52-6.71-3.66-10.36c-1.99-3.39-5.68-9.69-13.76-9.69c-2.2,0-4.34,0.25-6.42,0.75c-1.61-3.83-2.74-7.65-8.13-10.29
			S86.77,0.55,85.95,0.55C78.13,0.55,72,6.67,72,14.49c0,2.24,0.07,5.43,0.21,9.75c0.13,3.99,0.2,6.97,0.2,8.88
			c0,1.55-0.09,5.38-0.5,14.81c-0.13,2.86-0.19,4.02-0.22,4.48c-0.04,0.41-0.06,0.83-0.06,1.25c0,1.12,0.14,2.21,0.38,3.26
			C51.23,57.59,33.77,65.9,20.1,81.63C6.76,96.93-0.01,115.67,0,137.34c0.01,22.4,6.98,41.34,20.68,56.27
			c14.34,15.74,33.15,23.72,55.89,23.71c22.53-0.01,40.92-8.31,54.68-24.69c0.06-0.07,0.11-0.13,0.16-0.2
			c0.83-1.03,1.56-2.06,2.17-3.09c1.47,1.67,3,3.3,4.61,4.87c15.56,15.17,35.85,23.48,57.2,23.48c0.28,0,0.57,0,0.85,0
			c25.92-0.27,48.61-11.76,63.58-29.88c-0.1,4.28-0.15,7.92-0.15,10.89c0,8.77,6.85,15.38,15.94,15.38c2.82,0,7.2,0.09,13.02,0.26
			c6.17,0.19,10.69,0.28,13.83,0.28c16.12,0,25.76-0.07,29.47-0.2c8.34-0.28,16.04-1.56,23.07-3.83c0.03,0.81,0.13,1.63,0.31,2.42
			c0.62,2.79,0.81,31.11,0.26,33.35c-0.06,0.24-0.11,0.49-0.16,0.73c-0.53,2.82-0.92,5.02-1.18,6.68c-0.69,2.72-1.21,4.79-1.58,6.2
			c-0.03,0.12-0.06,0.25-0.09,0.37c-0.35,1.52-0.51,2.82-0.51,4.11c0,3.37,1.21,9.66,9.29,13.99c2.33,1.25,5.25,2.38,9.17,3.57
			c4.1,1.27,8.85,1.89,14.52,1.89c8.96,0,16.96-3.13,23.14-9.03c0.67-0.63,1.35-1.34,2.03-2.12c8.28,9.12,17.59,11.26,24.49,11.26
			c8.39,0,20.36-3.17,29.72-18.23c6.1-9.79,9.18-21.44,9.18-34.62c0-5.92-0.63-11.53-1.88-16.79c10.37,0.18,13.84,0.47,14.96,0.62
			c1.94,0.28,3.35,0.4,4.56,0.4c5.87,0,11.06-2.89,14.24-7.92c0.08-0.13,0.17-0.27,0.25-0.41c1.63-2.8,2.91-6.71,4.57-18.31
			c1.51-10.25,0.92-49.03,0.92-51.12C511.2,129.55,509.13,106.75,509.13,102.17z"/>
		<g>
			<g>
				<path class="st1" d="M196.1,204.4c-37.48,0.4-69.04-30.36-69.52-67.74c-0.5-39.24,30.09-70.21,69.68-70.54
					c37.22-0.32,68.74,30.64,69.1,67.88C265.75,173.09,235.35,203.99,196.1,204.4z M144.96,132.94c3.25,0,6.52,0.14,9.76-0.05
					c2.24-0.13,2.25,1.04,2.19,2.64c-0.06,1.53,0.32,2.97-2.21,2.89c-6.14-0.18-12.3,0.06-18.44-0.11
					c-2.59-0.07-3.54,0.58-3.22,3.29c0.88,7.33,2.83,14.32,5.96,21c0.76,1.62,1.57,1.6,2.92,0.76c2.3-1.43,4.72-2.66,7.03-4.09
					c1.85-1.15,2.08,0.45,2.73,1.42c0.7,1.06,1.19,1.92-0.46,2.74c-2.42,1.21-4.67,2.75-7.06,4.02c-1.52,0.8-1.57,1.58-0.64,2.94
					c4.65,6.8,10.39,12.47,17.17,17.13c1.45,1,2.15,0.65,2.91-0.76c1.28-2.39,2.79-4.66,4.02-7.06c1.02-1.99,2.04-0.68,3.04-0.15
					c0.97,0.51,2.26,0.81,1.13,2.51c-1.55,2.32-2.78,4.86-4.24,7.25c-0.73,1.19-0.67,1.92,0.67,2.55c7.17,3.38,14.66,5.56,22.6,6.16
					c1.92,0.15,2.54-0.5,2.52-2.4c-0.08-6.33,0.05-12.66-0.07-18.98c-0.04-2.13,0.8-2.56,2.72-2.54c1.85,0.02,2.82,0.29,2.77,2.49
					c-0.13,6.24,0.02,12.48-0.07,18.71c-0.03,2.08,0.49,2.91,2.75,2.72c7.83-0.69,15.24-2.8,22.33-6.15
					c1.43-0.67,1.58-1.41,0.74-2.72c-1.31-2.05-2.34-4.29-3.69-6.31c-1.04-1.57-0.56-2.34,0.9-3.15c1.36-0.76,2.31-1.16,3.2,0.67
					c1.1,2.27,2.56,4.36,3.76,6.59c0.68,1.25,1.35,1.43,2.54,0.62c6.89-4.68,12.66-10.44,17.35-17.33c0.94-1.38,0.44-2.02-0.79-2.7
					c-2.22-1.21-4.33-2.64-6.6-3.74c-1.82-0.88-1.68-1.73-0.82-3.31c0.97-1.79,1.81-1.73,3.33-0.73c2.11,1.39,4.41,2.49,6.55,3.82
					c1.18,0.73,1.92,0.7,2.55-0.64c3.39-7.07,5.55-14.47,6.18-22.31c0.15-1.83-0.53-2.34-2.28-2.32
					c-6.42,0.08-12.84-0.08-19.25,0.09c-2.33,0.06-2.39-1.01-2.37-2.75c0.03-1.67-0.05-2.86,2.33-2.79
					c6.5,0.17,13.02,0.01,19.53,0.09c1.69,0.02,2.18-0.52,2.08-2.18c-0.46-8.05-2.68-15.61-6.06-22.9
					c-0.76-1.65-1.59-1.55-2.92-0.72c-2.3,1.43-4.73,2.66-7.02,4.09c-1.84,1.15-2.09-0.44-2.74-1.4c-0.7-1.04-1.23-1.91,0.43-2.75
					c2.49-1.26,4.84-2.82,7.3-4.15c1.25-0.68,1.43-1.36,0.63-2.55c-4.66-6.9-10.43-12.68-17.31-17.36c-1.18-0.8-1.85-0.67-2.53,0.61
					c-1.24,2.31-2.74,4.48-3.9,6.82c-0.82,1.65-1.6,1.72-3.1,0.84c-1.53-0.9-2.12-1.64-0.98-3.33c1.41-2.09,2.5-4.39,3.84-6.54
					c0.81-1.3,0.65-2.04-0.78-2.72c-7.09-3.36-14.49-5.48-22.32-6.18c-2.37-0.21-2.92,0.67-2.88,2.86
					c0.12,6.05-0.03,12.11,0.08,18.17c0.04,2.08-0.52,2.84-2.73,2.82c-2.15-0.01-2.8-0.66-2.76-2.79c0.12-6.15-0.01-12.3,0.07-18.44
					c0.02-1.91-0.4-2.8-2.57-2.63c-7.84,0.63-15.25,2.74-22.34,6.09c-1.27,0.6-1.54,1.26-0.76,2.51c1.38,2.22,2.49,4.62,3.97,6.78
					c1.17,1.7,0.55,2.32-0.95,3.24c-1.68,1.03-2.45,0.69-3.28-0.96c-1.13-2.26-2.55-4.37-3.75-6.59c-0.72-1.34-1.45-1.56-2.75-0.67
					c-6.73,4.57-12.43,10.16-17.07,16.85c-1.03,1.48-0.62,2.15,0.8,2.9c2.31,1.22,4.49,2.71,6.83,3.87c1.78,0.88,1.19,1.83,0.51,3
					c-0.67,1.14-1.18,2.24-2.87,1.15c-2.35-1.52-4.85-2.79-7.25-4.24c-1.09-0.66-1.76-0.57-2.34,0.63
					c-3.71,7.64-6.1,15.61-6.49,24.15c-0.07,1.57,0.67,1.78,1.95,1.76C138.27,132.91,141.61,132.94,144.96,132.94z"/>
				<path class="st1" d="M214.95,90.35c-0.71,1.97-1.34,3.75-2,5.53c-4.41,11.82-8.78,23.66-13.29,35.45
					c-0.76,1.98-0.44,3.04,1.31,4.2c5.94,3.94,11.71,8.14,17.69,12.02c2.01,1.3,1.29,2.22,0.38,3.61c-0.95,1.46-1.68,2.28-3.56,0.96
					c-7.24-5.08-14.59-9.99-21.91-14.96c-0.68-0.46-1.33-0.75-0.8-1.88c4.8-10.31,8.12-21.19,12.28-31.75
					c1.82-4.61,3.48-9.28,5.19-13.93c0.34-0.92,0.67-1.75,1.88-1.1C213.13,89.04,214.68,88.86,214.95,90.35z"/>
			</g>
			<g>
				<path class="st1" d="M96.87,33.11c0,2.28,0.06,5.72,0.18,10.3c0.12,4.58,0.18,8.02,0.18,10.3c0,0.39-0.09,0.63-0.26,0.72
					c-0.04,0.02-0.29,0.06-0.75,0.12c-1.26,0.16-2.94,0.23-5.05,0.23c-2.82,0-4.62-0.08-5.4-0.23c-0.56-0.12-0.84-0.42-0.84-0.9
					c0,0.31,0.09-1.39,0.26-5.11c0.35-7.83,0.52-12.98,0.52-15.44c0-2.07-0.07-5.17-0.21-9.31c-0.14-4.14-0.2-7.24-0.21-9.31
					c0-0.43,0.22-0.64,0.67-0.64c0.6,0,1.5,0.03,2.71,0.09c1.21,0.06,2.11,0.09,2.71,0.09c0.6,0,1.48-0.03,2.65-0.09
					c1.17-0.06,2.05-0.09,2.65-0.09c0.56,0,0.84,0.21,0.84,0.64c0,2.07-0.11,5.17-0.33,9.31C96.98,27.93,96.87,31.04,96.87,33.11z"
					/>
				<path class="st1" d="M131.05,22.71c0,0.39-0.21,0.58-0.64,0.58c-0.74,0-3.65-0.14-8.73-0.43c-0.11,4.89-0.17,8.31-0.17,10.24
					c0,2.28,0.09,5.72,0.28,10.3c0.18,4.58,0.28,8.02,0.28,10.3c0,0.37-0.09,0.6-0.26,0.7c-0.06,0.04-0.33,0.09-0.81,0.15
					c-1.16,0.16-2.86,0.23-5.11,0.23c-2.49,0-4.25-0.08-5.25-0.23c-0.54-0.1-0.81-0.4-0.81-0.9c0-2.28,0.09-5.71,0.29-10.27
					c0.19-4.56,0.29-7.99,0.29-10.27c0-1.51-0.08-4.87-0.23-10.1c-3.87,0.39-6.95,0.58-9.25,0.58c-0.31,0-0.46-0.1-0.46-0.29
					c0-0.25,0.13-1,0.41-2.23c0.31-1.35,0.48-2.18,0.52-2.47c0.06-0.91,0.13-1.82,0.2-2.73c0.13-1.45,0.37-2.18,0.7-2.18
					c0.04,0,0.17,0.01,0.41,0.03c3.13,0.41,7.77,0.61,13.9,0.61c1.74,0,4.95-0.19,9.63-0.55c2.51-0.19,3.78-0.29,3.8-0.29
					c0.39,0,0.61,0.02,0.67,0.07c0.06,0.05,0.1,0.24,0.12,0.57c0,0.52-0.02,1.25-0.06,2.18c-0.04,1.03-0.06,1.75-0.06,2.18
					c0,0.48,0.06,1.19,0.19,2.13C130.98,21.54,131.05,22.25,131.05,22.71z"/>
				<path class="st1" d="M145.38,20.97c0,2.19-0.61,4.53-1.83,7.02c-1.12,2.3-2.53,4.28-4.23,5.92c-0.39,0.39-0.7,0.58-0.93,0.58
					c-0.19,0-0.4-0.14-0.61-0.41c-0.12-0.14-0.72-0.67-1.8-1.6c-0.97-0.83-1.45-1.3-1.45-1.39c0,0.19,0.49-0.47,1.48-1.99
					c0.99-1.52,1.48-3.1,1.48-4.74c0-1.26-0.72-2.63-2.16-4.13c-1.44-1.5-2.16-2.29-2.16-2.36c0-0.31,0.48-0.85,1.45-1.62
					c0.64-0.48,1.28-0.97,1.91-1.45c0.6-0.56,1.19-1.11,1.77-1.65c0.99-0.91,1.55-1.36,1.68-1.36c0.19,0,0.47,0.14,0.84,0.41
					C143.86,14.55,145.38,17.48,145.38,20.97z"/>
				<path class="st1" d="M167.37,31.06c0,0.19-0.15,0.45-0.44,0.78c-0.54-0.13-1.08-0.2-1.62-0.2c-1.14,0-2.1,0.25-2.87,0.76
					c-0.93,0.58-1.39,1.4-1.39,2.47c0,0.68,0.49,1.54,1.48,2.58c1.49,1.57,2.41,2.62,2.76,3.16c0.99,1.47,1.48,3.05,1.48,4.73
					c0,0.99-0.19,2.03-0.58,3.13c-0.44,1.22-1.01,2.11-1.68,2.67c-1.43,1.24-3.1,2.28-5.02,3.13c-2.07,0.89-3.97,1.34-5.72,1.34
					c-0.39,0-1.25-1.05-2.6-3.15c-1.35-2.1-2.02-3.38-2.02-3.84c0-0.17,0.11-0.28,0.32-0.32c1.35-0.25,2.72-0.5,4.09-0.76
					c1.7-0.54,2.55-1.43,2.55-2.67c0-0.85-0.49-1.84-1.48-2.96c-1.76-1.95-2.68-2.99-2.76-3.1c-0.99-1.39-1.48-2.86-1.48-4.41
					c0-2.9,1.47-5.37,4.41-7.4c2.63-1.8,5.44-2.7,8.44-2.7c0.31,0,1.07,1.04,2.29,3.12C166.76,29.49,167.37,30.71,167.37,31.06z"/>
			</g>
			<g>
				<path class="st1" d="M405.57,247.5c0,7.68-2.19,13.6-6.57,17.75c-3.73,3.57-8.38,5.36-13.97,5.36c-4.3,0-7.84-0.43-10.62-1.31
					c-6.05-1.82-9.07-3.44-9.07-4.86c0-0.25,0.06-0.62,0.17-1.12c0.4-1.54,0.99-3.84,1.76-6.91c0.23-1.54,0.63-3.82,1.2-6.85
					c0.26-1.04,0.69-1.56,1.29-1.56c-0.09,0,1.2,0.68,3.85,2.05c2.65,1.37,4.82,2.05,6.51,2.05c5.62,0,8.43-2.72,8.42-8.16
					c0-4.36-2.67-6.54-8-6.54c-0.72,0-1.66,0.04-2.84,0.13c-1.18,0.08-1.95,0.13-2.32,0.13c-1.75,0-2.71-0.02-2.88-0.06
					c-1.26-0.21-1.89-0.91-1.89-2.12c0-6.35,0.17-10.34,0.51-11.96c0.23-1.04,0.69-1.56,1.38-1.56c0.97,0,2.41,0.18,4.32,0.53
					c1.91,0.35,3.33,0.53,4.28,0.53c1.23,0,2.26-0.59,3.07-1.78c0.82-1.18,1.22-2.69,1.22-4.52c0-4.9-2.47-7.35-7.4-7.35
					c-2.06,0-4.86,0.81-8.38,2.43c-0.14,0.04-0.27,0.06-0.39,0.06c-0.37,0-0.69-0.58-0.95-1.74c-0.06-1.74-0.14-3.74-0.26-5.98
					c-0.03-0.5-0.11-1.5-0.26-2.99c-0.12-1.2-0.17-2.18-0.17-2.93c0-2.2,2.35-3.9,7.05-5.11c3.24-0.83,6.38-1.25,9.41-1.25
					c4.87,0,9.14,1.55,12.81,4.67c4.44,3.74,6.67,8.91,6.67,15.51c0,7.6-2.38,13.37-7.13,17.32c2.81,1.37,5.04,3.67,6.69,6.91
					C404.74,239.53,405.57,243.27,405.57,247.5z"/>
				<path class="st1" d="M460.29,231.17c0,10.71-2.39,19.91-7.17,27.6c-4.96,7.97-11.1,11.96-18.44,11.96
					c-7.34,0-13.47-3.98-18.4-11.95c-4.82-7.68-7.23-16.88-7.23-27.59c0-10.75,2.4-19.93,7.21-27.53
					c4.93-7.85,11.06-11.78,18.4-11.78c7.34,0,13.47,3.92,18.4,11.77C457.88,211.28,460.29,220.46,460.29,231.17z M444.34,231.17
					c0-4.28-0.86-7.99-2.58-11.15c-1.84-3.36-4.2-5.04-7.09-5.04c-2.95,0-5.33,1.66-7.14,4.98c-1.69,3.07-2.53,6.81-2.53,11.21
					c0,4.32,0.85,8.08,2.54,11.27c1.83,3.45,4.21,5.17,7.14,5.17c2.81,0,5.16-1.77,7.05-5.3
					C443.47,239.08,444.34,235.37,444.34,231.17z"/>
			</g>
			<g>
				<path class="st1" d="M108.41,157.79c-0.61-0.67-1.21-1-1.82-1c-0.3,0-1.79,1.15-4.46,3.46c-3.22,2.73-6.37,4.86-9.46,6.37
					c-4.73,2.31-9.74,3.46-15.02,3.46c-8.92,0-16.05-3.39-21.39-10.19c-4.92-6.25-7.38-13.98-7.38-23.21
					c0-9.1,2.45-16.75,7.37-22.94c5.34-6.68,12.47-10.01,21.39-10.02c5.16,0,10.13,1.21,14.93,3.64c3.15,1.64,6.37,3.91,9.65,6.82
					c2.73,2.43,4.25,3.64,4.55,3.64c0.73,0,1.33-0.24,1.82-0.73c1.09-0.91,3.74-5.07,7.96-12.47c4.21-7.4,6.32-11.68,6.32-12.83
					c0-1.03-0.61-2.21-1.82-3.55c-11.17-12.07-26.58-18.1-46.24-18.1c-18.08,0-32.98,6.74-44.68,20.22
					c-11.22,12.87-16.83,28.52-16.83,46.97c0,19.05,5.74,34.83,17.21,47.32c11.77,12.92,27.13,19.38,46.06,19.37
					c18.51,0,33.34-6.65,44.5-19.94c1.27-1.58,1.91-2.85,1.91-3.82c0-0.67-2.22-4.37-6.65-11.1
					C112.02,162.67,109.38,158.88,108.41,157.79z"/>
				<path class="st1" d="M374.17,182.66c11.46-13.11,17.19-28.58,17.19-46.42c0-9.83-2.13-19.39-6.38-28.67
					c-4.43-9.83-10.47-17.47-18.12-22.93c-8.13-5.82-19.39-9.46-33.77-10.91c-5.52-0.54-17.63-0.81-36.31-0.81
					c-9.83,0-16.9,0.25-21.21,0.73c-1.76,0.24-2.64,1-2.64,2.28c0,6.92,0.26,17.34,0.78,31.26c0.52,13.93,0.78,24.38,0.78,31.35
					c0,6.68-0.25,16.7-0.77,30.08c-0.51,13.38-0.77,23.41-0.77,30.08c0,1.4,0.88,2.09,2.64,2.09c2.97,0,7.45,0.09,13.42,0.27
					c5.98,0.18,10.45,0.27,13.42,0.27c15.84,0,25.51-0.07,29.03-0.19C349.82,200.53,364.04,194.37,374.17,182.66z M348.05,162.37
					c-6,6.98-14.26,10.47-24.75,10.47c-9.71,0-14.56-1.3-14.56-3.91c0-3.58-0.06-8.9-0.19-15.97c-0.12-7.07-0.18-12.36-0.19-15.88
					c0-3.58,0.06-8.97,0.18-16.16c0.12-7.19,0.18-12.57,0.18-16.16c0-2.49,4.67-3.73,14.02-3.74c10.19,0,18.39,3.36,24.58,10.1
					c6.13,6.49,9.2,14.86,9.2,25.12C356.51,147.05,353.69,155.75,348.05,162.37z"/>
				<path class="st1" d="M493.19,121.36c0,0.07,0.01,0.13,0.01,0.2C493.21,121.44,493.2,121.37,493.19,121.36z"/>
				<path class="st1" d="M496.68,169.16c-3.16,0-7.9,0.29-14.24,0.87c-6.34,0.58-11.12,0.87-14.33,0.87c-8.98,0-13.41,0-13.29,0
					c-6.74-0.42-10.62-1.79-11.65-4.09c-0.61-1.33-0.91-4.31-0.91-8.92c0-3.46,0.03-5.34,0.09-5.64c0.42-1.21,1.88-1.82,4.37-1.82
					l9.65,0c12.32,0,20.21,0.18,23.66,0.54l8.19,0.91c1.76,0,2.64-0.61,2.64-1.82c0-4.85,0.24-9.71,0.72-14.56
					c0.99-9.59,1.53-14.29,1.62-14.13c-0.07-1.26-0.79-1.89-2.17-1.89c-1.21,0-2.85,0.12-4.91,0.37c-2.67,0.24-4.34,0.4-5.01,0.46
					c-7.83,0.43-15.56,0.64-23.21,0.64c-1.15,0-2.61,0.05-4.37,0.14c-1.76,0.09-2.94,0.14-3.55,0.14c-2.91,0-4.89-0.57-5.92-1.73
					c-1.21-1.33-1.82-4.06-1.82-8.19c0-3.94,0.15-6.28,0.45-7.01c0.73-1.52,2.7-2.28,5.92-2.28c12.86,0,27.36,0.66,43.51,1.99
					c0.91,0.06,1.55,0.09,1.91,0.09c1.21,0,1.82-0.64,1.82-1.91c0-1.52-0.32-5.81-0.96-12.88c-0.64-7.07-1.11-11.3-1.41-12.7
					c-0.49-2.37-2.31-3.55-5.46-3.55c-4.43,0-11.1,0.13-20.02,0.37c-8.92,0.25-15.59,0.37-20.02,0.37c-4.49,0-11.24-0.12-20.25-0.36
					c-9.01-0.24-15.76-0.36-20.25-0.36c-1.64,0-2.4,0.7-2.28,2.09l0.09,1.27c0.49,9.65,0.82,16.9,1.01,21.75
					c0.73,18.87,1.1,31.76,1.1,38.68c0,6.8-0.38,17.01-1.13,30.63c-0.76,13.62-1.13,23.83-1.13,30.63c0,1.76,1,2.64,3,2.64
					c1.4,0,3.01,0,4.84,0.01c5.69-8.77,12.99-13.23,21.69-13.24c8.76,0,16.1,4.52,21.82,13.41c17.4,0.05,28.07,0.35,32.01,0.89
					c1.27,0.18,2.18,0.27,2.73,0.27c1.27,0,2.28-0.58,3-1.73c0.85-1.46,1.82-5.98,2.91-13.56c1.03-6.98,1.54-11.77,1.54-14.38
					C498.68,170.25,498.01,169.16,496.68,169.16z"/>
			</g>
		</g>
	</g>
</g>
</svg>
