<?xml version="1.0" encoding="utf-8"?>
<!-- Generator: Adobe Illustrator 24.0.0, SVG Export Plug-In . SVG Version: 6.00 Build 0)  -->
<svg version="1.1" id="Layer_1" xmlns="http://www.w3.org/2000/svg" xmlns:xlink="http://www.w3.org/1999/xlink" x="0px" y="0px"
	 viewBox="0 0 512.13 391.5" style="enable-background:new 0 0 512.13 391.5;" xml:space="preserve">
<style type="text/css">
	.st0{fill:url(#SVGID_1_);}
	.st1{fill:#FFA600;}
	.st2{fill:#FFFFFF;}
	.st3{fill:#FFFFFF;stroke:#FF8B1E;stroke-miterlimit:10;}
	.st4{fill:url(#SVGID_2_);}
	.st5{fill:url(#SVGID_3_);}
	.st6{clip-path:url(#SVGID_5_);fill:url(#SVGID_6_);}
	.st7{clip-path:url(#SVGID_5_);fill:url(#SVGID_7_);}
	.st8{clip-path:url(#SVGID_5_);fill:url(#SVGID_8_);}
	.st9{clip-path:url(#SVGID_5_);fill:url(#SVGID_9_);}
	.st10{clip-path:url(#SVGID_5_);fill:url(#SVGID_10_);}
	.st11{fill:none;stroke:#FF8B1E;stroke-width:0.8;stroke-miterlimit:10;}
	.st12{fill:none;stroke:#FF8B1E;stroke-miterlimit:10;}
	.st13{fill:url(#SVGID_11_);}
	.st14{fill:url(#SVGID_12_);}
	.st15{fill:url(#SVGID_13_);}
	.st16{fill:url(#SVGID_14_);}
	.st17{fill:url(#SVGID_15_);}
	.st18{fill:url(#SVGID_16_);}
	.st19{fill:url(#SVGID_17_);}
	.st20{fill:url(#SVGID_18_);}
	.st21{fill:url(#SVGID_19_);}
	.st22{fill:url(#SVGID_20_);}
	.st23{fill:url(#SVGID_21_);}
	.st24{fill:url(#SVGID_22_);}
	.st25{fill:url(#SVGID_23_);}
	.st26{fill:url(#SVGID_24_);}
	.st27{fill:url(#SVGID_25_);}
	.st28{fill:url(#SVGID_26_);}
	.st29{fill:url(#SVGID_27_);}
	.st30{fill:url(#SVGID_28_);}
	.st31{fill:url(#SVGID_29_);}
	.st32{fill:url(#SVGID_30_);}
	.st33{fill:url(#SVGID_31_);}
	.st34{fill:url(#SVGID_32_);}
	.st35{fill:url(#SVGID_33_);}
	.st36{fill:url(#SVGID_34_);}
	.st37{fill:url(#SVGID_35_);}
	.st38{fill:url(#SVGID_36_);}
	.st39{fill:url(#SVGID_37_);}
	.st40{fill:url(#SVGID_38_);}
	.st41{fill:url(#SVGID_39_);}
	.st42{fill:url(#SVGID_40_);}
	.st43{fill:url(#SVGID_41_);}
	.st44{fill:url(#SVGID_42_);}
	.st45{fill:url(#SVGID_43_);}
	.st46{fill:url(#SVGID_44_);}
	.st47{fill:url(#SVGID_45_);}
	.st48{fill:url(#SVGID_46_);}
	.st49{fill:url(#SVGID_47_);}
	.st50{fill:url(#SVGID_48_);}
	.st51{fill:url(#SVGID_49_);}
	.st52{fill:url(#SVGID_50_);}
	.st53{fill:url(#SVGID_51_);}
	.st54{fill:url(#SVGID_52_);}
	.st55{fill:url(#SVGID_53_);}
	.st56{fill:#FFFFFF;stroke:#FF8B1E;stroke-width:0.8;stroke-miterlimit:10;}
</style>
<g>
	<g>
		<g id="XMLID_1_">
			<g>
				<linearGradient id="SVGID_1_" gradientUnits="userSpaceOnUse" x1="268.9964" y1="0" x2="268.9964" y2="292">
					<stop  offset="0" style="stop-color:#FFA600"/>
					<stop  offset="0.2002" style="stop-color:#FFA200"/>
					<stop  offset="0.3832" style="stop-color:#FF9700"/>
					<stop  offset="0.5589" style="stop-color:#FF8500"/>
					<stop  offset="0.5728" style="stop-color:#FF8300"/>
				</linearGradient>
				<path class="st0" d="M381.95,204.04c5.78,17.34-1.87,36.6-17.8,44.8l-22.14,11.4l-0.25,3.03c-0.53,6.27-4.67,11.29-10.22,13.02
					h1.66c4.21,0,7.63,3.52,7.63,7.86S337.4,292,333.2,292H269h-64.2c-4.21,0-7.64-3.52-7.64-7.86s3.42-7.86,7.64-7.86h1.66
					c-5.56-1.73-9.69-6.75-10.22-13.02l-0.25-3.03l-22.15-11.4c-15.93-8.2-23.59-27.46-17.8-44.8l15.97-47.88
					c1.88-5.93,9.21-13.54,10.66-15.01c6.64-6.83,13.93-12.77,21.73-17.77c5.38,6.65,12.25,10.03,12.25,10.03
					c-5.51-6.6-6.92-8.91-8.75-12.19c-5.34-9.58-8.47-19.8-8.47-29.96c0-21.74,7.21-44.28,19.79-61.84C232.81,10.44,250.49,0,269,0
					s36.19,10.44,49.78,29.41c12.57,17.56,19.79,40.1,19.79,61.84c0,10.17-3.13,20.38-8.47,29.96c-1.84,3.29-3.25,5.6-8.76,12.19
					c0,0,6.86-3.38,12.26-10.03c7.8,5,15.09,10.94,21.73,17.77c1.45,1.46,8.78,9.08,10.66,15.01L381.95,204.04z M370.13,222.68
					c2-3.98,1.97-10.15,0.48-14.64l-16-47.96c-0.65-2.05-4.5-6.89-7.73-10.15c-3.55-3.67-7.32-7.04-11.27-10.13
					c-4.61,3.77-26.69,20.63-52.46,25.77c11.16-12.51,26.18-23.81,35.08-51.67c0,0-12.4,15.42-15.7,19.25
					c-8.61,10-21.39,20.79-33.54,20.79c-12.16,0-24.95-10.79-33.55-20.79c-3.3-3.83-15.7-19.25-15.7-19.25
					c8.91,27.87,23.93,39.16,35.09,51.67c-25.78-5.14-47.86-22-52.47-25.77c-3.94,3.09-7.7,6.46-11.27,10.13
					c-3.22,3.26-7.08,8.1-7.73,10.15l-15.99,47.96c-1.5,4.49-1.53,10.66,0.47,14.64c1.55,3.09,10.54,10.76,26.21,14.62l-3.99-47.44
					c-0.35-4.16,1.02-8.33,3.77-11.41c2.75-3.07,6.65-4.85,10.72-4.85H269h64.44c4.06,0,7.97,1.77,10.71,4.85
					c2.75,3.08,4.12,7.25,3.77,11.41l-3.99,47.44C359.6,233.45,368.58,225.78,370.13,222.68z M340.7,185.32
					c-1.78-2.48-5.66-4.22-10.22-4.22H269h-61.48c-4.55,0-8.44,1.74-10.22,4.22c1.65-0.54,3.51-0.86,5.5-0.86H269h66.2
					C337.19,184.46,339.06,184.77,340.7,185.32z M326.4,86.09c-1.02-17.52-7.18-35.25-17.28-49.35
					C297.85,21.01,283.6,12.35,269,12.35c-14.61,0-28.86,8.66-40.12,24.39c-10.1,14.1-16.26,31.83-17.28,49.35
					c11.53-11.71,32.93-19.62,57.41-19.68C293.48,66.47,314.88,74.37,326.4,86.09z M304.5,101.76c-4.41-2.2-18.35-1.07-29.35-8.72
					c-1.81-1.26-3.35-3.39-6.15-3.39c-2.8,0-4.34,2.13-6.16,3.39c-11,7.65-24.94,6.52-29.35,8.72
					c5.92,17.63,19.59,35.35,35.51,35.35C284.91,137.11,298.58,119.39,304.5,101.76z M299.1,79.43c0,0-4.17-2.56-9.69-1.73
					c-5.24,0.78-9.42,4.99-9.42,4.99s4.89,4.66,9.31,4.68C297.34,87.39,299.1,79.43,299.1,79.43z M278.44,226.84
					c0-5.37-4.23-9.72-9.44-9.72c-5.22,0-9.45,4.35-9.45,9.72c0,5.38,4.23,9.73,9.45,9.73
					C274.21,236.57,278.44,232.22,278.44,226.84z M258,82.69c0,0-4.18-4.21-9.41-4.99c-5.51-0.83-9.7,1.73-9.7,1.73
					s1.77,7.96,9.79,7.94C253.12,87.35,258,82.69,258,82.69z"/>
				<path class="st1" d="M269,55.81c15.16,0,28.24,4.97,34.33,12.15c-9.93-3.52-21.7-5.57-34.33-5.57c-12.63,0-24.4,2.05-34.34,5.57
					C240.75,60.78,253.84,55.81,269,55.81z"/>
				<path class="st2" d="M269,217.12c5.21,0,9.44,4.35,9.44,9.72c0,5.38-4.23,9.73-9.44,9.73c-5.22,0-9.45-4.35-9.45-9.73
					C259.55,221.47,263.78,217.12,269,217.12z"/>
				<path class="st3" d="M370.61,208.04c1.49,4.49,1.52,10.66-0.48,14.64c-1.55,3.09-10.53,10.76-26.2,14.62l3.99-36.44
					c0.35-4.16-1.02-2.33-3.77-5.41c-2.74-3.07-6.65-4.85-10.71-4.85L269,196l-64.44-5.4c-4.07,0-7.97,1.77-10.72,4.85
					c-2.75,3.08-4.12,1.25-3.77,5.41l3.99,36.44c-15.67-3.86-24.65-11.53-26.21-14.62c-2-3.98-1.97-10.15-0.47-14.64l15.99-47.96
					c0.65-2.05,4.51-6.89,7.73-10.15c3.56-3.67,7.33-7.04,11.27-10.13c4.61,3.77,26.69,20.63,52.47,25.77
					c-11.16-12.51-26.18-23.81-35.09-51.67c0,0,12.4,15.42,15.7,19.25c8.61,10,21.39,20.79,33.55,20.79
					c12.15,0,24.94-10.79,33.54-20.79c3.3-3.83,15.7-19.25,15.7-19.25c-8.9,27.87-23.92,39.16-35.08,51.67
					c25.77-5.14,47.85-22,52.46-25.77c3.94,3.09,7.71,6.46,11.27,10.13c3.23,3.26,7.08,8.1,7.73,10.15L370.61,208.04z M269,12.35
					c-14.61,0-28.86,8.66-40.12,24.39c-10.1,14.1-16.26,31.83-17.28,49.35c11.53-11.71,32.93-19.62,57.41-19.68
					c24.48,0.06,45.88,7.96,57.4,19.68c-1.02-17.52-7.18-35.25-17.28-49.35C297.85,21.01,283.6,12.35,269,12.35z M269,62.39
					c-12.63,0-24.4,2.05-34.34,5.57c6.09-7.18,19.18-12.15,34.34-12.15c15.16,0,28.24,4.97,34.33,12.15
					C293.4,64.44,281.63,62.39,269,62.39z M269,89.65c-2.8,0-4.34,2.13-6.16,3.39c-11,7.65-24.94,6.52-29.35,8.72
					c5.92,17.63,19.59,35.35,35.51,35.35c15.91,0,29.58-17.72,35.5-35.35c-4.41-2.2-18.35-1.07-29.35-8.72
					C273.34,91.78,271.8,89.65,269,89.65z M279.99,82.69c0,0,4.89,4.66,9.31,4.68c8.04,0.02,9.79-7.94,9.79-7.94
					s-4.17-2.56-9.69-1.73C284.17,78.47,279.99,82.69,279.99,82.69z M238.9,79.43c0,0,1.77,7.96,9.79,7.94
					c4.42-0.02,9.31-4.68,9.31-4.68s-4.18-4.21-9.41-4.99C243.08,76.86,238.9,79.43,238.9,79.43z"/>
			</g>
		</g>
	</g>
	<linearGradient id="SVGID_2_" gradientUnits="userSpaceOnUse" x1="268.9982" y1="391.5" x2="268.9982" y2="259.5">
		<stop  offset="0" style="stop-color:#FFA600"/>
		<stop  offset="0.2332" style="stop-color:#FF9E00"/>
		<stop  offset="0.4597" style="stop-color:#FF9100"/>
	</linearGradient>
	<path class="st4" d="M367.19,368.89l-13.12-11.67v-80.56c0-9.46-7.7-17.16-17.16-17.16H201.08c-9.46,0-17.16,7.7-17.16,17.16v80.56
		l-13.12,11.67c-2.45,2.18-3.86,5.31-3.86,8.59v0.63c0,1.37,0.44,13.39,15.74,13.39h172.62c15.3,0,15.74-12.02,15.74-13.39v-0.63
		C371.05,374.2,369.65,371.07,367.19,368.89z"/>
	<g>
		<path class="st1" d="M511.23,276.35c0.16-13.42-0.03-27.51-0.03-28.75c0.01-7.22-1.62-26.19-1.96-33.41
			c0.08-0.67,0.14-1.35,0.14-2.05c0-1.42-0.12-4.21-1-14.1c-0.93-10.41-1.33-12.88-1.64-14.29c-1.81-8.66-9.13-14.25-18.65-14.26
			c-0.1,0-0.19,0-0.29,0c-4.55,0-11.13,0.11-20.1,0.35c-8.76,0.23-15.36,0.33-19.66,0.34c-4.36,0-11.05-0.13-19.89-0.38
			c-9.26-0.26-16.01-0.39-20.61-0.39c-0.01,0-0.01,0-0.02,0c-4.68,0-8.88,1.77-11.82,4.98c-2.87,3.12-4.25,7.25-3.91,11.63
			l0.08,1.06c0.31,6.28,0.55,11.55,0.74,15.79c-4.81-7.87-10.77-14.38-17.8-19.41c-10.03-7.2-23.57-11.71-40.28-13.42
			c-6.01-0.6-18.33-0.9-37.64-0.92c-10.42,0-17.85,0.25-22.72,0.79c-0.12,0.01-0.23,0.03-0.35,0.04
			c-8.41,1.16-14.29,7.58-14.3,15.63c0,1.92,0.02,4.12,0.05,6.57c-1.74-2.07-3.58-4.08-5.53-6.01
			c-15.7-15.47-36.23-23.89-57.77-23.74c-6.25,0.04-12.36,0.74-18.27,2.05c0.29-0.61,0.56-1.23,0.79-1.88
			c0.02-0.05,0.04-0.11,0.06-0.16c0.89-2.52,1.34-5.05,1.34-7.53c0-2.49-0.43-4.96-1.27-7.29c1.52-2.64,1.89-5.15,1.89-6.98
			c0-3.83-1.51-6.72-3.64-10.37c-1.98-3.39-5.67-9.7-13.75-9.7c-2.2,0-4.34,0.25-6.43,0.74c-1.61-3.83-2.73-7.65-8.11-10.3
			c-5.38-2.64-61.93-1-62.75-1c-7.83-0.01-13.97,6.1-13.97,13.92c0,2.24,0.06,5.43,0.2,9.75c0.13,3.99,0.19,6.97,0.19,8.88
			c0,1.55-0.09,5.38-0.52,14.81c-0.14,2.86-0.2,4.02-0.22,4.48c-0.04,0.41-0.06,0.83-0.06,1.25c0,1.12,0.14,2.21,0.38,3.26
			c-20.79,0.66-38.26,8.94-51.95,24.65C6.81,206.24,0.02,224.98,0,246.64c-0.02,22.4,6.92,41.35,20.61,56.3
			c14.32,15.76,33.12,23.76,55.86,23.79c22.53,0.02,40.94-8.26,54.71-24.62c0.06-0.07,0.11-0.13,0.16-0.2
			c0.83-1.03,1.56-2.06,2.18-3.08c1.46,1.67,3,3.3,4.61,4.87c15.54,15.19,35.82,23.53,57.17,23.55c0.28,0,0.57,0,0.85,0
			c25.8-0.24,48.41-11.59,63.41-29.55c-0.1,4.17-0.15,7.72-0.16,10.64c0,4.81,2.09,9.24,5.76,12.15c1.98,1.58,5.39,3.45,10.36,3.46
			c2.82,0,7.2,0.1,13.02,0.28c6.16,0.19,10.68,0.29,13.84,0.29c1.96,0,3.83,0,5.6,0c12.77,0,20.61-0.05,23.88-0.16
			c22.14-0.71,39.78-8.46,52.45-23.05c2.88-3.28,5.43-6.71,7.71-10.25c-0.3,6.91-0.45,12.56-0.46,16.87c0,4.79,1.89,9.1,5.33,12.13
			c2.08,1.84,5.71,4.03,11.15,4.03c5.24,0.02,72.1,0.64,78.81,1.09c1.8,0.25,3.13,0.36,4.3,0.37c0,0,0.01,0,0.01,0
			c5.93,0,11.18-2.92,14.41-8c0.09-0.14,0.17-0.27,0.25-0.41c1.65-2.82,2.94-6.74,4.63-18.38c1.53-10.26,1.71-14.25,1.71-16.35
			C512.13,280.23,511.83,278.21,511.23,276.35z"/>
		<radialGradient id="SVGID_3_" cx="195.9795" cy="244.8253" r="69.2701" gradientUnits="userSpaceOnUse">
			<stop  offset="0.2351" style="stop-color:#FF8B1E;stop-opacity:0"/>
			<stop  offset="0.6414" style="stop-color:#FF8F1E;stop-opacity:0.5753"/>
			<stop  offset="0.9414" style="stop-color:#FF971E"/>
		</radialGradient>
		<path class="st5" d="M196.36,175.68c-39.6,0.29-70.23,31.21-69.78,70.45c0.43,37.38,31.95,68.18,69.43,67.83
			c39.24-0.36,69.69-31.22,69.36-70.31C265.06,206.42,233.59,175.42,196.36,175.68z"/>
		<g>
			<defs>
				<path id="SVGID_4_" d="M511.23,276.35c0.16-13.42-0.03-27.51-0.03-28.75c0.01-7.22-1.62-26.19-1.96-33.41
					c0.08-0.67,0.14-1.35,0.14-2.05c0-1.42-0.12-4.21-1-14.1c-0.93-10.41-1.33-12.88-1.64-14.29c-1.81-8.66-9.13-14.25-18.65-14.26
					c-0.1,0-0.19,0-0.29,0c-4.55,0-11.13,0.11-20.1,0.35c-8.76,0.23-15.36,0.33-19.66,0.34c-4.36,0-11.05-0.13-19.89-0.38
					c-9.26-0.26-16.01-0.39-20.61-0.39c-0.01,0-0.01,0-0.02,0c-4.68,0-8.88,1.77-11.82,4.98c-2.87,3.12-4.25,7.25-3.91,11.63
					l0.08,1.06c0.31,6.28,0.55,11.55,0.74,15.79c-4.81-7.87-10.77-14.38-17.8-19.41c-10.03-7.2-23.57-11.71-40.28-13.42
					c-6.01-0.6-18.33-0.9-37.64-0.92c-10.42,0-17.85,0.25-22.72,0.79c-0.12,0.01-0.23,0.03-0.35,0.04
					c-8.41,1.16-14.29,7.58-14.3,15.63c0,1.92,0.02,4.12,0.05,6.57c-1.74-2.07-3.58-4.08-5.53-6.01
					c-15.7-15.47-36.23-23.89-57.77-23.74c-6.25,0.04-12.36,0.74-18.27,2.05c0.29-0.61,0.56-1.23,0.79-1.88
					c0.02-0.05,0.04-0.11,0.06-0.16c0.89-2.52,1.34-5.05,1.34-7.53c0-2.49-0.43-4.96-1.27-7.29c1.52-2.64,1.89-5.15,1.89-6.98
					c0-3.83-1.51-6.72-3.64-10.37c-1.98-3.39-5.67-9.7-13.75-9.7c-2.2,0-4.34,0.25-6.43,0.74c-1.61-3.83-2.73-7.65-8.11-10.3
					c-5.38-2.64-61.93-1-62.75-1c-7.83-0.01-13.97,6.1-13.97,13.92c0,2.24,0.06,5.43,0.2,9.75c0.13,3.99,0.19,6.97,0.19,8.88
					c0,1.55-0.09,5.38-0.52,14.81c-0.14,2.86-0.2,4.02-0.22,4.48c-0.04,0.41-0.06,0.83-0.06,1.25c0,1.12,0.14,2.21,0.38,3.26
					c-20.79,0.66-38.26,8.94-51.95,24.65C6.81,206.24,0.02,224.98,0,246.64c-0.02,22.4,6.92,41.35,20.61,56.3
					c14.32,15.76,33.12,23.76,55.86,23.79c22.53,0.02,40.94-8.26,54.71-24.62c0.06-0.07,0.11-0.13,0.16-0.2
					c0.83-1.03,1.56-2.06,2.18-3.08c1.46,1.67,3,3.3,4.61,4.87c15.54,15.19,35.82,23.53,57.17,23.55c0.28,0,0.57,0,0.85,0
					c25.8-0.24,48.41-11.59,63.41-29.55c-0.1,4.17-0.15,7.72-0.16,10.64c0,4.81,2.09,9.24,5.76,12.15
					c1.98,1.58,5.39,3.45,10.36,3.46c2.82,0,7.2,0.1,13.02,0.28c6.16,0.19,10.68,0.29,13.84,0.29c1.96,0,3.83,0,5.6,0
					c12.77,0,20.61-0.05,23.88-0.16c22.14-0.71,39.78-8.46,52.45-23.05c2.88-3.28,5.43-6.71,7.71-10.25
					c-0.3,6.91-0.45,12.56-0.46,16.87c0,4.79,1.89,9.1,5.33,12.13c2.08,1.84,5.71,4.03,11.15,4.03c5.24,0.02,72.1,0.64,78.81,1.09
					c1.8,0.25,3.13,0.36,4.3,0.37c0,0,0.01,0,0.01,0c5.93,0,11.18-2.92,14.41-8c0.09-0.14,0.17-0.27,0.25-0.41
					c1.65-2.82,2.94-6.74,4.63-18.38c1.53-10.26,1.71-14.25,1.71-16.35C512.13,280.23,511.83,278.21,511.23,276.35z"/>
			</defs>
			<clipPath id="SVGID_5_">
				<use xlink:href="#SVGID_4_"  style="overflow:visible;"/>
			</clipPath>
			<linearGradient id="SVGID_6_" gradientUnits="userSpaceOnUse" x1="108.4974" y1="119.2652" x2="178.9083" y2="203.1777">
				<stop  offset="0.0885" style="stop-color:#FF9318"/>
				<stop  offset="0.7194" style="stop-color:#FF9318;stop-opacity:0"/>
			</linearGradient>
			<polygon class="st6" points="97.33,163.14 93.36,154.21 97.58,128.42 112.08,139.4 119.4,129.53 131.01,130.08 140.57,137.11 
				140.14,121.26 202.13,179.55 207.06,179.55 170.64,181.1 142.6,205.34 			"/>
			<linearGradient id="SVGID_7_" gradientUnits="userSpaceOnUse" x1="240.1648" y1="233.3864" x2="291.9227" y2="295.069">
				<stop  offset="0" style="stop-color:#FF9318"/>
				<stop  offset="0.6733" style="stop-color:#FF9318;stop-opacity:0"/>
			</linearGradient>
			<polygon class="st7" points="259.55,217.12 294.73,250.02 300.16,252.83 272.89,311.04 259.39,308.35 257.21,266.55 
				263.46,244.83 258.62,220.6 			"/>
			<linearGradient id="SVGID_8_" gradientUnits="userSpaceOnUse" x1="44.689" y1="210.9078" x2="170.4421" y2="360.7745">
				<stop  offset="0" style="stop-color:#FF9318"/>
				<stop  offset="0.5518" style="stop-color:#FF9318;stop-opacity:0"/>
			</linearGradient>
			<polygon class="st8" points="110.47,197.84 64.25,195.15 46.13,209.7 30.3,246.82 32.34,273.28 34.43,298.01 76.51,337.11 
				201.08,335.06 216.45,316.28 190.47,309.79 170.92,305.47 154.12,295.49 139.43,278.38 129.4,254.78 128.59,230.1 109.85,212.98 
							"/>
			<linearGradient id="SVGID_9_" gradientUnits="userSpaceOnUse" x1="361.5196" y1="237.1009" x2="476.141" y2="373.7014">
				<stop  offset="0" style="stop-color:#FF9318"/>
				<stop  offset="0.4932" style="stop-color:#FF9318;stop-opacity:0"/>
			</linearGradient>
			<polygon class="st9" points="385.02,217.38 422.55,251.65 440.25,287.02 479.74,292 531.49,327.26 368.42,339.74 339.94,323.78 
				342.84,297.53 371.05,244.18 			"/>
			<linearGradient id="SVGID_10_" gradientUnits="userSpaceOnUse" x1="420.0136" y1="221.665" x2="546.0544" y2="371.8747">
				<stop  offset="0" style="stop-color:#FF9318"/>
				<stop  offset="0.4723" style="stop-color:#FF9318;stop-opacity:0"/>
			</linearGradient>
			<polygon class="st10" points="491.55,210.47 527.4,244.83 515.49,339.74 528.76,386.38 406.48,310.35 435.49,208.68 			"/>
		</g>
		<g>
			<path class="st2" d="M215.02,199.93c-0.72,1.97-1.35,3.75-2.01,5.53c-4.43,11.82-8.81,23.65-13.34,35.43
				c-0.76,1.98-0.45,3.04,1.31,4.2c5.93,3.95,11.7,8.16,17.67,12.04c2.01,1.31,1.28,2.22,0.38,3.61c-0.96,1.46-1.68,2.27-3.56,0.95
				c-7.23-5.09-14.58-10.01-21.89-14.98c-0.68-0.46-1.33-0.75-0.8-1.88c4.81-10.3,8.15-21.18,12.32-31.73
				c1.82-4.61,3.49-9.28,5.21-13.93c0.34-0.92,0.67-1.75,1.88-1.09C213.19,198.62,214.74,198.44,215.02,199.93z"/>
			<g>
				<path class="st2" d="M97.01,142.54c0,2.28,0.05,5.72,0.16,10.3c0.11,4.58,0.17,8.02,0.16,10.3c0,0.39-0.09,0.63-0.26,0.72
					c-0.04,0.02-0.29,0.06-0.75,0.12c-1.26,0.15-2.94,0.23-5.05,0.23c-2.82,0-4.62-0.08-5.4-0.24c-0.56-0.12-0.84-0.42-0.84-0.9
					c0,0.31,0.09-1.39,0.27-5.11c0.36-7.83,0.54-12.98,0.54-15.43c0-2.07-0.06-5.17-0.19-9.31c-0.13-4.14-0.2-7.24-0.19-9.31
					c0-0.43,0.22-0.64,0.67-0.64c0.6,0,1.5,0.03,2.71,0.09c1.21,0.06,2.11,0.09,2.71,0.09c0.6,0,1.48-0.03,2.65-0.08
					c1.17-0.06,2.06-0.09,2.65-0.08c0.56,0,0.84,0.21,0.84,0.64c0,2.07-0.12,5.17-0.34,9.31C97.12,137.36,97.01,140.47,97.01,142.54
					z"/>
				<path class="st2" d="M131.2,132.19c0,0.39-0.21,0.58-0.64,0.58c-0.74,0-3.65-0.15-8.73-0.44c-0.12,4.89-0.18,8.31-0.18,10.24
					c0,2.28,0.09,5.72,0.26,10.3c0.18,4.58,0.27,8.02,0.26,10.3c0,0.37-0.09,0.6-0.26,0.7c-0.06,0.04-0.33,0.09-0.81,0.14
					c-1.16,0.15-2.86,0.23-5.11,0.23c-2.49,0-4.25-0.08-5.25-0.24c-0.54-0.1-0.81-0.4-0.81-0.9c0-2.28,0.1-5.71,0.3-10.27
					c0.2-4.56,0.3-7.99,0.3-10.27c0-1.51-0.07-4.87-0.22-10.1c-3.87,0.38-6.95,0.57-9.26,0.57c-0.31,0-0.46-0.1-0.46-0.29
					c0-0.25,0.14-1,0.41-2.23c0.31-1.35,0.49-2.18,0.52-2.47c0.06-0.91,0.13-1.82,0.21-2.73c0.14-1.45,0.37-2.18,0.7-2.18
					c0.04,0,0.17,0.01,0.41,0.03c3.13,0.41,7.77,0.62,13.9,0.62c1.74,0,4.95-0.18,9.63-0.54c2.51-0.19,3.78-0.29,3.8-0.29
					c0.39,0,0.61,0.03,0.67,0.07c0.06,0.05,0.1,0.24,0.12,0.57c0,0.52-0.02,1.25-0.06,2.18c-0.04,1.03-0.06,1.75-0.06,2.18
					c0,0.48,0.06,1.19,0.19,2.13C131.14,131.02,131.2,131.72,131.2,132.19z"/>
				<path class="st2" d="M145.53,130.46c0,2.19-0.61,4.53-1.84,7.02c-1.12,2.3-2.54,4.27-4.24,5.91c-0.39,0.39-0.7,0.58-0.93,0.58
					c-0.19,0-0.4-0.14-0.61-0.41c-0.12-0.14-0.72-0.67-1.8-1.6c-0.97-0.83-1.45-1.3-1.45-1.39c0,0.19,0.49-0.47,1.48-1.99
					c0.99-1.52,1.48-3.1,1.48-4.74c0-1.26-0.72-2.64-2.16-4.14c-1.44-1.5-2.16-2.29-2.16-2.37c0-0.31,0.48-0.85,1.45-1.62
					c0.64-0.48,1.28-0.97,1.92-1.45c0.6-0.56,1.19-1.11,1.77-1.65c0.99-0.91,1.55-1.36,1.68-1.36c0.19,0,0.47,0.14,0.84,0.41
					C144.02,124.05,145.53,126.98,145.53,130.46z"/>
				<path class="st2" d="M167.51,140.58c0,0.19-0.15,0.45-0.44,0.78c-0.54-0.14-1.08-0.2-1.62-0.2c-1.14,0-2.1,0.25-2.87,0.75
					c-0.93,0.58-1.39,1.4-1.39,2.46c0,0.68,0.49,1.54,1.48,2.58c1.49,1.57,2.41,2.62,2.75,3.16c0.99,1.47,1.48,3.05,1.47,4.73
					c0,0.99-0.2,2.03-0.58,3.13c-0.45,1.22-1.01,2.11-1.69,2.67c-1.43,1.24-3.11,2.28-5.02,3.13c-2.07,0.89-3.98,1.33-5.72,1.33
					c-0.39,0-1.25-1.05-2.59-3.15c-1.34-2.1-2.01-3.38-2.01-3.85c0-0.17,0.11-0.28,0.32-0.32c1.35-0.25,2.72-0.5,4.09-0.75
					c1.7-0.54,2.55-1.43,2.56-2.67c0-0.85-0.49-1.84-1.48-2.96c-1.76-1.95-2.68-2.99-2.75-3.11c-0.98-1.39-1.48-2.86-1.47-4.41
					c0-2.9,1.48-5.37,4.42-7.39c2.63-1.8,5.45-2.69,8.45-2.69c0.31,0,1.07,1.04,2.29,3.12
					C166.91,139.02,167.51,140.23,167.51,140.58z"/>
			</g>
			<g>
				<path class="st2" d="M196.01,313.96c-37.48,0.35-69-30.45-69.43-67.83c-0.45-39.24,30.18-70.17,69.78-70.45
					c37.22-0.27,68.7,30.74,69.01,67.97C265.7,282.74,235.26,313.6,196.01,313.96z M144.96,242.44c3.25,0,6.52,0.15,9.76-0.04
					c2.24-0.13,2.25,1.04,2.19,2.64c-0.06,1.53,0.31,2.97-2.21,2.89c-6.14-0.19-12.3,0.05-18.44-0.13
					c-2.59-0.08-3.54,0.58-3.22,3.29c0.87,7.33,2.81,14.32,5.94,21.01c0.76,1.62,1.56,1.6,2.92,0.76c2.3-1.43,4.73-2.65,7.03-4.08
					c1.85-1.14,2.08,0.45,2.73,1.42c0.7,1.06,1.19,1.92-0.46,2.74c-2.42,1.2-4.67,2.75-7.07,4.01c-1.52,0.8-1.58,1.58-0.65,2.94
					c4.64,6.8,10.37,12.48,17.15,17.16c1.45,1,2.15,0.65,2.91-0.76c1.28-2.39,2.79-4.65,4.03-7.06c1.03-1.99,2.04-0.68,3.04-0.15
					c0.97,0.52,2.26,0.82,1.12,2.51c-1.55,2.32-2.79,4.86-4.25,7.24c-0.73,1.19-0.67,1.92,0.66,2.55
					c7.17,3.39,14.65,5.58,22.59,6.19c1.92,0.15,2.54-0.49,2.52-2.39c-0.07-6.33,0.06-8.66-0.05-14.98
					c-0.04-2.13,0.81-2.56,2.72-2.54c1.85,0.02,2.82,0.3,2.77,2.5c-0.13,6.24,0.01,8.48-0.1,14.71c-0.04,2.08,0.49,2.92,2.75,2.72
					c7.83-0.68,15.24-2.78,22.34-6.12c1.43-0.67,1.58-1.4,0.75-2.72c-1.31-2.06-2.34-4.29-3.68-6.32c-1.04-1.57-0.56-2.34,0.9-3.15
					c1.36-0.76,2.31-1.16,3.2,0.68c1.1,2.27,2.55,4.37,3.75,6.59c0.67,1.25,1.35,1.43,2.54,0.63c6.89-4.67,12.68-10.43,17.37-17.3
					c0.94-1.38,0.44-2.02-0.79-2.7c-2.22-1.21-4.33-2.65-6.6-3.75c-1.82-0.88-1.68-1.73-0.82-3.31c0.98-1.79,1.81-1.73,3.33-0.73
					c2.11,1.39,4.4,2.49,6.55,3.83c1.18,0.73,1.92,0.7,2.56-0.63c3.39-7.07,5.56-14.47,6.21-22.31c0.15-1.83-0.53-2.34-2.28-2.32
					c-6.42,0.07-12.84-0.1-19.25,0.07c-2.33,0.06-2.39-1.01-2.36-2.76c0.03-1.67-0.05-2.86,2.34-2.79
					c6.5,0.18,13.02,0.02,19.53,0.11c1.69,0.02,2.18-0.52,2.08-2.18c-0.45-8.05-2.66-15.62-6.03-22.9
					c-0.76-1.65-1.59-1.55-2.92-0.72c-2.3,1.43-4.73,2.65-7.03,4.08c-1.84,1.15-2.09-0.44-2.73-1.41c-0.7-1.04-1.22-1.92,0.43-2.75
					c2.5-1.26,4.84-2.81,7.3-4.14c1.25-0.68,1.43-1.36,0.63-2.55c-4.65-6.91-10.41-12.69-17.29-17.38c-1.18-0.8-1.85-0.67-2.53,0.6
					c-1.24,2.3-2.74,4.47-3.91,6.81c-0.82,1.65-1.61,1.71-3.1,0.83c-1.53-0.9-2.12-1.64-0.97-3.33c1.41-2.09,2.51-4.39,3.85-6.53
					c0.81-1.3,0.65-2.04-0.78-2.72c-7.08-3.37-14.48-5.5-22.31-6.21c-2.37-0.21-2.92,0.66-2.88,2.86
					c0.11,6.06-0.05,12.11,0.06,18.17c0.04,2.08-0.52,2.84-2.73,2.82c-2.15-0.02-2.8-0.66-2.76-2.8c0.13-6.15,0-12.3,0.09-18.44
					c0.03-1.91-0.39-2.8-2.56-2.63c-7.84,0.62-15.25,2.72-22.35,6.06c-1.27,0.6-1.54,1.26-0.76,2.51c1.38,2.22,2.49,4.63,3.96,6.78
					c1.17,1.71,0.54,2.32-0.96,3.24c-1.68,1.03-2.45,0.69-3.28-0.97c-1.13-2.26-2.55-4.37-3.74-6.6c-0.72-1.34-1.44-1.56-2.75-0.68
					c-6.74,4.56-12.44,10.15-17.1,16.83c-1.03,1.48-0.63,2.15,0.79,2.9c2.31,1.22,4.49,2.71,6.83,3.88c1.78,0.88,1.19,1.84,0.5,3
					c-0.68,1.14-1.19,2.24-2.87,1.14c-2.35-1.52-4.85-2.8-7.24-4.25c-1.09-0.66-1.76-0.57-2.34,0.62
					c-3.72,7.63-6.12,15.61-6.52,24.14c-0.07,1.57,0.67,1.78,1.94,1.76C138.27,242.4,141.62,242.43,144.96,242.44z"/>
				<g>
					<path class="st2" d="M108.38,267.24c-0.61-0.67-1.21-1-1.82-1c-0.3,0-1.79,1.15-4.46,3.45c-3.22,2.73-6.38,4.85-9.47,6.36
						c-4.74,2.3-9.74,3.45-15.02,3.44c-8.92-0.01-16.05-3.41-21.38-10.22c-4.91-6.25-7.36-13.99-7.35-23.22
						c0.01-9.1,2.47-16.74,7.4-22.93c5.35-6.67,12.48-10,21.4-9.99c5.16,0.01,10.13,1.23,14.92,3.66c3.15,1.64,6.37,3.92,9.64,6.84
						c2.73,2.43,4.24,3.65,4.55,3.65c0.73,0,1.33-0.24,1.82-0.73c1.09-0.91,3.75-5.06,7.98-12.46c4.22-7.4,6.34-11.67,6.34-12.83
						c0-1.03-0.6-2.21-1.82-3.55c-11.15-12.09-26.56-18.14-46.22-18.16c-18.08-0.02-32.99,6.7-44.71,20.16
						c-11.24,12.85-16.87,28.5-16.89,46.95c-0.02,19.05,5.7,34.83,17.15,47.35c11.76,12.94,27.1,19.41,46.03,19.43
						c18.51,0.02,33.35-6.61,44.53-19.88c1.28-1.58,1.91-2.85,1.92-3.82c0-0.67-2.21-4.37-6.63-11.11
						C111.98,272.12,109.35,268.33,108.38,267.24z"/>
					<path class="st2" d="M374.11,292.45c11.48-13.09,17.23-28.56,17.25-46.4c0.01-9.83-2.1-19.39-6.34-28.68
						c-4.42-9.83-10.45-17.49-18.09-22.95c-8.13-5.83-19.38-9.49-33.75-10.96c-5.52-0.55-17.63-0.84-36.31-0.86
						c-9.83-0.01-16.9,0.23-21.21,0.71c-1.76,0.24-2.64,1-2.64,2.27c-0.01,6.92,0.24,17.34,0.74,31.26
						c0.5,13.93,0.75,24.38,0.74,31.36c-0.01,6.68-0.28,16.7-0.81,30.08c-0.53,13.38-0.8,23.41-0.81,30.08c0,1.4,0.88,2.09,2.64,2.1
						c2.97,0,7.45,0.1,13.42,0.29c5.98,0.19,10.45,0.28,13.42,0.29c15.84,0.02,25.51-0.03,29.03-0.15
						C349.73,310.3,363.97,304.15,374.11,292.45z M348.01,272.13c-6.01,6.97-14.27,10.45-24.77,10.44
						c-9.71-0.01-14.56-1.32-14.56-3.93c0-3.58-0.05-8.9-0.17-15.97c-0.11-7.07-0.17-12.36-0.17-15.88c0-3.58,0.07-8.97,0.2-16.15
						c0.13-7.19,0.2-12.57,0.2-16.15c0-2.49,4.68-3.73,14.02-3.72c10.19,0.01,18.38,3.39,24.56,10.13
						c6.12,6.5,9.18,14.88,9.17,25.13C356.5,256.82,353.67,265.52,348.01,272.13z"/>
					<path class="st2" d="M493.21,231.31c0,0.07,0.01,0.13,0.01,0.2C493.23,231.39,493.22,231.32,493.21,231.31z"/>
					<path class="st2" d="M496.63,279.11c-3.16,0-7.9,0.28-14.24,0.85c-6.34,0.57-11.12,0.85-14.34,0.85
						c-8.98-0.01-13.41-0.01-13.29-0.01c-6.73-0.43-10.62-1.8-11.65-4.11c-0.61-1.33-0.91-4.31-0.9-8.92c0-3.46,0.04-5.34,0.1-5.64
						c0.43-1.21,1.88-1.82,4.37-1.82l9.65,0.01c12.32,0.01,20.2,0.2,23.66,0.57l8.19,0.92c1.76,0,2.64-0.6,2.64-1.82
						c0.01-4.85,0.25-9.71,0.74-14.56c1-9.58,1.55-14.29,1.64-14.12c-0.07-1.26-0.79-1.89-2.17-1.9c-1.21,0-2.85,0.12-4.92,0.36
						c-2.67,0.24-4.34,0.39-5.01,0.45c-7.83,0.42-15.56,0.62-23.21,0.61c-1.15,0-2.61,0.04-4.37,0.13
						c-1.76,0.09-2.94,0.13-3.55,0.13c-2.91,0-4.88-0.58-5.91-1.74c-1.21-1.33-1.82-4.07-1.81-8.19c0-3.94,0.16-6.28,0.46-7.01
						c0.73-1.52,2.7-2.27,5.92-2.27c12.86,0.01,27.36,0.7,43.5,2.05c0.91,0.06,1.55,0.09,1.91,0.09c1.21,0,1.82-0.64,1.82-1.91
						c0-1.52-0.31-5.81-0.94-12.88c-0.63-7.07-1.1-11.3-1.4-12.7c-0.48-2.37-2.3-3.55-5.46-3.56c-4.43,0-11.1,0.11-20.02,0.34
						c-8.92,0.23-15.59,0.35-20.02,0.34c-4.49,0-11.24-0.13-20.25-0.39c-9.01-0.25-15.76-0.38-20.25-0.39c-1.64,0-2.4,0.7-2.28,2.09
						l0.09,1.27c0.47,9.65,0.8,16.9,0.98,21.75c0.71,18.87,1.06,31.77,1.05,38.68c-0.01,6.8-0.4,17.01-1.17,30.63
						c-0.77,13.62-1.16,23.83-1.17,30.62c0,1.76,1,2.64,3,2.64c1.4,0,76.42,0.63,80.36,1.18c1.27,0.18,2.18,0.28,2.73,0.28
						c1.27,0,2.28-0.58,3.01-1.73c0.85-1.46,1.83-5.97,2.93-13.56c1.04-6.98,1.56-11.77,1.56-14.38
						C498.64,280.21,497.97,279.11,496.63,279.11z"/>
				</g>
			</g>
		</g>
		<g>
			<g>
				<path class="st11" d="M97.01,142.54c0,2.28,0.05,5.72,0.16,10.3c0.11,4.58,0.17,8.02,0.16,10.3c0,0.39-0.09,0.63-0.26,0.72
					c-0.04,0.02-0.29,0.06-0.75,0.12c-1.26,0.15-2.94,0.23-5.05,0.23c-2.82,0-4.62-0.08-5.4-0.24c-0.56-0.12-0.84-0.42-0.84-0.9
					c0,0.31,0.09-1.39,0.27-5.11c0.36-7.83,0.54-12.98,0.54-15.43c0-2.07-0.06-5.17-0.19-9.31c-0.13-4.14-0.2-7.24-0.19-9.31
					c0-0.43,0.22-0.64,0.67-0.64c0.6,0,1.5,0.03,2.71,0.09c1.21,0.06,2.11,0.09,2.71,0.09c0.6,0,1.48-0.03,2.65-0.08
					c1.17-0.06,2.06-0.09,2.65-0.08c0.56,0,0.84,0.21,0.84,0.64c0,2.07-0.12,5.17-0.34,9.31C97.12,137.36,97.01,140.47,97.01,142.54
					z"/>
				<path class="st11" d="M131.2,132.19c0,0.39-0.21,0.58-0.64,0.58c-0.74,0-3.65-0.15-8.73-0.44c-0.12,4.89-0.18,8.31-0.18,10.24
					c0,2.28,0.09,5.72,0.26,10.3c0.18,4.58,0.27,8.02,0.26,10.3c0,0.37-0.09,0.6-0.26,0.7c-0.06,0.04-0.33,0.09-0.81,0.14
					c-1.16,0.15-2.86,0.23-5.11,0.23c-2.49,0-4.25-0.08-5.25-0.24c-0.54-0.1-0.81-0.4-0.81-0.9c0-2.28,0.1-5.71,0.3-10.27
					c0.2-4.56,0.3-7.99,0.3-10.27c0-1.51-0.07-4.87-0.22-10.1c-3.87,0.38-6.95,0.57-9.26,0.57c-0.31,0-0.46-0.1-0.46-0.29
					c0-0.25,0.14-1,0.41-2.23c0.31-1.35,0.49-2.18,0.52-2.47c0.06-0.91,0.13-1.82,0.21-2.73c0.14-1.45,0.37-2.18,0.7-2.18
					c0.04,0,0.17,0.01,0.41,0.03c3.13,0.41,7.77,0.62,13.9,0.62c1.74,0,4.95-0.18,9.63-0.54c2.51-0.19,3.78-0.29,3.8-0.29
					c0.39,0,0.61,0.03,0.67,0.07c0.06,0.05,0.1,0.24,0.12,0.57c0,0.52-0.02,1.25-0.06,2.18c-0.04,1.03-0.06,1.75-0.06,2.18
					c0,0.48,0.06,1.19,0.19,2.13C131.14,131.02,131.2,131.72,131.2,132.19z"/>
				<path class="st11" d="M145.53,130.46c0,2.19-0.61,4.53-1.84,7.02c-1.12,2.3-2.54,4.27-4.24,5.91c-0.39,0.39-0.7,0.58-0.93,0.58
					c-0.19,0-0.4-0.14-0.61-0.41c-0.12-0.14-0.72-0.67-1.8-1.6c-0.97-0.83-1.45-1.3-1.45-1.39c0,0.19,0.49-0.47,1.48-1.99
					c0.99-1.52,1.48-3.1,1.48-4.74c0-1.26-0.72-2.64-2.16-4.14c-1.44-1.5-2.16-2.29-2.16-2.37c0-0.31,0.48-0.85,1.45-1.62
					c0.64-0.48,1.28-0.97,1.92-1.45c0.6-0.56,1.19-1.11,1.77-1.65c0.99-0.91,1.55-1.36,1.68-1.36c0.19,0,0.47,0.14,0.84,0.41
					C144.02,124.05,145.53,126.98,145.53,130.46z"/>
				<path class="st11" d="M167.51,140.58c0,0.19-0.15,0.45-0.44,0.78c-0.54-0.14-1.08-0.2-1.62-0.2c-1.14,0-2.1,0.25-2.87,0.75
					c-0.93,0.58-1.39,1.4-1.39,2.46c0,0.68,0.49,1.54,1.48,2.58c1.49,1.57,2.41,2.62,2.75,3.16c0.99,1.47,1.48,3.05,1.47,4.73
					c0,0.99-0.2,2.03-0.58,3.13c-0.45,1.22-1.01,2.11-1.69,2.67c-1.43,1.24-3.11,2.28-5.02,3.13c-2.07,0.89-3.98,1.33-5.72,1.33
					c-0.39,0-1.25-1.05-2.59-3.15c-1.34-2.1-2.01-3.38-2.01-3.85c0-0.17,0.11-0.28,0.32-0.32c1.35-0.25,2.72-0.5,4.09-0.75
					c1.7-0.54,2.55-1.43,2.56-2.67c0-0.85-0.49-1.84-1.48-2.96c-1.76-1.95-2.68-2.99-2.75-3.11c-0.98-1.39-1.48-2.86-1.47-4.41
					c0-2.9,1.48-5.37,4.42-7.39c2.63-1.8,5.45-2.69,8.45-2.69c0.31,0,1.07,1.04,2.29,3.12
					C166.91,139.02,167.51,140.23,167.51,140.58z"/>
			</g>
			<g>
				<path class="st12" d="M196.01,313.96c-37.48,0.35-69-30.45-69.43-67.83c-0.45-39.24,30.18-70.17,69.78-70.45
					c37.22-0.27,68.7,30.74,69.01,67.97C265.7,282.74,235.26,313.6,196.01,313.96z"/>
				<g>
					<path class="st12" d="M108.38,267.24c-0.61-0.67-1.21-1-1.82-1c-0.3,0-1.79,1.15-4.46,3.45c-3.22,2.73-6.38,4.85-9.47,6.36
						c-4.74,2.3-9.74,3.45-15.02,3.44c-8.92-0.01-16.05-3.41-21.38-10.22c-4.91-6.25-7.36-13.99-7.35-23.22
						c0.01-9.1,2.47-16.74,7.4-22.93c5.35-6.67,12.48-10,21.4-9.99c5.16,0.01,10.13,1.23,14.92,3.66c3.15,1.64,6.37,3.92,9.64,6.84
						c2.73,2.43,4.24,3.65,4.55,3.65c0.73,0,1.33-0.24,1.82-0.73c1.09-0.91,3.75-5.06,7.98-12.46c4.22-7.4,6.34-11.67,6.34-12.83
						c0-1.03-0.6-2.21-1.82-3.55c-11.15-12.09-26.56-18.14-46.22-18.16c-18.08-0.02-32.99,6.7-44.71,20.16
						c-11.24,12.85-16.87,28.5-16.89,46.95c-0.02,19.05,5.7,34.83,17.15,47.35c11.76,12.94,27.1,19.41,46.03,19.43
						c18.51,0.02,33.35-6.61,44.53-19.88c1.28-1.58,1.91-2.85,1.92-3.82c0-0.67-2.21-4.37-6.63-11.11
						C111.98,272.12,109.35,268.33,108.38,267.24z"/>
					<path class="st12" d="M374.11,292.45c11.48-13.09,17.23-28.56,17.25-46.4c0.01-9.83-2.1-19.39-6.34-28.68
						c-4.42-9.83-10.45-17.49-18.09-22.95c-8.13-5.83-19.38-9.49-33.75-10.96c-5.52-0.55-17.63-0.84-36.31-0.86
						c-9.83-0.01-16.9,0.23-21.21,0.71c-1.76,0.24-2.64,1-2.64,2.27c-0.01,6.92,0.24,17.34,0.74,31.26
						c0.5,13.93,0.75,24.38,0.74,31.36c-0.01,6.68-0.28,16.7-0.81,30.08c-0.53,13.38-0.8,23.41-0.81,30.08c0,1.4,0.88,2.09,2.64,2.1
						c2.97,0,7.45,0.1,13.42,0.29c5.98,0.19,10.45,0.28,13.42,0.29c15.84,0.02,25.51-0.03,29.03-0.15
						C349.73,310.3,363.97,304.15,374.11,292.45z M348.01,272.13c-6.01,6.97-14.27,10.45-24.77,10.44
						c-9.71-0.01-14.56-1.32-14.56-3.93c0-3.58-0.05-8.9-0.17-15.97c-0.11-7.07-0.17-12.36-0.17-15.88c0-3.58,0.07-8.97,0.2-16.15
						c0.13-7.19,0.2-12.57,0.2-16.15c0-2.49,4.68-3.73,14.02-3.72c10.19,0.01,18.38,3.39,24.56,10.13
						c6.12,6.5,9.18,14.88,9.17,25.13C356.5,256.82,353.67,265.52,348.01,272.13z"/>
					<path class="st12" d="M493.21,231.31c0,0.07,0.01,0.13,0.01,0.2C493.23,231.39,493.22,231.32,493.21,231.31z"/>
					<path class="st12" d="M496.63,279.11c-3.16,0-7.9,0.28-14.24,0.85c-6.34,0.57-11.12,0.85-14.34,0.85
						c-8.98-0.01-13.41-0.01-13.29-0.01c-6.73-0.43-10.62-1.8-11.65-4.11c-0.61-1.33-0.91-4.31-0.9-8.92c0-3.46,0.04-5.34,0.1-5.64
						c0.43-1.21,1.88-1.82,4.37-1.82l9.65,0.01c12.32,0.01,20.2,0.2,23.66,0.57l8.19,0.92c1.76,0,2.64-0.6,2.64-1.82
						c0.01-4.85,0.25-9.71,0.74-14.56c1-9.58,1.55-14.29,1.64-14.12c-0.07-1.26-0.79-1.89-2.17-1.9c-1.21,0-2.85,0.12-4.92,0.36
						c-2.67,0.24-4.34,0.39-5.01,0.45c-7.83,0.42-15.56,0.62-23.21,0.61c-1.15,0-2.61,0.04-4.37,0.13
						c-1.76,0.09-2.94,0.13-3.55,0.13c-2.91,0-4.88-0.58-5.91-1.74c-1.21-1.33-1.82-4.07-1.81-8.19c0-3.94,0.16-6.28,0.46-7.01
						c0.73-1.52,2.7-2.27,5.92-2.27c12.86,0.01,27.36,0.7,43.5,2.05c0.91,0.06,1.55,0.09,1.91,0.09c1.21,0,1.82-0.64,1.82-1.91
						c0-1.52-0.31-5.81-0.94-12.88c-0.63-7.07-1.1-11.3-1.4-12.7c-0.48-2.37-2.3-3.55-5.46-3.56c-4.43,0-11.1,0.11-20.02,0.34
						c-8.92,0.23-15.59,0.35-20.02,0.34c-4.49,0-11.24-0.13-20.25-0.39c-9.01-0.25-15.76-0.38-20.25-0.39c-1.64,0-2.4,0.7-2.28,2.09
						l0.09,1.27c0.47,9.65,0.8,16.9,0.98,21.75c0.71,18.87,1.06,31.77,1.05,38.68c-0.01,6.8-0.4,17.01-1.17,30.63
						c-0.77,13.62-1.16,23.83-1.17,30.62c0,1.76,1,2.64,3,2.64c1.4,0,76.42,0.63,80.36,1.18c1.27,0.18,2.18,0.28,2.73,0.28
						c1.27,0,2.28-0.58,3.01-1.73c0.85-1.46,1.83-5.97,2.93-13.56c1.04-6.98,1.56-11.77,1.56-14.38
						C498.64,280.21,497.97,279.11,496.63,279.11z"/>
				</g>
			</g>
		</g>
	</g>
	<linearGradient id="SVGID_11_" gradientUnits="userSpaceOnUse" x1="268.9985" y1="268.5" x2="268.9985" y2="382.5">
		<stop  offset="0" style="stop-color:#FFA600"/>
		<stop  offset="0.2332" style="stop-color:#FF9E00"/>
		<stop  offset="0.4597" style="stop-color:#FF9100"/>
	</linearGradient>
	<path class="st13" d="M361.21,375.62l-16.14-14.35v-84.6c0-4.5-3.66-8.16-8.16-8.16H201.08c-4.5,0-8.16,3.66-8.16,8.16v84.6
		l-16.14,14.35c-0.53,0.47-0.84,1.15-0.84,1.87v0.63c0,4.39,4.9,4.39,6.74,4.39h172.62c1.84,0,6.74,0,6.74-4.39v-0.63
		C362.05,376.77,361.75,376.09,361.21,375.62z"/>
	<g>
		<g id="XMLID_3_">
			<g>
				<linearGradient id="SVGID_12_" gradientUnits="userSpaceOnUse" x1="268.9985" y1="380" x2="268.9985" y2="362.3827">
					<stop  offset="0.1215" style="stop-color:#FFFFFF"/>
					<stop  offset="0.2196" style="stop-color:#FFF8EA"/>
					<stop  offset="0.4224" style="stop-color:#FFE5B4"/>
					<stop  offset="0.7112" style="stop-color:#FFC65D"/>
					<stop  offset="1" style="stop-color:#FFA600"/>
				</linearGradient>
				<path class="st14" d="M359.55,377.48v0.63c0,1.38-1.13,1.89-4.24,1.89H182.69c-3.11,0-4.24-0.5-4.24-1.89v-0.63l16.98-15.1
					h147.15L359.55,377.48z M347.55,371.82c0-0.08-0.07-0.16-0.18-0.21l-8.41-7.48c-0.12-0.11-0.36-0.17-0.63-0.17h-58.25H269
					h-11.08h-58.25c-0.27,0-0.51,0.07-0.63,0.17l-8.49,7.55c-0.11,0.1-0.1,0.21,0.03,0.31c0.13,0.09,0.36,0.15,0.6,0.15h155.64
					c0.01,0,0.02,0,0.03,0C347.23,372.14,347.55,371.99,347.55,371.82z M290.22,376.85c0.78,0,1.31-0.28,1.18-0.62l-0.95-2.53
					c-0.13-0.34-0.87-0.62-1.65-0.62h-39.62c-0.78,0-1.52,0.28-1.65,0.62l-0.95,2.53c-0.13,0.34,0.4,0.62,1.18,0.62H290.22z"/>
				<path class="st1" d="M347.37,371.61c0.11,0.06,0.18,0.13,0.18,0.21c0,0.17-0.32,0.31-0.71,0.31c-0.01,0-0.02,0-0.03,0H191.18
					c-0.25,0-0.47-0.06-0.6-0.15c-0.13-0.09-0.14-0.21-0.03-0.31l8.49-7.55c0.12-0.11,0.36-0.17,0.63-0.17h58.25H269h11.08h58.25
					c0.27,0,0.51,0.07,0.63,0.17L347.37,371.61z M345.67,371.51l-2.12-1.89h-9.35l1.77,1.89H345.67z M342.84,368.99l-2.12-1.89
					h-8.88l1.77,1.89H342.84z M340.01,366.47l-2.12-1.89h-8.41l1.77,1.89H340.01z M334.44,371.51l-1.77-1.89h-9.16l1.41,1.89H334.44
					z M332.08,368.99l-1.77-1.89h-8.69l1.41,1.89H332.08z M329.72,366.47l-1.77-1.89h-8.21l1.42,1.89H329.72z M323.43,371.51
					l-1.41-1.89h-9.2l1.06,1.89H323.43z M321.55,368.99l-1.42-1.89h-8.72l1.06,1.89H321.55z M319.66,366.47l-1.42-1.89h-8.25
					l1.06,1.89H319.66z M312.42,371.51l-1.06-1.89h-9.22l0.71,1.89H312.42z M311.01,368.99l-1.06-1.89h-8.75l0.71,1.89H311.01z
					 M309.59,366.47l-1.06-1.89h-8.28l0.71,1.89H309.59z M301.41,371.51l-0.71-1.89h-9.24l0.35,1.89H301.41z M300.47,368.99
					l-0.71-1.89h-8.77l0.35,1.89H300.47z M299.53,366.47l-0.71-1.89h-8.3l0.35,1.89H299.53z M290.4,371.51l-0.35-1.89h-9.96H269
					h-11.08h-9.96l-0.35,1.89H290.4z M289.92,368.99l-0.35-1.89h-8.78v1.89H289.92z M289.45,366.47l-0.35-1.89h-8.31v1.89H289.45z
					 M279.37,368.99v-1.89h-9.67v1.89H279.37z M279.37,366.47v-1.89h-9.67v1.89H279.37z M268.29,368.99v-1.89h-9.67v1.89H268.29z
					 M268.29,366.47v-1.89h-9.67v1.89H268.29z M257.21,368.99v-1.89h-8.78l-0.35,1.89H257.21z M257.21,366.47v-1.89h-8.31
					l-0.35,1.89H257.21z M247.12,366.47l0.35-1.89h-8.3l-0.71,1.89H247.12z M246.65,368.99l0.35-1.89h-8.77l-0.71,1.89H246.65z
					 M246.18,371.51l0.35-1.89h-9.24l-0.71,1.89H246.18z M237.03,366.47l0.71-1.89h-8.28l-1.06,1.89H237.03z M236.09,368.99
					l0.71-1.89h-8.75l-1.06,1.89H236.09z M235.15,371.51l0.71-1.89h-9.22l-1.06,1.89H235.15z M226.94,366.47l1.06-1.89h-8.25
					l-1.41,1.89H226.94z M225.53,368.99l1.06-1.89h-8.72l-1.41,1.89H225.53z M224.11,371.51l1.06-1.89h-9.2l-1.41,1.89H224.11z
					 M216.85,366.47l1.41-1.89h-8.22l-1.77,1.89H216.85z M214.96,368.99l1.41-1.89h-8.69l-1.77,1.89H214.96z M213.07,371.51
					l1.42-1.89h-9.16l-1.77,1.89H213.07z M206.74,366.47l1.77-1.89h-8.41l-2.12,1.89H206.74z M204.38,368.99l1.77-1.89h-8.88
					l-2.12,1.89H204.38z M202.03,371.51l1.77-1.89h-9.35l-2.12,1.89H202.03z"/>
				<linearGradient id="SVGID_13_" gradientUnits="userSpaceOnUse" x1="268.998" y1="270.9995" x2="268.998" y2="361.5536">
					<stop  offset="1.248265e-07" style="stop-color:#FFFFFF"/>
					<stop  offset="0.2775" style="stop-color:#FFFEFD"/>
					<stop  offset="0.4152" style="stop-color:#FFFCF5"/>
					<stop  offset="0.5221" style="stop-color:#FFF7E8"/>
					<stop  offset="0.6131" style="stop-color:#FFF0D5"/>
					<stop  offset="0.6941" style="stop-color:#FFE8BD"/>
					<stop  offset="0.7679" style="stop-color:#FFDD9F"/>
					<stop  offset="0.8364" style="stop-color:#FFD17B"/>
					<stop  offset="0.9005" style="stop-color:#FFC352"/>
					<stop  offset="0.9591" style="stop-color:#FFB325"/>
					<stop  offset="1" style="stop-color:#FFA600"/>
				</linearGradient>
				<path class="st15" d="M342.57,276.66v84.89H195.42v-84.89c0-3.11,2.55-5.66,5.66-5.66h135.83
					C340.03,271,342.57,273.55,342.57,276.66z M336.91,355.89v-79.23H201.08v79.23H336.91z"/>
				<rect x="201.08" y="276.66" class="st1" width="135.83" height="79.23"/>
				<path class="st1" d="M291.4,376.23c0.13,0.34-0.41,0.62-1.18,0.62h-42.45c-0.78,0-1.31-0.28-1.18-0.62l0.95-2.53
					c0.13-0.34,0.87-0.62,1.65-0.62h39.62c0.78,0,1.52,0.28,1.65,0.62L291.4,376.23z"/>
				<g>
					<linearGradient id="SVGID_14_" gradientUnits="userSpaceOnUse" x1="334.2017" y1="370.5623" x2="345.673" y2="370.5623">
						<stop  offset="1.248265e-07" style="stop-color:#FFFFFF"/>
						<stop  offset="0.2119" style="stop-color:#FFFEFB"/>
						<stop  offset="0.4277" style="stop-color:#FFFBEF"/>
						<stop  offset="0.6454" style="stop-color:#FFF7DA"/>
						<stop  offset="0.8631" style="stop-color:#FFF1BE"/>
						<stop  offset="1" style="stop-color:#FFECA8"/>
					</linearGradient>
					<polygon class="st16" points="343.55,369.62 345.67,371.51 335.97,371.51 334.2,369.62 					"/>
					<linearGradient id="SVGID_15_" gradientUnits="userSpaceOnUse" x1="331.8419" y1="368.0457" x2="342.8439" y2="368.0457">
						<stop  offset="1.248265e-07" style="stop-color:#FFFFFF"/>
						<stop  offset="0.2119" style="stop-color:#FFFEFB"/>
						<stop  offset="0.4277" style="stop-color:#FFFBEF"/>
						<stop  offset="0.6454" style="stop-color:#FFF7DA"/>
						<stop  offset="0.8631" style="stop-color:#FFF1BE"/>
						<stop  offset="1" style="stop-color:#FFECA8"/>
					</linearGradient>
					<polygon class="st17" points="340.72,367.1 342.84,368.99 333.61,368.99 331.84,367.1 					"/>
					<linearGradient id="SVGID_16_" gradientUnits="userSpaceOnUse" x1="329.485" y1="365.5287" x2="340.0138" y2="365.5287">
						<stop  offset="1.248265e-07" style="stop-color:#FFFFFF"/>
						<stop  offset="0.2119" style="stop-color:#FFFEFB"/>
						<stop  offset="0.4277" style="stop-color:#FFFBEF"/>
						<stop  offset="0.6454" style="stop-color:#FFF7DA"/>
						<stop  offset="0.8631" style="stop-color:#FFF1BE"/>
						<stop  offset="1" style="stop-color:#FFECA8"/>
					</linearGradient>
					<polygon class="st18" points="337.89,364.58 340.01,366.47 331.25,366.47 329.48,364.58 					"/>
					<linearGradient id="SVGID_17_" gradientUnits="userSpaceOnUse" x1="323.5104" y1="370.5623" x2="334.4373" y2="370.5623">
						<stop  offset="1.248265e-07" style="stop-color:#FFFFFF"/>
						<stop  offset="0.2119" style="stop-color:#FFFEFB"/>
						<stop  offset="0.4277" style="stop-color:#FFFBEF"/>
						<stop  offset="0.6454" style="stop-color:#FFF7DA"/>
						<stop  offset="0.8631" style="stop-color:#FFF1BE"/>
						<stop  offset="1" style="stop-color:#FFECA8"/>
					</linearGradient>
					<polygon class="st19" points="332.67,369.62 334.44,371.51 324.92,371.51 323.51,369.62 					"/>
					<linearGradient id="SVGID_18_" gradientUnits="userSpaceOnUse" x1="321.6228" y1="368.0457" x2="332.0766" y2="368.0457">
						<stop  offset="1.248265e-07" style="stop-color:#FFFFFF"/>
						<stop  offset="0.2119" style="stop-color:#FFFEFB"/>
						<stop  offset="0.4277" style="stop-color:#FFFBEF"/>
						<stop  offset="0.6454" style="stop-color:#FFF7DA"/>
						<stop  offset="0.8631" style="stop-color:#FFF1BE"/>
						<stop  offset="1" style="stop-color:#FFECA8"/>
					</linearGradient>
					<polygon class="st20" points="330.31,367.1 332.08,368.99 323.04,368.99 321.62,367.1 					"/>
					<linearGradient id="SVGID_19_" gradientUnits="userSpaceOnUse" x1="319.738" y1="365.5287" x2="329.7196" y2="365.5287">
						<stop  offset="1.248265e-07" style="stop-color:#FFFFFF"/>
						<stop  offset="0.2119" style="stop-color:#FFFEFB"/>
						<stop  offset="0.4277" style="stop-color:#FFFBEF"/>
						<stop  offset="0.6454" style="stop-color:#FFF7DA"/>
						<stop  offset="0.8631" style="stop-color:#FFF1BE"/>
						<stop  offset="1" style="stop-color:#FFECA8"/>
					</linearGradient>
					<polygon class="st21" points="327.95,364.58 329.72,366.47 321.15,366.47 319.74,364.58 					"/>
					<linearGradient id="SVGID_20_" gradientUnits="userSpaceOnUse" x1="312.821" y1="370.5623" x2="323.4325" y2="370.5623">
						<stop  offset="1.248265e-07" style="stop-color:#FFFFFF"/>
						<stop  offset="0.2119" style="stop-color:#FFFEFB"/>
						<stop  offset="0.4277" style="stop-color:#FFFBEF"/>
						<stop  offset="0.6454" style="stop-color:#FFF7DA"/>
						<stop  offset="0.8631" style="stop-color:#FFF1BE"/>
						<stop  offset="1" style="stop-color:#FFECA8"/>
					</linearGradient>
					<polygon class="st22" points="322.02,369.62 323.43,371.51 313.88,371.51 312.82,369.62 					"/>
					<linearGradient id="SVGID_21_" gradientUnits="userSpaceOnUse" x1="311.4065" y1="368.0457" x2="321.5458" y2="368.0457">
						<stop  offset="1.248265e-07" style="stop-color:#FFFFFF"/>
						<stop  offset="0.2119" style="stop-color:#FFFEFB"/>
						<stop  offset="0.4277" style="stop-color:#FFFBEF"/>
						<stop  offset="0.6454" style="stop-color:#FFF7DA"/>
						<stop  offset="0.8631" style="stop-color:#FFF1BE"/>
						<stop  offset="1" style="stop-color:#FFECA8"/>
					</linearGradient>
					<polygon class="st23" points="320.13,367.1 321.55,368.99 312.47,368.99 311.41,367.1 					"/>
					<linearGradient id="SVGID_22_" gradientUnits="userSpaceOnUse" x1="309.991" y1="365.5287" x2="319.661" y2="365.5287">
						<stop  offset="1.248265e-07" style="stop-color:#FFFFFF"/>
						<stop  offset="0.2119" style="stop-color:#FFFEFB"/>
						<stop  offset="0.4277" style="stop-color:#FFFBEF"/>
						<stop  offset="0.6454" style="stop-color:#FFF7DA"/>
						<stop  offset="0.8631" style="stop-color:#FFF1BE"/>
						<stop  offset="1" style="stop-color:#FFECA8"/>
					</linearGradient>
					<polygon class="st24" points="318.25,364.58 319.66,366.47 311.05,366.47 309.99,364.58 					"/>
					<linearGradient id="SVGID_23_" gradientUnits="userSpaceOnUse" x1="302.1402" y1="370.5623" x2="312.423" y2="370.5623">
						<stop  offset="1.248265e-07" style="stop-color:#FFFFFF"/>
						<stop  offset="0.2119" style="stop-color:#FFFEFB"/>
						<stop  offset="0.4277" style="stop-color:#FFFBEF"/>
						<stop  offset="0.6454" style="stop-color:#FFF7DA"/>
						<stop  offset="0.8631" style="stop-color:#FFF1BE"/>
						<stop  offset="1" style="stop-color:#FFECA8"/>
					</linearGradient>
					<polygon class="st25" points="311.36,369.62 312.42,371.51 302.85,371.51 302.14,369.62 					"/>
					<linearGradient id="SVGID_24_" gradientUnits="userSpaceOnUse" x1="301.1949" y1="368.0457" x2="311.0084" y2="368.0457">
						<stop  offset="1.248265e-07" style="stop-color:#FFFFFF"/>
						<stop  offset="0.2119" style="stop-color:#FFFEFB"/>
						<stop  offset="0.4277" style="stop-color:#FFFBEF"/>
						<stop  offset="0.6454" style="stop-color:#FFF7DA"/>
						<stop  offset="0.8631" style="stop-color:#FFF1BE"/>
						<stop  offset="1" style="stop-color:#FFECA8"/>
					</linearGradient>
					<polygon class="st26" points="309.95,367.1 311.01,368.99 301.9,368.99 301.19,367.1 					"/>
					<linearGradient id="SVGID_25_" gradientUnits="userSpaceOnUse" x1="300.2525" y1="365.5287" x2="309.5939" y2="365.5287">
						<stop  offset="1.248265e-07" style="stop-color:#FFFFFF"/>
						<stop  offset="0.2119" style="stop-color:#FFFEFB"/>
						<stop  offset="0.4277" style="stop-color:#FFFBEF"/>
						<stop  offset="0.6454" style="stop-color:#FFF7DA"/>
						<stop  offset="0.8631" style="stop-color:#FFF1BE"/>
						<stop  offset="1" style="stop-color:#FFECA8"/>
					</linearGradient>
					<polygon class="st27" points="308.53,364.58 309.59,366.47 300.96,366.47 300.25,364.58 					"/>
					<linearGradient id="SVGID_26_" gradientUnits="userSpaceOnUse" x1="291.4622" y1="370.5623" x2="301.4134" y2="370.5623">
						<stop  offset="1.248265e-07" style="stop-color:#FFFFFF"/>
						<stop  offset="0.2119" style="stop-color:#FFFEFB"/>
						<stop  offset="0.4277" style="stop-color:#FFFBEF"/>
						<stop  offset="0.6454" style="stop-color:#FFF7DA"/>
						<stop  offset="0.8631" style="stop-color:#FFF1BE"/>
						<stop  offset="1" style="stop-color:#FFECA8"/>
					</linearGradient>
					<polygon class="st28" points="300.71,369.62 301.41,371.51 291.82,371.51 291.46,369.62 					"/>
					<linearGradient id="SVGID_27_" gradientUnits="userSpaceOnUse" x1="290.99" y1="368.0457" x2="300.4682" y2="368.0457">
						<stop  offset="1.248265e-07" style="stop-color:#FFFFFF"/>
						<stop  offset="0.2119" style="stop-color:#FFFEFB"/>
						<stop  offset="0.4277" style="stop-color:#FFFBEF"/>
						<stop  offset="0.6454" style="stop-color:#FFF7DA"/>
						<stop  offset="0.8631" style="stop-color:#FFF1BE"/>
						<stop  offset="1" style="stop-color:#FFECA8"/>
					</linearGradient>
					<polygon class="st29" points="299.76,367.1 300.47,368.99 291.34,368.99 290.99,367.1 					"/>
					<linearGradient id="SVGID_28_" gradientUnits="userSpaceOnUse" x1="290.5169" y1="365.5287" x2="299.5258" y2="365.5287">
						<stop  offset="1.248265e-07" style="stop-color:#FFFFFF"/>
						<stop  offset="0.2119" style="stop-color:#FFFEFB"/>
						<stop  offset="0.4277" style="stop-color:#FFFBEF"/>
						<stop  offset="0.6454" style="stop-color:#FFF7DA"/>
						<stop  offset="0.8631" style="stop-color:#FFF1BE"/>
						<stop  offset="1" style="stop-color:#FFECA8"/>
					</linearGradient>
					<polygon class="st30" points="298.82,364.58 299.53,366.47 290.87,366.47 290.52,364.58 					"/>
					<linearGradient id="SVGID_29_" gradientUnits="userSpaceOnUse" x1="247.5997" y1="370.5623" x2="290.3953" y2="370.5623">
						<stop  offset="1.248265e-07" style="stop-color:#FFFFFF"/>
						<stop  offset="0.2119" style="stop-color:#FFFEFB"/>
						<stop  offset="0.4277" style="stop-color:#FFFBEF"/>
						<stop  offset="0.6454" style="stop-color:#FFF7DA"/>
						<stop  offset="0.8631" style="stop-color:#FFF1BE"/>
						<stop  offset="1" style="stop-color:#FFECA8"/>
					</linearGradient>
					<polygon class="st31" points="290.04,369.62 290.4,371.51 247.6,371.51 247.95,369.62 257.91,369.62 269,369.62 280.08,369.62 
											"/>
					<linearGradient id="SVGID_30_" gradientUnits="userSpaceOnUse" x1="280.787" y1="368.0457" x2="289.9232" y2="368.0457">
						<stop  offset="1.248265e-07" style="stop-color:#FFFFFF"/>
						<stop  offset="0.2119" style="stop-color:#FFFEFB"/>
						<stop  offset="0.4277" style="stop-color:#FFFBEF"/>
						<stop  offset="0.6454" style="stop-color:#FFF7DA"/>
						<stop  offset="0.8631" style="stop-color:#FFF1BE"/>
						<stop  offset="1" style="stop-color:#FFECA8"/>
					</linearGradient>
					<polygon class="st32" points="289.57,367.1 289.92,368.99 280.79,368.99 280.79,367.1 					"/>
					<linearGradient id="SVGID_31_" gradientUnits="userSpaceOnUse" x1="280.787" y1="365.5287" x2="289.4529" y2="365.5287">
						<stop  offset="1.248265e-07" style="stop-color:#FFFFFF"/>
						<stop  offset="0.2119" style="stop-color:#FFFEFB"/>
						<stop  offset="0.4277" style="stop-color:#FFFBEF"/>
						<stop  offset="0.6454" style="stop-color:#FFF7DA"/>
						<stop  offset="0.8631" style="stop-color:#FFF1BE"/>
						<stop  offset="1" style="stop-color:#FFECA8"/>
					</linearGradient>
					<polygon class="st33" points="289.1,364.58 289.45,366.47 280.79,366.47 280.79,364.58 					"/>
					<linearGradient id="SVGID_32_" gradientUnits="userSpaceOnUse" x1="269.7053" y1="368.0457" x2="279.3734" y2="368.0457">
						<stop  offset="1.248265e-07" style="stop-color:#FFFFFF"/>
						<stop  offset="0.2119" style="stop-color:#FFFEFB"/>
						<stop  offset="0.4277" style="stop-color:#FFFBEF"/>
						<stop  offset="0.6454" style="stop-color:#FFF7DA"/>
						<stop  offset="0.8631" style="stop-color:#FFF1BE"/>
						<stop  offset="1" style="stop-color:#FFECA8"/>
					</linearGradient>
					<rect x="269.71" y="367.1" class="st34" width="9.67" height="1.89"/>
					<linearGradient id="SVGID_33_" gradientUnits="userSpaceOnUse" x1="269.7053" y1="365.5287" x2="279.3734" y2="365.5287">
						<stop  offset="1.248265e-07" style="stop-color:#FFFFFF"/>
						<stop  offset="0.2119" style="stop-color:#FFFEFB"/>
						<stop  offset="0.4277" style="stop-color:#FFFBEF"/>
						<stop  offset="0.6454" style="stop-color:#FFF7DA"/>
						<stop  offset="0.8631" style="stop-color:#FFF1BE"/>
						<stop  offset="1" style="stop-color:#FFECA8"/>
					</linearGradient>
					<rect x="269.71" y="364.58" class="st35" width="9.67" height="1.89"/>
					<linearGradient id="SVGID_34_" gradientUnits="userSpaceOnUse" x1="258.6216" y1="368.0457" x2="268.2898" y2="368.0457">
						<stop  offset="1.248265e-07" style="stop-color:#FFFFFF"/>
						<stop  offset="0.2119" style="stop-color:#FFFEFB"/>
						<stop  offset="0.4277" style="stop-color:#FFFBEF"/>
						<stop  offset="0.6454" style="stop-color:#FFF7DA"/>
						<stop  offset="0.8631" style="stop-color:#FFF1BE"/>
						<stop  offset="1" style="stop-color:#FFECA8"/>
					</linearGradient>
					<rect x="258.62" y="367.1" class="st36" width="9.67" height="1.89"/>
					<linearGradient id="SVGID_35_" gradientUnits="userSpaceOnUse" x1="258.6216" y1="365.5287" x2="268.2898" y2="365.5287">
						<stop  offset="1.248265e-07" style="stop-color:#FFFFFF"/>
						<stop  offset="0.2119" style="stop-color:#FFFEFB"/>
						<stop  offset="0.4277" style="stop-color:#FFFBEF"/>
						<stop  offset="0.6454" style="stop-color:#FFF7DA"/>
						<stop  offset="0.8631" style="stop-color:#FFF1BE"/>
						<stop  offset="1" style="stop-color:#FFECA8"/>
					</linearGradient>
					<rect x="258.62" y="364.58" class="st37" width="9.67" height="1.89"/>
					<linearGradient id="SVGID_36_" gradientUnits="userSpaceOnUse" x1="248.07" y1="368.0457" x2="257.2061" y2="368.0457">
						<stop  offset="1.248265e-07" style="stop-color:#FFFFFF"/>
						<stop  offset="0.2119" style="stop-color:#FFFEFB"/>
						<stop  offset="0.4277" style="stop-color:#FFFBEF"/>
						<stop  offset="0.6454" style="stop-color:#FFF7DA"/>
						<stop  offset="0.8631" style="stop-color:#FFF1BE"/>
						<stop  offset="1" style="stop-color:#FFECA8"/>
					</linearGradient>
					<polygon class="st38" points="257.21,367.1 257.21,368.99 248.07,368.99 248.42,367.1 					"/>
					<linearGradient id="SVGID_37_" gradientUnits="userSpaceOnUse" x1="248.5431" y1="365.5287" x2="257.2061" y2="365.5287">
						<stop  offset="1.248265e-07" style="stop-color:#FFFFFF"/>
						<stop  offset="0.2119" style="stop-color:#FFFEFB"/>
						<stop  offset="0.4277" style="stop-color:#FFFBEF"/>
						<stop  offset="0.6454" style="stop-color:#FFF7DA"/>
						<stop  offset="0.8631" style="stop-color:#FFF1BE"/>
						<stop  offset="1" style="stop-color:#FFECA8"/>
					</linearGradient>
					<polygon class="st39" points="257.21,364.58 257.21,366.47 248.54,366.47 248.9,364.58 					"/>
					<linearGradient id="SVGID_38_" gradientUnits="userSpaceOnUse" x1="238.4693" y1="365.5287" x2="247.4781" y2="365.5287">
						<stop  offset="1.248265e-07" style="stop-color:#FFFFFF"/>
						<stop  offset="0.2119" style="stop-color:#FFFEFB"/>
						<stop  offset="0.4277" style="stop-color:#FFFBEF"/>
						<stop  offset="0.6454" style="stop-color:#FFF7DA"/>
						<stop  offset="0.8631" style="stop-color:#FFF1BE"/>
						<stop  offset="1" style="stop-color:#FFECA8"/>
					</linearGradient>
					<polygon class="st40" points="247.48,364.58 247.12,366.47 238.47,366.47 239.18,364.58 					"/>
					<linearGradient id="SVGID_39_" gradientUnits="userSpaceOnUse" x1="237.525" y1="368.0457" x2="247.0069" y2="368.0457">
						<stop  offset="1.248265e-07" style="stop-color:#FFFFFF"/>
						<stop  offset="0.2119" style="stop-color:#FFFEFB"/>
						<stop  offset="0.4277" style="stop-color:#FFFBEF"/>
						<stop  offset="0.6454" style="stop-color:#FFF7DA"/>
						<stop  offset="0.8631" style="stop-color:#FFF1BE"/>
						<stop  offset="1" style="stop-color:#FFECA8"/>
					</linearGradient>
					<polygon class="st41" points="247.01,367.1 246.65,368.99 237.52,368.99 238.23,367.1 					"/>
					<linearGradient id="SVGID_40_" gradientUnits="userSpaceOnUse" x1="236.5826" y1="370.5623" x2="246.5338" y2="370.5623">
						<stop  offset="1.248265e-07" style="stop-color:#FFFFFF"/>
						<stop  offset="0.2119" style="stop-color:#FFFEFB"/>
						<stop  offset="0.4277" style="stop-color:#FFFBEF"/>
						<stop  offset="0.6454" style="stop-color:#FFF7DA"/>
						<stop  offset="0.8631" style="stop-color:#FFF1BE"/>
						<stop  offset="1" style="stop-color:#FFECA8"/>
					</linearGradient>
					<polygon class="st42" points="246.53,369.62 246.18,371.51 236.58,371.51 237.29,369.62 					"/>
					<linearGradient id="SVGID_41_" gradientUnits="userSpaceOnUse" x1="228.4002" y1="365.5287" x2="237.7416" y2="365.5287">
						<stop  offset="1.248265e-07" style="stop-color:#FFFFFF"/>
						<stop  offset="0.2119" style="stop-color:#FFFEFB"/>
						<stop  offset="0.4277" style="stop-color:#FFFBEF"/>
						<stop  offset="0.6454" style="stop-color:#FFF7DA"/>
						<stop  offset="0.8631" style="stop-color:#FFF1BE"/>
						<stop  offset="1" style="stop-color:#FFECA8"/>
					</linearGradient>
					<polygon class="st43" points="237.74,364.58 237.03,366.47 228.4,366.47 229.46,364.58 					"/>
					<linearGradient id="SVGID_42_" gradientUnits="userSpaceOnUse" x1="226.9857" y1="368.0457" x2="236.8001" y2="368.0457">
						<stop  offset="1.248265e-07" style="stop-color:#FFFFFF"/>
						<stop  offset="0.2119" style="stop-color:#FFFEFB"/>
						<stop  offset="0.4277" style="stop-color:#FFFBEF"/>
						<stop  offset="0.6454" style="stop-color:#FFF7DA"/>
						<stop  offset="0.8631" style="stop-color:#FFF1BE"/>
						<stop  offset="1" style="stop-color:#FFECA8"/>
					</linearGradient>
					<polygon class="st44" points="236.8,367.1 236.09,368.99 226.99,368.99 228.05,367.1 					"/>
					<linearGradient id="SVGID_43_" gradientUnits="userSpaceOnUse" x1="225.5702" y1="370.5623" x2="235.8558" y2="370.5623">
						<stop  offset="1.248265e-07" style="stop-color:#FFFFFF"/>
						<stop  offset="0.2119" style="stop-color:#FFFEFB"/>
						<stop  offset="0.4277" style="stop-color:#FFFBEF"/>
						<stop  offset="0.6454" style="stop-color:#FFF7DA"/>
						<stop  offset="0.8631" style="stop-color:#FFF1BE"/>
						<stop  offset="1" style="stop-color:#FFECA8"/>
					</linearGradient>
					<polygon class="st45" points="235.86,369.62 235.15,371.51 225.57,371.51 226.63,369.62 					"/>
					<linearGradient id="SVGID_44_" gradientUnits="userSpaceOnUse" x1="218.3359" y1="365.5287" x2="228.0022" y2="365.5287">
						<stop  offset="1.248265e-07" style="stop-color:#FFFFFF"/>
						<stop  offset="0.2119" style="stop-color:#FFFEFB"/>
						<stop  offset="0.4277" style="stop-color:#FFFBEF"/>
						<stop  offset="0.6454" style="stop-color:#FFF7DA"/>
						<stop  offset="0.8631" style="stop-color:#FFF1BE"/>
						<stop  offset="1" style="stop-color:#FFECA8"/>
					</linearGradient>
					<polygon class="st46" points="228,364.58 226.94,366.47 218.34,366.47 219.75,364.58 					"/>
					<linearGradient id="SVGID_45_" gradientUnits="userSpaceOnUse" x1="216.4483" y1="368.0457" x2="226.5876" y2="368.0457">
						<stop  offset="1.248265e-07" style="stop-color:#FFFFFF"/>
						<stop  offset="0.2119" style="stop-color:#FFFEFB"/>
						<stop  offset="0.4277" style="stop-color:#FFFBEF"/>
						<stop  offset="0.6454" style="stop-color:#FFF7DA"/>
						<stop  offset="0.8631" style="stop-color:#FFF1BE"/>
						<stop  offset="1" style="stop-color:#FFECA8"/>
					</linearGradient>
					<polygon class="st47" points="226.59,367.1 225.53,368.99 216.45,368.99 217.86,367.1 					"/>
					<linearGradient id="SVGID_46_" gradientUnits="userSpaceOnUse" x1="214.5606" y1="370.5623" x2="225.1721" y2="370.5623">
						<stop  offset="1.248265e-07" style="stop-color:#FFFFFF"/>
						<stop  offset="0.2119" style="stop-color:#FFFEFB"/>
						<stop  offset="0.4277" style="stop-color:#FFFBEF"/>
						<stop  offset="0.6454" style="stop-color:#FFF7DA"/>
						<stop  offset="0.8631" style="stop-color:#FFF1BE"/>
						<stop  offset="1" style="stop-color:#FFECA8"/>
					</linearGradient>
					<polygon class="st48" points="225.17,369.62 224.11,371.51 214.56,371.51 215.98,369.62 					"/>
					<linearGradient id="SVGID_47_" gradientUnits="userSpaceOnUse" x1="208.2754" y1="365.5287" x2="218.2609" y2="365.5287">
						<stop  offset="1.248265e-07" style="stop-color:#FFFFFF"/>
						<stop  offset="0.2119" style="stop-color:#FFFEFB"/>
						<stop  offset="0.4277" style="stop-color:#FFFBEF"/>
						<stop  offset="0.6454" style="stop-color:#FFF7DA"/>
						<stop  offset="0.8631" style="stop-color:#FFF1BE"/>
						<stop  offset="1" style="stop-color:#FFECA8"/>
					</linearGradient>
					<polygon class="st49" points="218.26,364.58 216.85,366.47 208.28,366.47 210.04,364.58 					"/>
					<linearGradient id="SVGID_48_" gradientUnits="userSpaceOnUse" x1="205.9166" y1="368.0457" x2="216.3732" y2="368.0457">
						<stop  offset="1.248265e-07" style="stop-color:#FFFFFF"/>
						<stop  offset="0.2119" style="stop-color:#FFFEFB"/>
						<stop  offset="0.4277" style="stop-color:#FFFBEF"/>
						<stop  offset="0.6454" style="stop-color:#FFF7DA"/>
						<stop  offset="0.8631" style="stop-color:#FFF1BE"/>
						<stop  offset="1" style="stop-color:#FFECA8"/>
					</linearGradient>
					<polygon class="st50" points="216.37,367.1 214.96,368.99 205.92,368.99 207.69,367.1 					"/>
					<linearGradient id="SVGID_49_" gradientUnits="userSpaceOnUse" x1="203.5596" y1="370.5623" x2="214.4865" y2="370.5623">
						<stop  offset="1.248265e-07" style="stop-color:#FFFFFF"/>
						<stop  offset="0.2119" style="stop-color:#FFFEFB"/>
						<stop  offset="0.4277" style="stop-color:#FFFBEF"/>
						<stop  offset="0.6454" style="stop-color:#FFF7DA"/>
						<stop  offset="0.8631" style="stop-color:#FFF1BE"/>
						<stop  offset="1" style="stop-color:#FFECA8"/>
					</linearGradient>
					<polygon class="st51" points="214.49,369.62 213.07,371.51 203.56,371.51 205.33,369.62 					"/>
					<linearGradient id="SVGID_50_" gradientUnits="userSpaceOnUse" x1="197.9831" y1="365.5287" x2="208.511" y2="365.5287">
						<stop  offset="1.248265e-07" style="stop-color:#FFFFFF"/>
						<stop  offset="0.2119" style="stop-color:#FFFEFB"/>
						<stop  offset="0.4277" style="stop-color:#FFFBEF"/>
						<stop  offset="0.6454" style="stop-color:#FFF7DA"/>
						<stop  offset="0.8631" style="stop-color:#FFF1BE"/>
						<stop  offset="1" style="stop-color:#FFECA8"/>
					</linearGradient>
					<polygon class="st52" points="208.51,364.58 206.74,366.47 197.98,366.47 200.11,364.58 					"/>
					<linearGradient id="SVGID_51_" gradientUnits="userSpaceOnUse" x1="195.1531" y1="368.0457" x2="206.1531" y2="368.0457">
						<stop  offset="1.248265e-07" style="stop-color:#FFFFFF"/>
						<stop  offset="0.2119" style="stop-color:#FFFEFB"/>
						<stop  offset="0.4277" style="stop-color:#FFFBEF"/>
						<stop  offset="0.6454" style="stop-color:#FFF7DA"/>
						<stop  offset="0.8631" style="stop-color:#FFF1BE"/>
						<stop  offset="1" style="stop-color:#FFECA8"/>
					</linearGradient>
					<polygon class="st53" points="206.15,367.1 204.38,368.99 195.15,368.99 197.28,367.1 					"/>
					<linearGradient id="SVGID_52_" gradientUnits="userSpaceOnUse" x1="192.323" y1="370.5623" x2="203.7952" y2="370.5623">
						<stop  offset="1.248265e-07" style="stop-color:#FFFFFF"/>
						<stop  offset="0.2119" style="stop-color:#FFFEFB"/>
						<stop  offset="0.4277" style="stop-color:#FFFBEF"/>
						<stop  offset="0.6454" style="stop-color:#FFF7DA"/>
						<stop  offset="0.8631" style="stop-color:#FFF1BE"/>
						<stop  offset="1" style="stop-color:#FFECA8"/>
					</linearGradient>
					<polygon class="st54" points="203.8,369.62 202.03,371.51 192.32,371.51 194.45,369.62 					"/>
				</g>
			</g>
		</g>
	</g>
	<linearGradient id="SVGID_53_" gradientUnits="userSpaceOnUse" x1="257.0555" y1="291.2157" x2="321.8983" y2="368.4923">
		<stop  offset="0" style="stop-color:#FF9118"/>
		<stop  offset="0.8157" style="stop-color:#FF9318;stop-opacity:0"/>
	</linearGradient>
	<polygon class="st55" points="257.21,291.09 276.47,309 302.33,291.09 336.91,323.19 336.91,355.89 261.26,355.89 249.64,345.57 
		252.87,321.28 251.91,305.06 	"/>
	<g>
		<path class="st56" d="M264.16,328.61c-0.01,5.75-1.98,10.17-5.93,13.28c-3.36,2.67-7.55,4-12.58,3.99c-3.87,0-7.05-0.33-9.55-0.99
			c-5.44-1.37-8.16-2.59-8.16-3.64c0-0.19,0.05-0.47,0.16-0.84c0.36-1.15,0.89-2.87,1.59-5.17c0.21-1.15,0.57-2.86,1.09-5.13
			c0.23-0.78,0.62-1.16,1.16-1.16c-0.08,0,1.08,0.51,3.46,1.54c2.38,1.03,4.34,1.54,5.86,1.54c5.05,0.01,7.58-2.03,7.59-6.1
			c0-3.26-2.39-4.9-7.19-4.9c-0.64,0-1.5,0.03-2.55,0.09c-1.06,0.06-1.75,0.09-2.09,0.09c-1.57,0-2.44-0.02-2.59-0.05
			c-1.13-0.16-1.7-0.68-1.7-1.59c0.01-4.75,0.16-7.74,0.47-8.95c0.21-0.78,0.62-1.16,1.24-1.16c0.88,0,2.17,0.14,3.89,0.4
			c1.71,0.27,3,0.4,3.85,0.4c1.11,0,2.03-0.44,2.77-1.33c0.74-0.88,1.1-2.01,1.11-3.38c0-3.67-2.21-5.5-6.65-5.51
			c-1.86,0-4.37,0.6-7.54,1.81c-0.13,0.03-0.25,0.05-0.35,0.05c-0.34,0-0.62-0.44-0.85-1.31c-0.05-1.31-0.13-2.8-0.23-4.47
			c-0.03-0.37-0.1-1.12-0.23-2.24c-0.1-0.9-0.15-1.63-0.15-2.19c0-1.65,2.12-2.92,6.35-3.81c2.91-0.62,5.74-0.93,8.47-0.92
			c4.38,0,8.22,1.17,11.52,3.51c3.99,2.8,5.99,6.67,5.98,11.61c-0.01,5.69-2.15,10-6.43,12.95c2.53,1.03,4.53,2.75,6.01,5.18
			C263.43,322.64,264.17,325.44,264.16,328.61z"/>
		<path class="st56" d="M313.42,316.45c-0.01,8.02-2.17,14.9-6.48,20.64c-4.47,5.96-10,8.94-16.6,8.93c-6.6-0.01-12.12-3-16.55-8.97
			c-4.33-5.75-6.48-12.64-6.48-20.65c0.01-8.05,2.18-14.91,6.52-20.59c4.44-5.87,9.96-8.8,16.56-8.79
			c6.6,0.01,12.12,2.95,16.55,8.83C311.27,301.57,313.42,308.44,313.42,316.45z M299.07,316.44c0-3.2-0.77-5.98-2.31-8.34
			c-1.65-2.52-3.77-3.78-6.38-3.78c-2.66,0-4.8,1.24-6.42,3.72c-1.52,2.3-2.29,5.09-2.29,8.39c0,3.23,0.75,6.04,2.27,8.44
			c1.65,2.58,3.79,3.87,6.42,3.87c2.53,0,4.64-1.32,6.35-3.95C298.27,322.35,299.06,319.57,299.07,316.44z"/>
	</g>
</g>
</svg>
