<?xml version="1.0" encoding="utf-8"?>
<!-- Generator: Adobe Illustrator 24.0.0, SVG Export Plug-In . SVG Version: 6.00 Build 0)  -->
<svg version="1.1" id="Layer_1" xmlns="http://www.w3.org/2000/svg" xmlns:xlink="http://www.w3.org/1999/xlink" x="0px" y="0px"
	 viewBox="0 0 372 568.5" style="enable-background:new 0 0 372 568.5;" xml:space="preserve">
<style type="text/css">
	.st0{clip-path:url(#SVGID_2_);}
	.st1{fill:#42E8E0;}
	.st2{opacity:0.4;fill:#42E8E0;enable-background:new    ;}
	.st3{fill:url(#SVGID_3_);}
	.st4{fill:url(#SVGID_4_);}
	.st5{opacity:0.3;fill:#0F054C;enable-background:new    ;}
	.st6{fill:url(#SVGID_5_);}
	.st7{fill:#FFFFFF;}
	.st8{fill:url(#SVGID_6_);}
	.st9{fill:url(#SVGID_7_);}
	.st10{fill:#618DCF;}
	.st11{opacity:0.3;fill:#24126A;enable-background:new    ;}
	.st12{fill:url(#SVGID_8_);}
	.st13{opacity:0.71;}
	.st14{opacity:0.8;fill:#42E8E0;enable-background:new    ;}
	.st15{fill:url(#SVGID_9_);}
	.st16{fill:url(#SVGID_10_);}
	.st17{fill:#24126A;}
	.st18{opacity:0.51;}
	.st19{fill:#453C9E;}
	.st20{fill:url(#SVGID_11_);}
	.st21{fill:url(#SVGID_12_);}
	.st22{opacity:0.15;}
	.st23{clip-path:url(#SVGID_14_);}
	.st24{fill:url(#SVGID_15_);}
	.st25{fill:url(#SVGID_16_);}
	.st26{opacity:0.5;}
	.st27{opacity:0.5;fill:url(#SVGID_17_);enable-background:new    ;}
	.st28{fill:#5351AF;}
	.st29{fill:url(#SVGID_18_);}
	.st30{opacity:0.5;fill:url(#SVGID_19_);enable-background:new    ;}
	.st31{fill:url(#SVGID_20_);}
	.st32{fill:url(#SVGID_21_);}
	.st33{opacity:0.8;}
</style>
<g id="back-art">
	<g id="back-art-clip">
		<defs>
			<rect id="SVGID_1_" width="372" height="568.5"/>
		</defs>
		<clipPath id="SVGID_2_">
			<use xlink:href="#SVGID_1_"  style="overflow:visible;"/>
		</clipPath>
		<g id="lines-front" class="st0">
			<g>
				<path class="st1" d="M202.2,489.6c-1.5,0-3-0.4-4.2-1.1L6.2,375.3c-1.2-0.7-1.9-1.7-1.9-2.7c0-0.8,0.5-1.6,1.4-2.1L120.2,303
					c1.9-1.1,5.2-1,7.4,0.3l191.8,113.3c1.2,0.7,1.9,1.7,1.9,2.7c0,0.8-0.5,1.6-1.4,2.1l-114.5,67.6
					C204.6,489.4,203.4,489.6,202.2,489.6z M6.5,374.8L198.3,488c2,1.2,5.1,1.3,6.8,0.3l114.5-67.6c0.7-0.4,1.1-1,1.1-1.5
					c0-0.7-0.6-1.5-1.6-2.1L127.2,303.9c-2-1.2-5.1-1.3-6.8-0.3L6,371.1c-0.7,0.4-1.1,1-1.1,1.5C4.9,373.4,5.5,374.2,6.5,374.8
					L6.5,374.8z"/>
				<g>
					<g>
						<path class="st1" d="M394,510c-2.5,0-5.1-0.6-7-1.7l-37.2-22c-1.9-1.1-3-2.7-3-4.3s1.1-3.2,3-4.3l37.2-22
							c3.9-2.3,10.2-2.3,14,0l37.2,22c1.9,1.1,3,2.7,3,4.3c0,1.7-1.1,3.2-3,4.3l-37.2,22C399,509.4,396.5,510,394,510z M387.3,507.7
							c3.7,2.2,9.7,2.2,13.4,0l37.2-22c1.7-1,2.7-2.4,2.7-3.8s-1-2.7-2.7-3.8l-37.2-22c-3.7-2.2-9.7-2.2-13.4,0l-37.2,22
							c-1.7,1-2.7,2.4-2.7,3.8s1,2.7,2.7,3.8L387.3,507.7z"/>
					</g>
				</g>
				<path class="st1" d="M250.8,564.1c-3.1,0-6.2-0.7-8.6-2.1L92.7,473.7c-2.4-1.4-3.7-3.3-3.7-5.3s1.3-3.9,3.7-5.3l31.5-18.6
					l0.3,0.6L93,463.7c-2.2,1.3-3.3,2.9-3.3,4.7s1.2,3.4,3.3,4.7l149.6,88.3c4.6,2.7,12,2.7,16.5,0L368.5,497l0.3,0.6L259.4,562
					C257,563.4,253.9,564.1,250.8,564.1z"/>
			</g>
		</g>
		<g id="disk-back" class="st0">
			<path class="st2" d="M442.4,473.5v-13l-2.3-1.3c-0.7,4.1-5.3,6.8-9.3,7.3l-26.7,16l-11.6,4.3l-37.1-19.6l0.9-0.5
				c-3.2-1.5-4.9-5-6.6-8.1l-2.5,1.5l-1.5,0.4v13.3l0,0c0,1.7,1.1,3.4,3.3,4.7l37.2,22c4.4,2.6,11.5,2.6,15.8,0l37.2-22
				c2.1-1.3,3.2-2.9,3.3-4.6C442.4,473.7,442.4,473.6,442.4,473.5L442.4,473.5z"/>
			<g>
				<g>
					
						<linearGradient id="SVGID_3_" gradientUnits="userSpaceOnUse" x1="355.0418" y1="133.1384" x2="431.9381" y2="88.7423" gradientTransform="matrix(1 0 0 -1 0 570)">
						<stop  offset="0" style="stop-color:#BCBEFF"/>
						<stop  offset="0.2271" style="stop-color:#AAADF8"/>
						<stop  offset="0.6802" style="stop-color:#7C83E5"/>
						<stop  offset="1" style="stop-color:#5761D7"/>
					</linearGradient>
					<path class="st3" d="M442.4,461.9v-8.6L440,452c-0.7,4.1-5.3,6.8-9.3,7.3l-26.7,16l-11.6,4.3L355.3,460l0.9-0.5
						c-3.2-1.5-4.9-5-6.6-8.1l-2.5,1.5l-1.5,0.4v8.8l0,0c0,1.7,1.1,3.4,3.3,4.7l37.2,22c4.4,2.6,11.5,2.6,15.8,0l37.2-22
						c2.1-1.3,3.2-2.9,3.3-4.6C442.4,462.1,442.4,462,442.4,461.9L442.4,461.9z"/>
					
						<linearGradient id="SVGID_4_" gradientUnits="userSpaceOnUse" x1="359.777" y1="136.3989" x2="428.2825" y2="96.8472" gradientTransform="matrix(1 0 0 -1 0 570)">
						<stop  offset="0.2421" style="stop-color:#5761D7"/>
						<stop  offset="0.3923" style="stop-color:#7A82E5"/>
						<stop  offset="0.5463" style="stop-color:#979CF0"/>
						<stop  offset="0.7" style="stop-color:#ACAFF8"/>
						<stop  offset="0.8519" style="stop-color:#B8BAFD"/>
						<stop  offset="1" style="stop-color:#BCBEFF"/>
					</linearGradient>
					<path class="st4" d="M356.2,459.4l35.3-20.8c1.4-0.8,3.7-0.8,5.1,0l34.7,20.5l-0.4,0.2c3.9-0.6,8.6-3.2,9.3-7.3l-38.9-22.1
						l-11.3-3.1l-9.2,5.5l-31,18.9C351.3,454.5,353,457.9,356.2,459.4z"/>
					<path class="st5" d="M394,427.9l-4.1-1.1l-9.2,5.5l-31,18.9c1.7,3.2,3.4,6.6,6.6,8.1l35.3-20.8c0.7-0.4,1.6-0.6,2.5-0.6V427.9z
						"/>
					<g>
						
							<linearGradient id="SVGID_5_" gradientUnits="userSpaceOnUse" x1="345.57" y1="116.675" x2="442.36" y2="116.675" gradientTransform="matrix(1 0 0 -1 0 570)">
							<stop  offset="0" style="stop-color:#E9E9FD"/>
							<stop  offset="0.3601" style="stop-color:#D3D2F9"/>
							<stop  offset="0.7062" style="stop-color:#C5C4F7"/>
							<stop  offset="1" style="stop-color:#C0BFF6"/>
						</linearGradient>
						<path class="st6" d="M386.1,480l-37.2-22c-4.4-2.6-4.4-6.8,0-9.3l37.2-22c4.4-2.6,11.5-2.6,15.8,0l37.2,22
							c4.4,2.6,4.4,6.8,0,9.3l-37.2,22C397.5,482.5,390.4,482.5,386.1,480z M396.5,429.9c-1.4-0.8-3.7-0.8-5.1,0l-37.2,22
							c-1.4,0.8-1.4,2.2,0,3l37.2,22c1.4,0.8,3.7,0.8,5.1,0l37.2-22c1.4-0.8,1.4-2.2,0-3L396.5,429.9z"/>
					</g>
					<g>
						<path class="st7" d="M433.7,451.8l-37.2-22c-1.4-0.8-3.7-0.8-5.1,0l-37.2,22c-0.9,0.5-1.2,1.3-0.9,2c0.2-0.4,0.5-0.7,0.9-1
							l37.2-22c1.4-0.8,3.7-0.8,5.1,0l37.2,22c0.5,0.3,0.8,0.6,0.9,1C435,453.1,434.6,452.4,433.7,451.8z"/>
						<path class="st7" d="M439.1,458l-37.2,22c-4.4,2.6-11.5,2.6-15.8,0l-37.2-22c-2-1.1-3-2.6-3.2-4.1c-0.3,1.9,0.8,3.8,3.2,5.2
							l37.2,22c4.4,2.6,11.5,2.6,15.8,0l37.2-22c2.4-1.4,3.5-3.3,3.2-5.2C442.1,455.4,441,456.8,439.1,458z"/>
					</g>
					<g>
						
							<linearGradient id="SVGID_6_" gradientUnits="userSpaceOnUse" x1="347.055" y1="116.675" x2="440.875" y2="116.675" gradientTransform="matrix(1 0 0 -1 0 570)">
							<stop  offset="0" style="stop-color:#E9E9FD"/>
							<stop  offset="0.3601" style="stop-color:#D3D2F9"/>
							<stop  offset="0.7062" style="stop-color:#C5C4F7"/>
							<stop  offset="1" style="stop-color:#C0BFF6"/>
						</linearGradient>
						<path class="st8" d="M387.1,479.3l-37.2-22c-3.8-2.2-3.8-5.9,0-8.1l37.2-22c3.8-2.2,9.9-2.2,13.7,0l37.2,22
							c3.8,2.2,3.8,5.9,0,8.1l-37.2,22C397,481.6,390.9,481.6,387.1,479.3z M397.5,429.2c-2-1.2-5.2-1.2-7.2,0l-37.2,22
							c-2,1.2-2,3.1,0,4.2l37.2,22c2,1.2,5.2,1.2,7.2,0l37.2-22c2-1.2,2-3.1,0-4.2L397.5,429.2z"/>
					</g>
				</g>
				<path class="st2" d="M396.5,429.9c-1.4-0.8-3.7-0.8-5.1,0l-37.2,22c-1.4,0.8-1.4,2.2,0,3l37.2,22c1.4,0.8,3.7,0.8,5.1,0l37.2-22
					c1.4-0.8,1.4-2.2,0-3L396.5,429.9z"/>
			</g>
		</g>
		<g id="wave-back" class="st0">
			<g>
				<path class="st1" d="M540.7,349.6l-31-17.7c-6.9-4-13-12.7-15.2-21.8l-26.8-113.4c-1.7-7.2-5.5-13.3-9.9-17.5l-3.7,11.8
					c-0.9,2.9-2.7,4.9-5.1,5.9c-2.9,1.1-6.5,0.5-10.2-1.6l-4.4-2.6l-3.9,12.1c-0.9,2.9-2.7,5-5.1,5.9c-2.9,1.1-6.5,0.5-10.2-1.6
					l-5.6-3.3c-6.5-3.8-12.4-12.1-14.7-20.6c-2.1-7.7-6.4-13.9-11-17.8l-2.6,5.6c-1.1,2.3-2.8,3.9-5,4.6c-2.8,0.9-6.3,0.3-9.7-1.8
					l-2.9-1.7l-5.9,12.7c-1.1,2.3-2.8,3.9-5,4.6c-2.8,0.9-6.3,0.3-9.7-1.8l-6.4-3.8c-7-4.1-13.1-13-15.1-22.1L294.9,41.3
					c-1.7-7.6-5.8-14.1-10.4-18.4l-38.7,108c-1,2.7-2.7,4.6-5,5.5c-2.9,1.1-6.4,0.5-10.1-1.7l-4-2.3l-4.4,12.4c-1,2.7-2.7,4.6-5,5.5
					c-2.9,1.1-6.4,0.4-10.1-1.7l-22.5-13.3l24.1-14.2l0.1,0.1l17.4,10.3l38.9-108.6c1.5-4.2,4.5-6.3,8.5-6.1c3.2,0.2,6.9,2,10.4,5.1
					L288.8,9c1.5-4.2,4.5-6.3,8.5-6.1c7.8,0.5,18.6,10.7,21.6,24.4l26.8,122.4c1.9,8.8,8,17.7,14.8,21.7l2.9,1.7l2.7-5.9
					c1.7-3.6,4.6-5.4,8.4-5.1c2.8,0.2,6,1.7,9.1,4.2l6-12.9c1.7-3.6,4.6-5.4,8.4-5.1c7.3,0.6,17.4,9.5,21,22.8
					c2.3,8.3,8,16.4,14.4,20.2l0.6,0.3l4-12.5c1.4-4.4,4.4-6.7,8.4-6.5c3.5,0.1,7.4,2.1,11.1,5.4l4-12.7c1.4-4.4,4.4-6.7,8.4-6.5
					c7.9,0.3,18.5,10,21.8,23.9l26.8,113.4c2.1,8.9,8.1,17.5,14.9,21.4l31,17.7l-0.3,0.5l-31-17.7c-6.9-4-13-12.7-15.2-21.8
					l-26.8-113.4c-3.2-13.4-13.8-23.1-21.3-23.4c-0.1,0-0.3,0-0.4,0c-3.6,0-6.1,2.1-7.4,6.1l-4.1,12.9c4.5,4.2,8.4,10.5,10.2,18.1
					L495.1,310c2.1,8.9,8.1,17.5,14.9,21.4l31,17.7L540.7,349.6z M384.2,166.9c4.8,4,9.2,10.3,11.4,18.2c2.3,8.3,8,16.4,14.4,20.2
					l5.6,3.3c3.5,2.1,7,2.7,9.7,1.6c2.2-0.9,3.8-2.8,4.7-5.5l3.9-12.3l-0.7-0.4c-6.5-3.8-12.4-12.1-14.7-20.6
					c-3.5-13-13.4-21.7-20.5-22.3c-3.5-0.3-6.2,1.3-7.8,4.7L384.2,166.9z M434.6,192.1l4.5,2.6c3.5,2.1,7,2.7,9.7,1.6
					c2.2-0.9,3.8-2.8,4.7-5.5l3.8-12c-3.6-3.3-7.6-5.3-10.9-5.4c-3.8-0.1-6.5,2-7.8,6.1L434.6,192.1z M284.7,22.3
					c4.8,4.4,9,11,10.8,18.9l26.8,122.5c1.9,8.8,8,17.7,14.8,21.7l6.4,3.8c3.3,2,6.6,2.6,9.3,1.8c2-0.6,3.6-2.1,4.6-4.3l5.9-12.8
					l-3-1.8c-7-4.1-13.1-13-15.1-22.1L318.4,27.5c-3-13.5-13.5-23.4-21.1-23.9c-3.8-0.3-6.5,1.7-7.9,5.7L284.7,22.3z M364,173.6
					l3,1.8c3.3,2,6.6,2.6,9.3,1.8c2-0.6,3.6-2.1,4.6-4.3l2.6-5.7c-3-2.4-6.2-3.9-9-4.1c-3.5-0.3-6.2,1.3-7.8,4.7L364,173.6z
					 M185.9,135.2l21.6,12.7c3.5,2.1,6.9,2.6,9.6,1.6c2.1-0.8,3.8-2.6,4.7-5.1l4.5-12.4l-17.4-10.3L185.9,135.2z M227,131.8l4.1,2.4
					c3.5,2.1,6.9,2.6,9.6,1.6c2.1-0.8,3.8-2.6,4.7-5.1L284,22.4c-3.4-3-7.1-4.9-10.2-5.1c-3.8-0.2-6.5,1.7-7.9,5.7L227,131.8z"/>
				<polygon class="st1" points="269.4,18.4 269,17.8 292.8,3.9 293.1,4.4 				"/>
				<polygon class="st1" points="369.4,164.3 369.1,163.7 393,149.6 393.3,150.1 				"/>
				<path class="st1" d="M540.7,349.6l-31-17.7c-6.9-4-13-12.7-15.2-21.8l-26.8-113.4c-1.7-7.2-5.5-13.3-9.9-17.5l-3.7,11.8
					c-0.9,2.9-2.7,4.9-5.1,5.9c-2.9,1.1-6.5,0.5-10.2-1.6l-4.4-2.6l-3.9,12.1c-0.9,2.9-2.7,5-5.1,5.9c-2.9,1.1-6.5,0.5-10.2-1.6
					l-5.6-3.3c-6.5-3.8-12.4-12.1-14.7-20.6c-2.1-7.7-6.4-13.9-11-17.8l-2.6,5.6c-1.1,2.3-2.8,3.9-5,4.6c-2.8,0.9-6.3,0.3-9.7-1.8
					l-2.9-1.7l-5.9,12.7c-1.1,2.3-2.8,3.9-5,4.6c-2.8,0.9-6.3,0.3-9.7-1.8l-6.4-3.8c-7-4.1-13.1-13-15.1-22.1L294.9,41.3
					c-1.7-7.6-5.8-14.1-10.4-18.4l-38.7,108c-1,2.7-2.7,4.6-5,5.5c-2.9,1.1-6.4,0.5-10.1-1.7l-4-2.3l-4.4,12.4c-1,2.7-2.7,4.6-5,5.5
					c-2.9,1.1-6.4,0.4-10.1-1.7l-22.5-13.3l24.1-14.2l0.1,0.1l17.4,10.3l38.9-108.6c1.5-4.2,4.5-6.3,8.5-6.1c3.2,0.2,6.9,2,10.4,5.1
					L288.8,9c1.5-4.2,4.5-6.3,8.5-6.1c7.8,0.5,18.6,10.7,21.6,24.4l26.8,122.4c1.9,8.8,8,17.7,14.8,21.7l2.9,1.7l2.7-5.9
					c1.7-3.6,4.6-5.4,8.4-5.1c2.8,0.2,6,1.7,9.1,4.2l6-12.9c1.7-3.6,4.6-5.4,8.4-5.1c7.3,0.6,17.4,9.5,21,22.8
					c2.3,8.3,8,16.4,14.4,20.2l0.6,0.3l4-12.5c1.4-4.4,4.4-6.7,8.4-6.5c3.5,0.1,7.4,2.1,11.1,5.4l4-12.7c1.4-4.4,4.4-6.7,8.4-6.5
					c7.9,0.3,18.5,10,21.8,23.9l26.8,113.4c2.1,8.9,8.1,17.5,14.9,21.4l31,17.7l-0.3,0.5l-31-17.7c-6.9-4-13-12.7-15.2-21.8
					l-26.8-113.4c-3.2-13.4-13.8-23.1-21.3-23.4c-0.1,0-0.3,0-0.4,0c-3.6,0-6.1,2.1-7.4,6.1l-4.1,12.9c4.5,4.2,8.4,10.5,10.2,18.1
					L495.1,310c2.1,8.9,8.1,17.5,14.9,21.4l31,17.7L540.7,349.6z M384.2,166.9c4.8,4,9.2,10.3,11.4,18.2c2.3,8.3,8,16.4,14.4,20.2
					l5.6,3.3c3.5,2.1,7,2.7,9.7,1.6c2.2-0.9,3.8-2.8,4.7-5.5l3.9-12.3l-0.7-0.4c-6.5-3.8-12.4-12.1-14.7-20.6
					c-3.5-13-13.4-21.7-20.5-22.3c-3.5-0.3-6.2,1.3-7.8,4.7L384.2,166.9z M434.6,192.1l4.5,2.6c3.5,2.1,7,2.7,9.7,1.6
					c2.2-0.9,3.8-2.8,4.7-5.5l3.8-12c-3.6-3.3-7.6-5.3-10.9-5.4c-3.8-0.1-6.5,2-7.8,6.1L434.6,192.1z M284.7,22.3
					c4.8,4.4,9,11,10.8,18.9l26.8,122.5c1.9,8.8,8,17.7,14.8,21.7l6.4,3.8c3.3,2,6.6,2.6,9.3,1.8c2-0.6,3.6-2.1,4.6-4.3l5.9-12.8
					l-3-1.8c-7-4.1-13.1-13-15.1-22.1L318.4,27.5c-3-13.5-13.5-23.4-21.1-23.9c-3.8-0.3-6.5,1.7-7.9,5.7L284.7,22.3z M364,173.6
					l3,1.8c3.3,2,6.6,2.6,9.3,1.8c2-0.6,3.6-2.1,4.6-4.3l2.6-5.7c-3-2.4-6.2-3.9-9-4.1c-3.5-0.3-6.2,1.3-7.8,4.7L364,173.6z
					 M185.9,135.2l21.6,12.7c3.5,2.1,6.9,2.6,9.6,1.6c2.1-0.8,3.8-2.6,4.7-5.1l4.5-12.4l-17.4-10.3L185.9,135.2z M227,131.8l4.1,2.4
					c3.5,2.1,6.9,2.6,9.6,1.6c2.1-0.8,3.8-2.6,4.7-5.1L284,22.4c-3.4-3-7.1-4.9-10.2-5.1c-3.8-0.2-6.5,1.7-7.9,5.7L227,131.8z"/>
			</g>
		</g>
	</g>
</g>
<g id="laptop-bottom">
	
		<linearGradient id="SVGID_7_" gradientUnits="userSpaceOnUse" x1="315.04" y1="186.11" x2="-1.34" y2="186.11" gradientTransform="matrix(1 0 0 -1 0 570)">
		<stop  offset="0" style="stop-color:#5761D7"/>
		<stop  offset="0.1779" style="stop-color:#5C66D9"/>
		<stop  offset="0.3876" style="stop-color:#6A73DF"/>
		<stop  offset="0.6134" style="stop-color:#8289E8"/>
		<stop  offset="0.849" style="stop-color:#A3A7F5"/>
		<stop  offset="1" style="stop-color:#BCBEFF"/>
	</linearGradient>
	<path class="st9" d="M321,399.6l-10.6-1.5l-183-108c-2.1-1.2-5.3-1.4-7.1-0.3l-109,64.3l-6.7-1v9.1h0c0,0.8,0.6,1.7,1.7,2.3
		l191.8,113.3c2.1,1.2,5.3,1.4,7.1,0.3l114.5-67.6c0.8-0.5,1.2-1.2,1.2-1.9h0L321,399.6L321,399.6z"/>
	<path class="st10" d="M6.3,355.5l191.8,113.3c2.1,1.2,5.3,1.4,7.1,0.3l114.5-67.6c1.8-1.1,1.6-3-0.5-4.2L127.4,284
		c-2.1-1.2-5.3-1.4-7.1-0.3L5.8,351.3C4,352.4,4.2,354.2,6.3,355.5z"/>
	<path class="st11" d="M23,357.7l171.5,101.2c1.9,1.1,4.7,1.2,6.3,0.3l102.3-60.4c1.6-1,1.4-2.6-0.5-3.7L131.2,293.8
		c-1.9-1.1-4.7-1.2-6.3-0.3L22.5,354C20.9,354.9,21.1,356.6,23,357.7z"/>
	
		<linearGradient id="SVGID_8_" gradientUnits="userSpaceOnUse" x1="4.6149" y1="158.8232" x2="320.9577" y2="158.8232" gradientTransform="matrix(1 0 0 -1 0 570)">
		<stop  offset="0" style="stop-color:#C0BFF6"/>
		<stop  offset="0.2938" style="stop-color:#C5C4F7"/>
		<stop  offset="0.6399" style="stop-color:#D3D2F9"/>
		<stop  offset="1" style="stop-color:#E9E9FD"/>
	</linearGradient>
	<path class="st12" d="M319.8,400.5L205.3,468c-1.8,1.1-5,0.9-7.1-0.3L6.3,354.5c-0.9-0.5-1.5-1.2-1.7-1.9c-0.3,1,0.3,2,1.7,2.9
		l191.8,113.3c2.1,1.2,5.3,1.4,7.1,0.3l114.5-67.6c1-0.6,1.4-1.5,1.1-2.3C320.7,399.6,320.4,400.1,319.8,400.5z"/>
</g>
<g id="bubbles-back" class="st13">
	<g>
		<path class="st2" d="M285.7,208.4c0,1.8-1.4,3.2-3.1,3.2s-3.1-1.4-3.1-3.2s1.4-3.2,3.1-3.2C284.4,205.2,285.7,206.6,285.7,208.4z"
			/>
		<path class="st2" d="M231.6,63.4c0,1.8-1.4,3.2-3.1,3.2s-3.1-1.4-3.1-3.2s1.4-3.2,3.1-3.2C230.2,60.2,231.6,61.7,231.6,63.4z"/>
		<path class="st2" d="M237.6,171.7c0,2.6-2.1,4.7-4.6,4.7s-4.6-2.1-4.6-4.7s2.1-4.7,4.6-4.7S237.6,169.1,237.6,171.7z"/>
		<path class="st14" d="M229.3,251.5c0,1.8-1.4,3.3-3.2,3.3c-1.8,0-3.2-1.5-3.2-3.3s1.4-3.3,3.2-3.3
			C227.9,248.2,229.3,249.7,229.3,251.5z"/>
		<path class="st14" d="M275.3,117.9c0,2.8-2.2,5.1-5,5.1s-5-2.3-5-5.1s2.2-5.1,5-5.1C273.1,112.9,275.3,115.2,275.3,117.9z"/>
		<path class="st14" d="M271.5,134.3c0,1.9-1.5,3.4-3.4,3.4s-3.4-1.5-3.4-3.4s1.5-3.4,3.4-3.4C270,130.9,271.5,132.4,271.5,134.3z"
			/>
	</g>
	<path class="st14" d="M318.4,242.6c0,2.8-2.2,5.1-5,5.1s-5-2.3-5-5.1s2.2-5.1,5-5.1S318.4,239.8,318.4,242.6z"/>
	<path class="st14" d="M320.6,228.6c0,2.1-1.7,3.8-3.7,3.8s-3.7-1.7-3.7-3.8s1.7-3.8,3.7-3.8S320.6,226.5,320.6,228.6z"/>
	<ellipse class="st14" cx="327.4" cy="227" rx="2.4" ry="2.4"/>
	<path class="st14" d="M339,221.9c0.7,0.5,0.9,1.5,0.4,2.2c-0.5,0.7-1.4,0.9-2.2,0.4c-0.7-0.5-0.9-1.5-0.4-2.2
		S338.2,221.4,339,221.9z"/>
	<path class="st14" d="M343.5,214.9c1,0.7,1.3,2,0.6,3.1c-0.7,1-2,1.3-3,0.6c-1-0.7-1.3-2-0.6-3.1
		C341.2,214.5,342.5,214.2,343.5,214.9z"/>
	<path class="st14" d="M339.2,209.9c1.2,0.8,1.6,2.5,0.7,3.8s-2.5,1.6-3.7,0.8c-1.2-0.8-1.6-2.5-0.7-3.8
		C336.4,209.4,338,209,339.2,209.9z"/>
	<ellipse class="st14" cx="181.3" cy="106.7" rx="4.9" ry="5.1"/>
	<ellipse class="st14" cx="166.2" cy="107.8" rx="3.3" ry="3.4"/>
	<path class="st14" d="M171.5,117.9c0,1.7-1.3,3.1-3,3.1s-3-1.4-3-3.1s1.3-3.1,3-3.1C170.2,114.9,171.5,116.3,171.5,117.9z"/>
	<ellipse class="st14" cx="165.9" cy="125.2" rx="1.9" ry="1.9"/>
	<path class="st14" d="M157.2,125.2c0.8,0.2,1.2,1.1,1,1.8c-0.2,0.8-1,1.3-1.8,1s-1.2-1.1-1-1.8C155.6,125.4,156.4,125,157.2,125.2z
		"/>
	<path class="st14" d="M318.4,115.3c0,2.8-2.2,5.1-5,5.1s-5-2.3-5-5.1s2.2-5.1,5-5.1S318.4,112.6,318.4,115.3z"/>
	<path class="st14" d="M321.9,101.6c0,2.1-1.6,3.7-3.6,3.7s-3.6-1.7-3.6-3.7c0-2.1,1.6-3.7,3.6-3.7
		C320.3,97.9,321.9,99.6,321.9,101.6z"/>
	<ellipse class="st14" cx="328.4" cy="97.1" rx="2.6" ry="2.6"/>
	<ellipse class="st14" cx="336.6" cy="97.9" rx="1.8" ry="1.8"/>
	<path class="st14" d="M341.7,92.3c0,0.5-0.4,1-0.9,1s-0.9-0.4-0.9-1s0.4-1,0.9-1S341.7,91.8,341.7,92.3z"/>
</g>
<g id="laptop-top">
	<g>
		<g>
			<g>
				<g>
					<g>
						
							<linearGradient id="SVGID_9_" gradientUnits="userSpaceOnUse" x1="-8441.7822" y1="335.5325" x2="-8217.8809" y2="335.5325" gradientTransform="matrix(-1 0 0 -1 -8090.8618 570)">
							<stop  offset="0" style="stop-color:#C0BFF6"/>
							<stop  offset="0.2938" style="stop-color:#C5C4F7"/>
							<stop  offset="0.6399" style="stop-color:#D3D2F9"/>
							<stop  offset="1" style="stop-color:#E9E9FD"/>
						</linearGradient>
						<path class="st15" d="M127.1,248.7l24.3-147.1l-1.9-0.8l2.9-1.7v0c0.6-0.4,1.4-0.4,2.3,0.2l193.8,114.4c1.6,0.9,2.8,3.4,2.5,5
							l-24.4,148.3c-0.1,0.8-0.5,1.3-1,1.5l0,0l-2.9,1.7l-0.5-2.7l0.2,0L129.6,253.7C128,252.8,126.8,250.4,127.1,248.7z"/>
						
							<linearGradient id="SVGID_10_" gradientUnits="userSpaceOnUse" x1="-8441.7695" y1="276.825" x2="-8403.3223" y2="276.825" gradientTransform="matrix(-1 0 0 -1 -8090.8618 570)">
							<stop  offset="0" style="stop-color:#5761D7"/>
							<stop  offset="0.1779" style="stop-color:#5C66D9"/>
							<stop  offset="0.3876" style="stop-color:#6A73DF"/>
							<stop  offset="0.6134" style="stop-color:#8289E8"/>
							<stop  offset="0.849" style="stop-color:#A3A7F5"/>
							<stop  offset="1" style="stop-color:#BCBEFF"/>
						</linearGradient>
						<path class="st16" d="M347.3,217.6l3.2-1.4c0.4,0.8,0.5,1.7,0.4,2.4l-24.4,148.3c-0.1,0.8-0.5,1.3-1,1.5l0,0l-2.9,1.7
							l-0.5-2.7l0.2,0l-9.8-5.8L347.3,217.6z"/>
						<path class="st17" d="M126.5,255.5l193.8,114.4c1.5,0.9,2.8,0.4,3-1.2l24.4-148.3c0.3-1.7-0.9-4.1-2.5-5L151.5,101
							c-1.5-0.9-2.8-0.4-3,1.2L124,250.5C123.7,252.2,124.9,254.6,126.5,255.5z"/>
						<g class="st18">
							<polygon class="st19" points="150.9,103.8 345.6,218.7 321,367.3 126.4,252.5 							"/>
						</g>
					</g>
					<g>
						
							<linearGradient id="SVGID_11_" gradientUnits="userSpaceOnUse" x1="-8411.7822" y1="212.775" x2="-8095.5718" y2="212.775" gradientTransform="matrix(-1 0 0 -1 -8090.8618 570)">
							<stop  offset="0" style="stop-color:#5761D7"/>
							<stop  offset="0.1779" style="stop-color:#5C66D9"/>
							<stop  offset="0.3876" style="stop-color:#6A73DF"/>
							<stop  offset="0.6134" style="stop-color:#8289E8"/>
							<stop  offset="0.849" style="stop-color:#A3A7F5"/>
							<stop  offset="1" style="stop-color:#BCBEFF"/>
						</linearGradient>
						<path class="st20" d="M4.7,325.7l10.6,5.6l106.1-62.6c1.8-1,4.9-0.9,6.9,0.3l182.9,108c1.8-1,9.7-4.9,9.7-4.9l-3.9,6.4
							c0,0,0,0,0,0c-0.2,0.5-0.5,0.9-1.1,1.2l-111.7,65.9c-1.8,1-4.9,0.9-6.9-0.3L10.1,334.9c-0.8-0.5-1.4-1.1-1.6-1.7l0,0
							L4.7,325.7z"/>
						
							<linearGradient id="SVGID_12_" gradientUnits="userSpaceOnUse" x1="-8305.5293" y1="221.605" x2="-7989.1528" y2="221.605" gradientTransform="matrix(-1 0 0 -1 -8090.8618 570)">
							<stop  offset="0" style="stop-color:#C0BFF6"/>
							<stop  offset="0.2938" style="stop-color:#C5C4F7"/>
							<stop  offset="0.6399" style="stop-color:#D3D2F9"/>
							<stop  offset="1" style="stop-color:#E9E9FD"/>
						</linearGradient>
						<path class="st21" d="M6.3,327.5l191.8,113.3c2.1,1.2,5.3,1.4,7.1,0.3l114.5-67.6c1.8-1.1,1.6-3-0.5-4.2L127.4,256
							c-2.1-1.2-5.3-1.4-7.1-0.3L5.8,323.3C4,324.4,4.2,326.3,6.3,327.5z"/>
						<path class="st7" d="M6.3,326.6l191.8,113.3c2.1,1.2,5.3,1.4,7.1,0.3l114.5-67.6c0.6-0.4,1-0.9,1.1-1.4
							c0.2,0.8-0.2,1.7-1.1,2.3L205.3,441c-1.8,1.1-5,0.9-7.1-0.3L6.3,327.5c-1.4-0.8-1.9-1.9-1.7-2.8
							C4.8,325.4,5.4,326.1,6.3,326.6z"/>
					</g>
				</g>
				<g class="st22">
					<g>
						<defs>
							<polygon id="SVGID_13_" points="345.6,218.7 150.9,103.8 126.4,252.5 321,367.3 							"/>
						</defs>
						<clipPath id="SVGID_14_">
							<use xlink:href="#SVGID_13_"  style="overflow:visible;"/>
						</clipPath>
						<g class="st23">
							<g>
								
									<linearGradient id="SVGID_15_" gradientUnits="userSpaceOnUse" x1="-8533.3721" y1="283.925" x2="-8217.1621" y2="283.925" gradientTransform="matrix(-1 0 0 -1 -8090.8618 570)">
									<stop  offset="0" style="stop-color:#5761D7"/>
									<stop  offset="0.1779" style="stop-color:#5C66D9"/>
									<stop  offset="0.3876" style="stop-color:#6A73DF"/>
									<stop  offset="0.6134" style="stop-color:#8289E8"/>
									<stop  offset="0.849" style="stop-color:#A3A7F5"/>
									<stop  offset="1" style="stop-color:#BCBEFF"/>
								</linearGradient>
								<path class="st24" d="M126.3,254.6l10.6,5.6l106.1-62.6c1.8-1.1,4.9-0.9,6.9,0.3l182.9,108c1.8-1,9.7-4.9,9.7-4.9l-3.9,6.4
									c0,0,0,0,0,0c-0.2,0.5-0.5,0.9-1.1,1.2l-111.7,65.9c-1.8,1-4.9,0.9-6.9-0.3L131.7,263.8c-0.8-0.5-1.4-1.1-1.6-1.7l0,0
									L126.3,254.6z"/>
								
									<linearGradient id="SVGID_16_" gradientUnits="userSpaceOnUse" x1="-8427.1211" y1="292.76" x2="-8110.75" y2="292.76" gradientTransform="matrix(-1 0 0 -1 -8090.8618 570)">
									<stop  offset="0" style="stop-color:#C0BFF6"/>
									<stop  offset="0.2938" style="stop-color:#C5C4F7"/>
									<stop  offset="0.6399" style="stop-color:#D3D2F9"/>
									<stop  offset="1" style="stop-color:#E9E9FD"/>
								</linearGradient>
								<path class="st25" d="M127.9,256.4l191.8,113.3c2.1,1.2,5.3,1.4,7.1,0.3l114.5-67.6c1.8-1.1,1.6-3-0.5-4.2L249,184.9
									c-2.1-1.2-5.3-1.4-7.1-0.3l-114.5,67.6C125.6,253.2,125.8,255.1,127.9,256.4z"/>
								<path class="st7" d="M440.8,298.1L249,184.9c-1.4-0.8-3.1-1.1-4.7-1c1.2,0.1,2.4,0.4,3.3,1l191.8,113.3
									c2.1,1.2,2.3,3.1,0.5,4.2l-114.5,67.6c-0.6,0.4-1.5,0.6-2.4,0.7c1.4,0.1,2.8-0.1,3.8-0.7l114.5-67.6
									C443.2,301.2,442.9,299.4,440.8,298.1z"/>
							</g>
							<g class="st26">
								<path class="st17" d="M228.4,236.9l-6.1-3.6c-0.5-0.3-1.3-0.3-1.9,0.1l-6.8,4.1c-0.5,0.3-0.6,0.8-0.1,1.1l6.1,3.6
									c0.5,0.3,1.3,0.3,1.9-0.1l6.8-4.1C228.9,237.6,228.9,237.1,228.4,236.9z"/>
								<path class="st17" d="M237.9,242.5l-6.1-3.6c-0.5-0.3-1.3-0.3-1.9,0.1l-6.8,4.1c-0.5,0.3-0.6,0.8-0.1,1.1l6.1,3.6
									c0.5,0.3,1.3,0.3,1.9-0.1l6.8-4.1C238.4,243.2,238.4,242.8,237.9,242.5z"/>
								<path class="st17" d="M247.4,248.1l-6.1-3.6c-0.5-0.3-1.3-0.3-1.9,0.1l-6.8,4.1c-0.5,0.3-0.6,0.8-0.1,1.1l6.1,3.6
									c0.5,0.3,1.3,0.3,1.9-0.1l6.8-4.1C247.9,248.9,247.9,248.4,247.4,248.1z"/>
								<path class="st17" d="M240.2,255.5l-6.1-3.6c-0.5-0.3-1.3-0.3-1.9,0.1l-5.7,3.4c-0.5,0.3-0.6,0.8-0.1,1.1l6.1,3.6
									c0.5,0.3,1.3,0.3,1.9,0l5.7-3.4C240.6,256.3,240.7,255.8,240.2,255.5z"/>
								<path class="st17" d="M249.7,261.1l-6.1-3.6c-0.5-0.3-1.3-0.3-1.9,0l-5.7,3.4c-0.5,0.3-0.6,0.8-0.1,1.1l6.1,3.6
									c0.5,0.3,1.3,0.3,1.9,0l5.7-3.4C250.1,261.9,250.2,261.4,249.7,261.1z"/>
								<path class="st17" d="M259.2,266.7l-6.1-3.6c-0.5-0.3-1.3-0.3-1.9,0l-5.7,3.4c-0.5,0.3-0.6,0.8-0.1,1.1l6.1,3.6
									c0.5,0.3,1.3,0.3,1.9,0l5.7-3.4C259.6,267.5,259.7,267,259.2,266.7z"/>
								<path class="st17" d="M268.7,272.3l-6.1-3.6c-0.5-0.3-1.3-0.3-1.9,0l-5.7,3.4c-0.5,0.3-0.6,0.8-0.1,1.1l6.1,3.6
									c0.5,0.3,1.3,0.3,1.9,0l5.7-3.4C269.1,273.1,269.2,272.6,268.7,272.3z"/>
								<path class="st17" d="M278.2,278l-6.1-3.6c-0.5-0.3-1.3-0.3-1.9,0l-5.7,3.4c-0.5,0.3-0.6,0.8-0.1,1.1l6.1,3.6
									c0.5,0.3,1.3,0.3,1.9,0l5.7-3.4C278.6,278.7,278.7,278.2,278.2,278z"/>
								<path class="st17" d="M287.7,283.5l-6.1-3.6c-0.5-0.3-1.3-0.3-1.9,0l-5.7,3.4c-0.5,0.3-0.6,0.8-0.1,1.1l6.1,3.6
									c0.5,0.3,1.3,0.3,1.9,0l5.7-3.4C288.1,284.3,288.2,283.9,287.7,283.5z"/>
								<path class="st17" d="M297.2,289.2l-6.1-3.6c-0.5-0.3-1.3-0.3-1.9,0l-5.7,3.4c-0.5,0.3-0.6,0.8-0.1,1.1l6.1,3.6
									c0.5,0.3,1.3,0.3,1.9,0l5.7-3.4C297.6,290,297.6,289.5,297.2,289.2z"/>
								<path class="st17" d="M306.7,294.8l-6.1-3.6c-0.5-0.3-1.3-0.3-1.9,0l-5.7,3.4c-0.5,0.3-0.6,0.8-0.1,1.1l6.1,3.6
									c0.5,0.3,1.3,0.3,1.9,0l5.7-3.4C307.1,295.5,307.1,295.1,306.7,294.8z"/>
								<path class="st17" d="M316.1,300.4l-6.1-3.6c-0.5-0.3-1.3-0.3-1.9,0l-5.7,3.4c-0.5,0.3-0.6,0.8-0.1,1.1l6.1,3.6
									c0.5,0.3,1.3,0.3,1.9,0l5.7-3.4C316.6,301.2,316.6,300.7,316.1,300.4z"/>
								<path class="st17" d="M325.6,306l-6.1-3.6c-0.5-0.3-1.3-0.3-1.9,0l-5.7,3.4c-0.5,0.3-0.6,0.8-0.1,1.1l6.1,3.6
									c0.5,0.3,1.3,0.3,1.9,0l5.7-3.4C326.1,306.8,326.1,306.3,325.6,306z"/>
								<path class="st17" d="M236.2,263.5l-6.1-3.6c-0.5-0.3-1.3-0.3-1.9,0l-5.7,3.4c-0.5,0.3-0.6,0.8-0.1,1.1l6.1,3.6
									c0.5,0.3,1.3,0.3,1.9,0l5.7-3.4C236.7,264.3,236.7,263.8,236.2,263.5z"/>
								<path class="st17" d="M226.6,257.8l-6.1-3.6c-0.5-0.3-1.3-0.3-1.9,0.1l-5.7,3.4c-0.5,0.3-0.6,0.8-0.1,1.1l6.1,3.6
									c0.5,0.3,1.3,0.3,1.9,0l5.7-3.4C227.1,258.6,227.1,258.1,226.6,257.8z"/>
								<path class="st17" d="M216.9,252.1l-13.2-7.8c-0.5-0.3-1.3-0.3-1.9,0.1l-5.7,3.4c-0.5,0.3-0.6,0.8-0.1,1.1l13.2,7.8
									c0.5,0.3,1.3,0.3,1.9,0l5.7-3.4C217.4,252.9,217.4,252.4,216.9,252.1z"/>
								<path class="st17" d="M205.7,255.9l-10.8-6.3c-0.5-0.3-1.3-0.3-1.9,0.1l-5.7,3.4c-0.5,0.3-0.6,0.8-0.1,1.1l10.8,6.3
									c0.5,0.3,1.3,0.3,1.9,0l5.7-3.4C206.2,256.6,206.2,256.2,205.7,255.9z"/>
								<path class="st17" d="M245.7,269.1l-6.1-3.6c-0.5-0.3-1.3-0.3-1.9,0L232,269c-0.5,0.3-0.6,0.8-0.1,1.1l6.1,3.6
									c0.5,0.3,1.3,0.3,1.9,0l5.7-3.4C246.2,269.9,246.2,269.4,245.7,269.1z"/>
								<path class="st17" d="M255.2,274.7l-6.1-3.6c-0.5-0.3-1.3-0.3-1.9,0l-5.7,3.4c-0.5,0.3-0.6,0.8-0.1,1.1l6.1,3.6
									c0.5,0.3,1.3,0.3,1.9,0l5.7-3.4C255.7,275.5,255.7,275,255.2,274.7z"/>
								<path class="st17" d="M264.7,280.3l-6.1-3.6c-0.5-0.3-1.3-0.3-1.9,0l-5.7,3.4c-0.5,0.3-0.6,0.8-0.1,1.1l6.1,3.6
									c0.5,0.3,1.3,0.3,1.9,0l5.7-3.4C265.2,281.1,265.2,280.6,264.7,280.3z"/>
								<path class="st17" d="M274.2,286l-6.1-3.6c-0.5-0.3-1.3-0.3-1.9,0l-5.7,3.4c-0.5,0.3-0.6,0.8-0.1,1.1l6.1,3.6
									c0.5,0.3,1.3,0.3,1.9,0l5.7-3.4C274.7,286.7,274.7,286.2,274.2,286z"/>
								<path class="st17" d="M283.7,291.6l-6.1-3.6c-0.5-0.3-1.3-0.3-1.9,0l-5.7,3.4c-0.5,0.3-0.6,0.8-0.1,1.1l6.1,3.6
									c0.5,0.3,1.3,0.3,1.9,0l5.7-3.4C284.2,292.3,284.2,291.9,283.7,291.6z"/>
								<path class="st17" d="M293.2,297.2l-6.1-3.6c-0.5-0.3-1.3-0.3-1.9,0l-5.7,3.4c-0.5,0.3-0.6,0.8-0.1,1.1l6.1,3.6
									c0.5,0.3,1.3,0.3,1.9,0l5.7-3.4C293.7,298,293.7,297.5,293.2,297.2z"/>
								<path class="st17" d="M302.7,302.8l-6.1-3.6c-0.5-0.3-1.3-0.3-1.9,0l-5.7,3.4c-0.5,0.3-0.6,0.8-0.1,1.1l6.1,3.6
									c0.5,0.3,1.3,0.3,1.9,0l5.7-3.4C303.2,303.6,303.2,303.1,302.7,302.8z"/>
								<path class="st17" d="M312.2,308.4l-6.1-3.6c-0.5-0.3-1.3-0.3-1.9,0l-5.7,3.4c-0.5,0.3-0.6,0.8-0.1,1.1l6.1,3.6
									c0.5,0.3,1.3,0.3,1.9,0l5.7-3.4C312.7,309.2,312.7,308.7,312.2,308.4z"/>
								<path class="st17" d="M321.7,314l-6.1-3.6c-0.5-0.3-1.3-0.3-1.9,0l-5.7,3.4c-0.5,0.3-0.6,0.8-0.1,1.1l6.1,3.6
									c0.5,0.3,1.3,0.3,1.9,0l5.7-3.4C322.1,314.8,322.2,314.3,321.7,314z"/>
								<path class="st17" d="M338.6,324l-13.4-7.9c-0.5-0.3-1.3-0.3-1.9,0l-5.7,3.4c-0.5,0.3-0.6,0.8-0.1,1.1l13.4,7.9
									c0.5,0.3,1.3,0.3,1.9,0l5.7-3.4C339,324.7,339.1,324.2,338.6,324z"/>
								<path class="st17" d="M321.2,334.4l-11.3-6.7c-0.5-0.3-1.3-0.3-1.9,0l-5.7,3.4c-0.5,0.3-0.6,0.8-0.1,1.1l11.3,6.7
									c0.5,0.3,1.3,0.3,1.9,0l5.7-3.4C321.6,335.1,321.7,334.6,321.2,334.4z"/>
								<path class="st17" d="M244.4,278.7l-6.1-3.6c-0.5-0.3-1.3-0.3-1.9,0l-5.7,3.4c-0.5,0.3-0.6,0.8-0.1,1.1l6.1,3.6
									c0.5,0.3,1.3,0.3,1.9,0l5.7-3.4C244.9,279.5,244.9,279,244.4,278.7z"/>
								<path class="st17" d="M234.7,273l-6.1-3.6c-0.5-0.3-1.3-0.3-1.9,0l-5.7,3.4c-0.5,0.3-0.6,0.8-0.1,1.1l6.1,3.6
									c0.5,0.3,1.3,0.3,1.9,0l5.7-3.4C235.1,273.7,235.2,273.2,234.7,273z"/>
								<path class="st17" d="M224.9,267.2l-6.1-3.6c-0.5-0.3-1.3-0.3-1.9,0l-5.7,3.4c-0.5,0.3-0.6,0.8-0.1,1.1l6.1,3.6
									c0.5,0.3,1.3,0.3,1.9,0l5.7-3.4C225.4,268,225.4,267.5,224.9,267.2z"/>
								<path class="st17" d="M215.2,261.5l-6.1-3.6c-0.5-0.3-1.3-0.3-1.9,0l-5.7,3.4c-0.5,0.3-0.6,0.8-0.1,1.1l6.1,3.6
									c0.5,0.3,1.3,0.3,1.9,0l5.7-3.4C215.7,262.2,215.7,261.8,215.2,261.5z"/>
								<path class="st17" d="M253.9,284.3l-6.1-3.6c-0.5-0.3-1.3-0.3-1.9,0l-5.7,3.4c-0.5,0.3-0.6,0.8-0.1,1.1l6.1,3.6
									c0.5,0.3,1.3,0.3,1.9,0l5.7-3.4C254.4,285.1,254.4,284.6,253.9,284.3z"/>
								<path class="st17" d="M263.4,289.9l-6.1-3.6c-0.5-0.3-1.3-0.3-1.9,0l-5.7,3.4c-0.5,0.3-0.6,0.8-0.1,1.1l6.1,3.6
									c0.5,0.3,1.3,0.3,1.9,0l5.7-3.4C263.9,290.7,263.9,290.2,263.4,289.9z"/>
								<path class="st17" d="M272.9,295.5l-6.1-3.6c-0.5-0.3-1.3-0.3-1.9,0l-5.7,3.4c-0.5,0.3-0.6,0.8-0.1,1.1l6.1,3.6
									c0.5,0.3,1.3,0.3,1.9,0l5.7-3.4C273.4,296.3,273.4,295.8,272.9,295.5z"/>
								<path class="st17" d="M282.4,301.1l-6.1-3.6c-0.5-0.3-1.3-0.3-1.9,0l-5.7,3.4c-0.5,0.3-0.6,0.8-0.1,1.1l6.1,3.6
									c0.5,0.3,1.3,0.3,1.9,0l5.7-3.4C282.9,301.9,282.9,301.4,282.4,301.1z"/>
								<path class="st17" d="M291.9,306.7l-6.1-3.6c-0.5-0.3-1.3-0.3-1.9,0l-5.7,3.4c-0.5,0.3-0.6,0.8-0.1,1.1l6.1,3.6
									c0.5,0.3,1.3,0.3,1.9,0l5.7-3.4C292.3,307.5,292.4,307,291.9,306.7z"/>
								<path class="st17" d="M301.4,312.3l-6.1-3.6c-0.5-0.3-1.3-0.3-1.9,0l-5.7,3.4c-0.5,0.3-0.6,0.8-0.1,1.1l6.1,3.6
									c0.5,0.3,1.3,0.3,1.9,0l5.7-3.4C301.8,313.1,301.9,312.6,301.4,312.3z"/>
								<path class="st17" d="M310.9,317.9l-6.1-3.6c-0.5-0.3-1.3-0.3-1.9,0l-5.7,3.4c-0.5,0.3-0.6,0.8-0.1,1.1l6.1,3.6
									c0.5,0.3,1.3,0.3,1.9,0l5.7-3.4C311.3,318.7,311.4,318.2,310.9,317.9z"/>
								<path class="st17" d="M320.4,323.5l-6.1-3.6c-0.5-0.3-1.3-0.3-1.9,0l-5.7,3.4c-0.5,0.3-0.6,0.8-0.1,1.1l6.1,3.6
									c0.5,0.3,1.3,0.3,1.9,0l5.7-3.4C320.8,324.3,320.9,323.8,320.4,323.5z"/>
								<path class="st17" d="M329.9,329.1l-6.1-3.6c-0.5-0.3-1.3-0.3-1.9,0l-5.7,3.4c-0.5,0.3-0.6,0.8-0.1,1.1l6.1,3.6
									c0.5,0.3,1.3,0.3,1.9,0l5.7-3.4C330.3,329.9,330.4,329.4,329.9,329.1z"/>
								<path class="st17" d="M221.5,275.5l-6.1-3.6c-0.5-0.3-1.3-0.3-1.9,0l-5.7,3.4c-0.5,0.3-0.6,0.8-0.1,1.1l6.1,3.6
									c0.5,0.3,1.3,0.3,1.9,0l5.7-3.4C221.9,276.3,221.9,275.8,221.5,275.5z"/>
								<path class="st17" d="M212,269.9l-6.1-3.6c-0.5-0.3-1.3-0.3-1.9,0l-5.7,3.4c-0.5,0.3-0.6,0.8-0.1,1.1l6.1,3.6
									c0.5,0.3,1.3,0.3,1.9,0l5.7-3.4C212.5,270.7,212.5,270.2,212,269.9z"/>
								<path class="st17" d="M202.6,264.3l-6.1-3.6c-0.5-0.3-1.3-0.3-1.9,0l-5.7,3.4c-0.5,0.3-0.6,0.8-0.1,1.1l6.1,3.6
									c0.5,0.3,1.3,0.3,1.9,0l5.7-3.4C203,265.1,203.1,264.6,202.6,264.3z"/>
								<path class="st17" d="M193.1,258.8l-6.1-3.6c-0.5-0.3-1.3-0.3-1.9,0.1l-5.7,3.4c-0.5,0.3-0.6,0.8-0.1,1.1l6.1,3.6
									c0.5,0.3,1.3,0.3,1.9,0l5.7-3.4C193.6,259.5,193.6,259,193.1,258.8z"/>
								<path class="st17" d="M184,264.2l-6.1-3.6c-0.5-0.3-1.3-0.3-1.9,0l-1.9,1.1c-0.5,0.3-0.6,0.8-0.1,1.1l6.1,3.6
									c0.5,0.3,1.3,0.3,1.9,0l1.9-1.1C184.4,265,184.4,264.5,184,264.2z"/>
								<path class="st17" d="M196.3,271.5l-6.1-3.6c-0.5-0.3-1.3-0.3-1.9,0l-1.9,1.1c-0.5,0.3-0.6,0.8-0.1,1.1l6.1,3.6
									c0.5,0.3,1.3,0.3,1.9,0l1.9-1.1C196.8,272.3,196.8,271.8,196.3,271.5z"/>
								<path class="st17" d="M205.7,277l-6.1-3.6c-0.5-0.3-1.3-0.3-1.9,0l-1.9,1.1c-0.5,0.3-0.6,0.8-0.1,1.1l6.1,3.6
									c0.5,0.3,1.3,0.3,1.9,0l1.9-1.1C206.2,277.8,206.2,277.3,205.7,277z"/>
								<path class="st17" d="M215.1,282.6L209,279c-0.5-0.3-1.3-0.3-1.9,0l-1.9,1.1c-0.5,0.3-0.6,0.8-0.1,1.1l6.1,3.6
									c0.5,0.3,1.3,0.3,1.9,0l1.9-1.1C215.6,283.4,215.6,282.9,215.1,282.6z"/>
								<path class="st17" d="M224.5,288.2l-6.1-3.6c-0.5-0.3-1.3-0.3-1.9,0l-1.9,1.1c-0.5,0.3-0.6,0.8-0.1,1.1l6.1,3.6
									c0.5,0.3,1.3,0.3,1.9,0l1.9-1.1C225,289,225,288.5,224.5,288.2z"/>
								<path class="st17" d="M277,319.2l-6.1-3.6c-0.5-0.3-1.3-0.3-1.9,0l-1.9,1.1c-0.5,0.3-0.6,0.8-0.1,1.1l6.1,3.6
									c0.5,0.3,1.3,0.3,1.9,0l1.9-1.1C277.5,320,277.5,319.5,277,319.2z"/>
								<path class="st17" d="M286.5,324.7l-6.1-3.6c-0.5-0.3-1.3-0.3-1.9,0l-1.9,1.1c-0.5,0.3-0.6,0.8-0.1,1.1l6.1,3.6
									c0.5,0.3,1.3,0.3,1.9,0l1.9-1.1C286.9,325.5,287,325,286.5,324.7z"/>
								<path class="st17" d="M295.9,330.3l-6.1-3.6c-0.5-0.3-1.3-0.3-1.9,0l-1.9,1.1c-0.5,0.3-0.6,0.8-0.1,1.1l6.1,3.6
									c0.5,0.3,1.3,0.3,1.9,0l1.9-1.1C296.3,331.1,296.4,330.6,295.9,330.3z"/>
								<path class="st17" d="M305.3,335.8l-6.1-3.6c-0.5-0.3-1.3-0.3-1.9,0l-1.9,1.1c-0.5,0.3-0.6,0.8-0.1,1.1l6.1,3.6
									c0.5,0.3,1.3,0.3,1.9,0l1.9-1.1C305.7,336.6,305.8,336.1,305.3,335.8z"/>
								<path class="st17" d="M230.9,281.1l-6.1-3.6c-0.5-0.3-1.3-0.3-1.9,0l-5.7,3.4c-0.5,0.3-0.6,0.8-0.1,1.1l6.1,3.6
									c0.5,0.3,1.3,0.3,1.9,0l5.7-3.4C231.4,281.9,231.4,281.4,230.9,281.1z"/>
								<path class="st17" d="M240.4,286.7l-6.1-3.6c-0.5-0.3-1.3-0.3-1.9,0l-5.7,3.4c-0.5,0.3-0.6,0.8-0.1,1.1l6.1,3.6
									c0.5,0.3,1.3,0.3,1.9,0l5.7-3.4C240.9,287.5,240.9,287,240.4,286.7z"/>
								<path class="st17" d="M249.9,292.3l-6.1-3.6c-0.5-0.3-1.3-0.3-1.9,0l-5.7,3.4c-0.5,0.3-0.6,0.8-0.1,1.1l6.1,3.6
									c0.5,0.3,1.3,0.3,1.9,0l5.7-3.4C250.4,293.1,250.4,292.6,249.9,292.3z"/>
								<path class="st17" d="M259.4,297.9l-6.1-3.6c-0.5-0.3-1.3-0.3-1.9,0l-5.7,3.4c-0.5,0.3-0.6,0.8-0.1,1.1l6.1,3.6
									c0.5,0.3,1.3,0.3,1.9,0l5.7-3.4C259.9,298.7,259.9,298.2,259.4,297.9z"/>
								<path class="st17" d="M268.9,303.5l-6.1-3.6c-0.5-0.3-1.3-0.3-1.9,0l-5.7,3.4c-0.5,0.3-0.6,0.8-0.1,1.1l6.1,3.6
									c0.5,0.3,1.3,0.3,1.9,0l5.7-3.4C269.4,304.3,269.4,303.8,268.9,303.5z"/>
								<path class="st17" d="M278.4,309.1l-6.1-3.6c-0.5-0.3-1.3-0.3-1.9,0l-5.7,3.4c-0.5,0.3-0.6,0.8-0.1,1.1l6.1,3.6
									c0.5,0.3,1.3,0.3,1.9,0l5.7-3.4C278.9,309.9,278.9,309.4,278.4,309.1z"/>
								<path class="st17" d="M287.9,314.7l-6.1-3.6c-0.5-0.3-1.3-0.3-1.9,0l-5.7,3.4c-0.5,0.3-0.6,0.8-0.1,1.1l6.1,3.6
									c0.5,0.3,1.3,0.3,1.9,0l5.7-3.4C288.4,315.5,288.4,315,287.9,314.7z"/>
								<path class="st17" d="M297.4,320.3l-6.1-3.6c-0.5-0.3-1.3-0.3-1.9,0l-5.7,3.4c-0.5,0.3-0.6,0.8-0.1,1.1l6.1,3.6
									c0.5,0.3,1.3,0.3,1.9,0l5.7-3.4C297.9,321.1,297.9,320.6,297.4,320.3z"/>
								<path class="st17" d="M306.9,325.9l-6.1-3.6c-0.5-0.3-1.3-0.3-1.9,0l-5.7,3.4c-0.5,0.3-0.6,0.8-0.1,1.1l6.1,3.6
									c0.5,0.3,1.3,0.3,1.9,0l5.7-3.4C307.4,326.7,307.4,326.2,306.9,325.9z"/>
								<path class="st17" d="M230.5,249.8l-18.1-10.7c-0.5-0.3-1.3-0.3-1.9,0.1l-5.7,3.4c-0.5,0.3-0.6,0.8-0.1,1.1l18.1,10.7
									c0.5,0.3,1.3,0.3,1.9-0.1l5.7-3.4C231,250.6,231,250.1,230.5,249.8z"/>
								<path class="st17" d="M347.2,318.7L329.1,308c-0.5-0.3-1.3-0.3-1.9,0l-5.7,3.4c-0.5,0.3-0.6,0.8-0.1,1.1l18.1,10.7
									c0.5,0.3,1.3,0.3,1.9,0l5.7-3.4C347.6,319.5,347.7,319,347.2,318.7z"/>
								<path class="st17" d="M329.6,296.6l-6.1-3.6c-0.5-0.3-1.3-0.3-1.9,0l-6.8,4.1c-0.5,0.3-0.6,0.8-0.1,1.1l6.1,3.6
									c0.5,0.3,1.3,0.3,1.9,0l6.8-4.1C330,297.3,330,296.9,329.6,296.6z"/>
								<path class="st17" d="M260.6,255.8l-9.8-5.8c-0.5-0.3-1.3-0.3-1.9,0.1l-6.8,4.1c-0.5,0.3-0.6,0.8-0.1,1.1l9.8,5.8
									c0.5,0.3,1.3,0.3,1.9,0l6.8-4.1C261,256.6,261.1,256.1,260.6,255.8z"/>
								<path class="st17" d="M320.4,291.1l-9.8-5.8c-0.5-0.3-1.3-0.3-1.9,0l-6.8,4.1c-0.5,0.3-0.6,0.8-0.1,1.1l9.8,5.8
									c0.5,0.3,1.3,0.3,1.9,0l6.8-4.1C320.9,291.9,320.9,291.5,320.4,291.1z"/>
								<path class="st17" d="M274.3,263.9l-9.8-5.8c-0.5-0.3-1.3-0.3-1.9,0l-6.8,4.1c-0.5,0.3-0.6,0.8-0.1,1.1l9.8,5.8
									c0.5,0.3,1.3,0.3,1.9,0l6.8-4.1C274.8,264.7,274.8,264.2,274.3,263.9z"/>
								<path class="st17" d="M255.8,263.4l42.8,25.2c0.5,0.3,1.4,0.3,1.9,0l7-4.2c0.5-0.3,0.5-0.8-0.1-1.1l-42.8-25.2L255.8,263.4z
									"/>
								<path class="st17" d="M347,312.1l6.9,4c0.4,0.2,1.1,0.2,1.5,0l2.8-1.7c0.4-0.3,0.5-0.7,0.1-0.9l-6.9-4
									c-0.4-0.2-1.1-0.2-1.5,0l-2.8,1.7C346.7,311.5,346.6,311.9,347,312.1z"/>
								<path class="st17" d="M337.5,306.4l6.9,4c0.4,0.2,1.1,0.2,1.5,0l2.8-1.7c0.4-0.3,0.5-0.7,0.1-0.9l-6.9-4
									c-0.4-0.2-1.1-0.2-1.5,0l-2.8,1.7C337.1,305.8,337.1,306.2,337.5,306.4z"/>
								<path class="st17" d="M328,300.8l6.9,4c0.4,0.2,1.1,0.2,1.5,0l2.8-1.7c0.4-0.3,0.5-0.7,0.1-0.9l-6.9-4
									c-0.4-0.2-1.1-0.2-1.5,0l-2.8,1.7C327.6,300.2,327.6,300.6,328,300.8z"/>
								<path class="st17" d="M332.5,309.4l6.9,4c0.4,0.2,1.1,0.2,1.5,0l2.8-1.7c0.4-0.3,0.5-0.7,0.1-0.9l-6.9-4
									c-0.4-0.2-1.1-0.2-1.5,0l-2.8,1.7C332.2,308.7,332.1,309.1,332.5,309.4z"/>
							</g>
						</g>
					</g>
				</g>
			</g>
		</g>
	</g>
</g>
<g id="laptop-grphx">
	<g>
		<polygon class="st1" points="175.7,161.5 165.8,155.6 166.1,153.3 176.1,159.1 		"/>
		<polygon class="st1" points="184.1,166.5 179.2,163.6 179.6,161.2 184.5,164.1 		"/>
		<polygon class="st1" points="177.7,168.7 173.5,166.2 173.9,163.9 178.1,166.4 		"/>
		<polygon class="st1" points="184.8,172.9 179.8,170 180.2,167.6 185.2,170.6 		"/>
		<polygon class="st1" points="192.1,183.2 172.6,171.7 173,169.4 192.4,180.9 		"/>
		<polygon class="st1" points="175.2,229.2 155.7,217.7 156.1,215.4 175.6,226.9 		"/>
		<polygon class="st1" points="182.7,233.6 177.7,230.7 178.1,228.4 183,231.3 		"/>
		<polygon class="st1" points="175.9,179.7 171.7,177.2 172.1,174.9 176.3,177.4 		"/>
		<polygon class="st1" points="183,183.9 178,180.9 178.4,178.6 183.4,181.5 		"/>
		<polygon class="st1" points="181.5,189 170.8,182.7 171.2,180.4 181.9,186.7 		"/>
		<polygon class="st1" points="188.6,193.3 183.7,190.3 184.1,188 189,190.9 		"/>
		<polygon class="st1" points="195.9,197.5 190.9,194.6 191.3,192.2 196.2,195.2 		"/>
		<polygon class="st1" points="207.5,204.4 198.1,198.8 198.5,196.5 207.9,202 		"/>
		<polygon class="st1" points="200.1,212 195.1,209.1 195.5,206.8 200.4,209.7 		"/>
		<polygon class="st1" points="211.7,218.9 202.3,213.4 202.7,211 212.1,216.6 		"/>
		<polygon class="st1" points="173.9,196.6 169,193.7 169.4,191.4 174.3,194.3 		"/>
		<polygon class="st1" points="181.1,200.9 176.2,197.9 176.6,195.6 181.5,198.5 		"/>
		<polygon class="st1" points="192.8,207.7 183.4,202.2 183.8,199.9 193.1,205.4 		"/>
		<polygon class="st1" points="208,210.7 203,207.8 203.4,205.4 208.4,208.4 		"/>
		<polygon class="st1" points="215.2,214.9 210.2,212 210.6,209.7 215.6,212.6 		"/>
		<polygon class="st1" points="226.8,221.8 217.4,216.3 217.8,213.9 227.2,219.5 		"/>
		<polygon class="st1" points="190.4,238.2 185.5,235.3 185.8,232.9 190.8,235.9 		"/>
		<polygon class="st1" points="202,245.1 192.7,239.5 193.1,237.2 202.4,242.7 		"/>
		<polygon class="st1" points="172.1,207.6 167.2,204.7 167.6,202.3 172.5,205.3 		"/>
		<polygon class="st1" points="183.8,214.5 174.4,208.9 174.8,206.6 184.1,212.1 		"/>
		<polygon class="st1" points="195.8,247.4 190.9,244.5 191.2,242.1 196.2,245.1 		"/>
		<polygon class="st1" points="207.4,254.3 198.1,248.7 198.4,246.4 207.8,251.9 		"/>
		<polygon class="st1" points="206.9,192 201.9,189 202.3,186.7 207.3,189.6 		"/>
		<polygon class="st1" points="199.4,187.5 194.4,184.6 194.8,182.3 199.8,185.2 		"/>
		<polygon class="st1" points="218.5,198.8 209.1,193.3 209.5,190.9 218.9,196.5 		"/>
		<polygon class="st1" points="174.4,190.8 169.9,188.2 170.3,185.9 174.7,188.5 		"/>
		<polygon class="st1" points="187.6,198.7 176.7,192.3 177.1,189.9 188,196.3 		"/>
		<polygon class="st1" points="200.9,206.5 190,200.1 190.4,197.7 201.3,204.1 		"/>
		<polygon class="st1" points="225.4,202.9 220.9,200.3 221.3,197.9 225.8,200.6 		"/>
		<polygon class="st1" points="238.6,210.7 227.8,204.3 228.2,202 239,208.4 		"/>
		<polygon class="st1" points="251.9,218.6 241,212.1 241.4,209.8 252.3,216.2 		"/>
		<polygon class="st1" points="179,205.7 168.2,199.2 168.6,196.9 179.4,203.3 		"/>
		<polygon class="st1" points="184.8,209 181.4,207.1 181.8,204.7 185.1,206.7 		"/>
		<polygon class="st1" points="190.5,212.4 187.2,210.5 187.6,208.1 190.9,210.1 		"/>
		<polygon class="st1" points="201.1,218.7 192.9,213.9 193.3,211.5 201.5,216.4 		"/>
		<polygon class="st1" points="213,207.6 209.7,205.7 210.1,203.3 213.4,205.3 		"/>
		<polygon class="st1" points="223.6,213.9 215.4,209.1 215.8,206.7 224,211.6 		"/>
		<polygon class="st1" points="225.9,215.2 217.7,210.4 218,208 226.3,212.9 		"/>
		<polygon class="st1" points="182.1,245.4 171.4,239.1 171.8,236.7 182.5,243 		"/>
		<polygon class="st1" points="189.3,249.6 184.4,246.7 184.8,244.3 189.7,247.3 		"/>
		<polygon class="st1" points="196.5,253.9 191.6,250.9 191.9,248.6 196.9,251.5 		"/>
		<polygon class="st1" points="208.1,260.7 198.8,255.2 199.2,252.8 208.5,258.4 		"/>
		<polygon class="st1" points="215.6,265.1 210.6,262.2 211,259.8 216,262.8 		"/>
		<polygon class="st1" points="227.2,272 217.8,266.4 218.2,264.1 227.6,269.6 		"/>
		<polygon class="st1" points="191.6,263 186.6,260 187,257.7 191.9,260.6 		"/>
		<polygon class="st1" points="203.2,269.8 193.8,264.3 194.2,262 203.6,267.5 		"/>
		<polygon class="st1" points="165.7,247.7 160.7,244.8 161.1,242.4 166,245.4 		"/>
		<polygon class="st1" points="172.9,251.9 167.9,249 168.3,246.7 173.3,249.6 		"/>
		<polygon class="st1" points="184.5,258.8 175.1,253.3 175.5,250.9 184.9,256.5 		"/>
		<polygon class="st1" points="175,247.2 170.5,244.6 170.9,242.2 175.4,244.8 		"/>
		<polygon class="st1" points="188.3,255 177.4,248.6 177.8,246.3 188.7,252.7 		"/>
		<polygon class="st1" points="201.5,262.8 190.7,256.4 191.1,254.1 201.9,260.5 		"/>
		<polygon class="st1" points="162,251.6 151.1,245.1 151.5,242.8 162.4,249.2 		"/>
		<polygon class="st1" points="167.7,254.9 164.4,253 164.8,250.6 168.1,252.6 		"/>
		<polygon class="st1" points="173.5,258.3 170.1,256.4 170.5,254 173.9,256 		"/>
		<polygon class="st1" points="184.1,264.6 175.9,259.7 176.3,257.4 184.5,262.3 		"/>
		<polygon class="st1" points="186.3,265.9 178.1,261.1 178.5,258.7 186.7,263.6 		"/>
		<polygon class="st1" points="166.9,230.3 163.6,228.4 163.9,226 167.3,228 		"/>
		<polygon class="st1" points="177.5,236.6 169.3,231.8 169.7,229.4 177.9,234.3 		"/>
		<polygon class="st1" points="188.4,243 180.1,238.2 180.5,235.8 188.7,240.7 		"/>
		<polygon class="st1" points="230.1,279.7 225.2,276.8 225.6,274.5 230.5,277.4 		"/>
		<polygon class="st1" points="241.8,286.6 232.4,281.1 232.8,278.7 242.2,284.3 		"/>
		<polygon class="st1" points="211.9,268.9 203.6,264.1 204,261.7 212.2,266.6 		"/>
		<polygon class="st1" points="222.7,275.3 214.5,270.5 214.9,268.1 223.1,273 		"/>
		<polygon class="st1" points="161.1,207.1 157.8,205.1 158.1,202.8 161.5,204.8 		"/>
		<polygon class="st1" points="171.7,213.4 163.5,208.5 163.9,206.2 172.1,211 		"/>
		<polygon class="st1" points="182.6,219.8 174.3,214.9 174.7,212.6 182.9,217.4 		"/>
	</g>
	<g>
		<path class="st1" d="M312.7,225.9c-0.5,0-1-0.1-1.4-0.4c-1.5-0.9-2.3-2.8-2-4.3c0.2-0.7,0.6-1.3,1.2-1.6c0.7-0.3,1.5-0.2,2.3,0.2
			c1.4,0.9,2.3,2.8,2,4.3c-0.2,0.7-0.6,1.3-1.2,1.6C313.3,225.8,313,225.9,312.7,225.9z M311.3,220.1c-0.2,0-0.4,0-0.6,0.1
			c-0.4,0.2-0.7,0.6-0.8,1.1c-0.3,1.3,0.5,2.9,1.7,3.6c0.6,0.4,1.2,0.4,1.7,0.2c0.4-0.2,0.7-0.6,0.8-1.1c0.3-1.3-0.5-2.9-1.7-3.6
			C312,220.2,311.7,220.1,311.3,220.1z"/>
		<path class="st1" d="M320.5,230.4c-0.5,0-1-0.1-1.4-0.4c-1.4-0.9-2.3-2.8-2-4.3c0.2-0.7,0.6-1.3,1.2-1.6c0.7-0.3,1.5-0.2,2.3,0.2
			c1.4,0.9,2.3,2.8,2,4.3c-0.2,0.7-0.6,1.3-1.2,1.6C321,230.4,320.7,230.4,320.5,230.4z M319.1,224.7c-0.2,0-0.4,0-0.6,0.1
			c-0.4,0.2-0.7,0.6-0.8,1.1c-0.3,1.3,0.5,2.9,1.7,3.6c0.6,0.4,1.2,0.4,1.7,0.2c0.4-0.2,0.7-0.6,0.8-1.1l0,0
			c0.3-1.3-0.5-2.9-1.7-3.6C319.8,224.8,319.4,224.7,319.1,224.7z"/>
		<path class="st1" d="M329.9,233.2c-0.3,1.4-1.6,1.9-3,1.1s-2.1-2.5-1.8-3.9c0.3-1.4,1.6-1.9,3-1.1
			C329.4,230.1,330.2,231.9,329.9,233.2z"/>
	</g>
	<polygon class="st1" points="181.2,145.7 177.1,143.3 177.4,141.3 181.6,143.8 	"/>
	<polygon class="st1" points="187.3,149.3 183.1,146.9 183.4,144.9 187.6,147.3 	"/>
	<polygon class="st1" points="175.3,142.2 166.2,136.9 166.5,134.9 175.6,140.3 	"/>
	<path class="st1" d="M309.3,280.8c-0.5,0-1.1-0.2-1.6-0.5l-45.4-26.8c-1.9-1.1-3.1-3.9-2.7-6.3l2.9-17.7c0.2-1.2,0.8-2.2,1.7-2.6
		c0.8-0.4,1.8-0.3,2.7,0.2l45.4,26.8c1.9,1.1,3.1,3.9,2.7,6.3l-2.9,17.7c-0.2,1.2-0.8,2.2-1.7,2.6
		C310.1,280.7,309.7,280.8,309.3,280.8z M265.3,227.4c-0.3,0-0.5,0.1-0.8,0.2c-0.6,0.3-1.1,1.1-1.3,2l-2.9,17.7
		c-0.3,2,0.7,4.5,2.3,5.4l45.4,26.8c0.7,0.4,1.4,0.5,2,0.2c0.6-0.3,1.1-1,1.3-2l2.9-17.7c0.3-2-0.7-4.5-2.3-5.4l-45.4-26.8
		C266.1,227.6,265.7,227.4,265.3,227.4z"/>
	<path class="st1" d="M304.3,311.2c-0.5,0-1.1-0.2-1.6-0.5l-45.4-26.8c-1.9-1.1-3.1-3.9-2.7-6.3l2.9-17.7c0.2-1.2,0.8-2.2,1.7-2.6
		c0.8-0.4,1.8-0.3,2.7,0.2l45.4,26.8c1.9,1.1,3.1,3.9,2.7,6.3l-2.9,17.7c-0.2,1.2-0.8,2.2-1.7,2.6
		C305.1,311.1,304.7,311.2,304.3,311.2z M260.3,257.9c-0.3,0-0.5,0.1-0.8,0.2c-0.6,0.3-1.1,1-1.3,2l-2.9,17.7
		c-0.3,2,0.7,4.5,2.3,5.4l45.4,26.8c0.7,0.4,1.4,0.5,2,0.2c0.6-0.3,1.1-1,1.3-2l2.9-17.7c0.3-2-0.7-4.5-2.3-5.4l-45.4-26.8
		C261.1,258,260.7,257.9,260.3,257.9z"/>
	
		<linearGradient id="SVGID_17_" gradientUnits="userSpaceOnUse" x1="269.8818" y1="323.4853" x2="335.453" y2="295.4328" gradientTransform="matrix(1 0 0 -1 0 570)">
		<stop  offset="0" style="stop-color:#42E8E0"/>
		<stop  offset="0.1055" style="stop-color:#37B6BF"/>
		<stop  offset="0.2197" style="stop-color:#2C87A1"/>
		<stop  offset="0.338" style="stop-color:#235F87"/>
		<stop  offset="0.4587" style="stop-color:#1C3F72"/>
		<stop  offset="0.5824" style="stop-color:#162561"/>
		<stop  offset="0.7105" style="stop-color:#121355"/>
		<stop  offset="0.8458" style="stop-color:#10084E"/>
		<stop  offset="1" style="stop-color:#0F054C"/>
	</linearGradient>
	<path class="st27" d="M266.4,251.5c0.8,0.5,1.5,0.3,1.8-0.4l5.3-14.8c0.6-1.7,3.1-0.2,3.6,2.2l3.3,14.9c0.2,1.1,1,2.2,1.8,2.7
		l0.8,0.5c0.8,0.5,1.4,0.3,1.7-0.3l1.1-2.3c0.7-1.4,2.9-0.1,3.5,2.1l0,0c0.3,1,1,2,1.8,2.5l0.7,0.4c0.8,0.5,1.6,0.3,1.8-0.5l1-3.1
		c0.6-1.7,3-0.3,3.6,2.1l3.3,13.8c0.3,1.1,1,2.1,1.8,2.6L266.4,251.5z"/>
	<path class="st1" d="M297.4,304.2c-0.9-0.5-1.7-1.7-2-2.9l-3.3-13.8c-0.4-1.5-1.6-2.5-2.3-2.6c-0.2,0-0.5,0-0.6,0.5l-1,3.1
		c-0.1,0.5-0.4,0.8-0.8,0.9c-0.5,0.2-1,0.1-1.5-0.2l-0.7-0.4c-0.9-0.5-1.6-1.6-2-2.7c-0.4-1.4-1.4-2.4-2.2-2.5
		c-0.3,0-0.5,0.1-0.6,0.4l-1.1,2.3c-0.2,0.4-0.5,0.6-0.8,0.8c-0.4,0.1-1,0-1.5-0.3l-0.8-0.5c-0.9-0.5-1.7-1.7-2-2.9l-3.3-14.9
		c-0.3-1.4-1.5-2.6-2.2-2.6c-0.3,0-0.5,0.1-0.6,0.5l-5.3,14.8c-0.2,0.4-0.4,0.7-0.8,0.9c-0.5,0.2-1,0.1-1.5-0.2l0.4-0.7
		c0.3,0.2,0.6,0.3,0.9,0.2c0.2-0.1,0.3-0.2,0.4-0.4l5.3-14.8c0.2-0.7,0.8-1,1.4-1c1.1,0.1,2.5,1.4,3,3.3l3.3,14.9
		c0.2,1,0.9,2,1.6,2.4l0.8,0.5c0.3,0.2,0.6,0.3,0.8,0.2c0.1,0,0.3-0.2,0.4-0.3l1.1-2.3c0.3-0.6,0.8-0.9,1.4-0.8
		c1.2,0.1,2.4,1.4,2.9,3c0.3,0.9,0.9,1.8,1.6,2.2l0.7,0.4c0.3,0.2,0.6,0.3,0.9,0.2c0.2-0.1,0.3-0.2,0.4-0.4l1-3.1
		c0.2-0.7,0.7-1,1.4-1c1.1,0,2.5,1.3,3,3.2l3.3,13.8c0.2,1,0.9,2,1.6,2.4L297.4,304.2z"/>
</g>
<g id="disk-front">
	<g>
		<g>
			<g>
				<path class="st28" d="M245.6,505.4c7.7-4.6,20.3-4.6,28,0c1.3,0.7,2.3,1.6,3.1,2.4c4.4-4.5,3.3-10.3-3.1-14.1
					c-7.7-4.6-20.3-4.6-28,0c-6.5,3.8-7.5,9.6-3.1,14.1C243.3,506.9,244.4,506.1,245.6,505.4z"/>
				
					<linearGradient id="SVGID_18_" gradientUnits="userSpaceOnUse" x1="224.56" y1="56.2363" x2="294.74" y2="56.2363" gradientTransform="matrix(1 0 0 -1 0 570)">
					<stop  offset="0" style="stop-color:#BCBEFF"/>
					<stop  offset="0.151" style="stop-color:#A3A7F5"/>
					<stop  offset="0.3866" style="stop-color:#8289E8"/>
					<stop  offset="0.6124" style="stop-color:#6A73DF"/>
					<stop  offset="0.8221" style="stop-color:#5C66D9"/>
					<stop  offset="1" style="stop-color:#5761D7"/>
				</linearGradient>
				<path class="st29" d="M289.5,502c-1.4-1.4-3.1-2.6-5.1-3.8c-3.1-1.8-6.6-3.2-10.4-4.2c7.2,4.7,7,11.9-0.7,16.5
					c-7.9,4.7-20.7,4.7-28.6,0c-7.4-4.4-7.9-11.3-1.4-16c-3.1,1-6,2.2-8.6,3.7c-2,1.2-3.7,2.4-5.1,3.8h-5.2v10.9l0,0
					c0,5.3,3.4,10.6,10.3,14.6c13.7,8.1,35.9,8.1,49.6,0c6.9-4,10.3-9.3,10.3-14.6V502H289.5z"/>
				<path class="st5" d="M284.5,498.2c-3.1-1.8-6.6-3.2-10.4-4.2c7.2,4.7,7,11.9-0.7,16.5c-3.8,2.3-8.8,3.4-13.8,3.5v19.7
					c9,0,18-2,24.8-6.1c6.9-4,10.3-9.3,10.3-14.6V502h-5.2C288.1,500.6,286.4,499.4,284.5,498.2z"/>
				
					<radialGradient id="SVGID_19_" cx="292.9616" cy="56.0387" r="40.778" gradientTransform="matrix(1 0 0 -1.0225 0 582.0283)" gradientUnits="userSpaceOnUse">
					<stop  offset="0" style="stop-color:#42E8E0"/>
					<stop  offset="3.470000e-02" style="stop-color:#3FDCD8"/>
					<stop  offset="0.2363" style="stop-color:#319CAE"/>
					<stop  offset="0.4286" style="stop-color:#25668B"/>
					<stop  offset="0.6062" style="stop-color:#1B3C70"/>
					<stop  offset="0.7662" style="stop-color:#151E5C"/>
					<stop  offset="0.9028" style="stop-color:#100C50"/>
					<stop  offset="1" style="stop-color:#0F054C"/>
				</radialGradient>
				<path class="st30" d="M284.5,498.2c-3.1-1.8-6.6-3.2-10.4-4.2c7.2,4.7,7,11.9-0.7,16.5c-3.8,2.3-8.8,3.4-13.8,3.5v19.7
					c9,0,18-2,24.8-6.1c6.9-4,10.3-9.3,10.3-14.6V502h-5.2C288.1,500.6,286.4,499.4,284.5,498.2z"/>
				
					<linearGradient id="SVGID_20_" gradientUnits="userSpaceOnUse" x1="224.565" y1="67.125" x2="294.735" y2="67.125" gradientTransform="matrix(1 0 0 -1 0 570)">
					<stop  offset="0" style="stop-color:#C0BFF6"/>
					<stop  offset="0.2938" style="stop-color:#C5C4F7"/>
					<stop  offset="0.6399" style="stop-color:#D3D2F9"/>
					<stop  offset="1" style="stop-color:#E9E9FD"/>
				</linearGradient>
				<path class="st31" d="M284.5,488.2c-13.7-8.1-35.9-8.1-49.6,0s-13.7,21.2,0,29.3c13.7,8.1,35.9,8.1,49.6,0
					C298.2,509.4,298.2,496.3,284.5,488.2z M273.7,511.3c-7.9,4.7-20.7,4.7-28.6,0c-7.9-4.7-7.9-12.2,0-16.9s20.7-4.7,28.6,0
					C281.6,499.1,281.6,506.6,273.7,511.3z"/>
				<g>
					<path class="st7" d="M284.5,516.4c-13.7,8.1-35.9,8.1-49.6,0c-6.6-3.9-10-9-10.3-14.1c-0.3,5.5,3.2,11,10.3,15.2
						c13.7,8.1,35.9,8.1,49.6,0c7.1-4.2,10.5-9.7,10.3-15.2C294.5,507.4,291.1,512.5,284.5,516.4z"/>
					<path class="st7" d="M273.7,493.3c-7.9-4.7-20.7-4.7-28.6,0c-4.2,2.5-6.1,5.8-5.9,9c0.2-2.9,2.2-5.7,5.9-7.9
						c7.9-4.7,20.7-4.7,28.6,0c3.7,2.2,5.7,5,5.9,7.9C279.8,499.1,277.9,495.8,273.7,493.3z"/>
				</g>
				
					<linearGradient id="SVGID_21_" gradientUnits="userSpaceOnUse" x1="227.1175" y1="68.145" x2="292.4325" y2="68.145" gradientTransform="matrix(1 0 0 -1 0 570)">
					<stop  offset="0" style="stop-color:#C0BFF6"/>
					<stop  offset="0.2938" style="stop-color:#C5C4F7"/>
					<stop  offset="0.6399" style="stop-color:#D3D2F9"/>
					<stop  offset="1" style="stop-color:#E9E9FD"/>
				</linearGradient>
				<path class="st32" d="M282.9,488.2c-12.8-7.5-33.4-7.5-46.2,0c-12.8,7.5-12.8,19.7,0,27.3c12.8,7.5,33.4,7.5,46.2,0
					C295.6,508,295.6,495.8,282.9,488.2z M273.6,510c-7.6,4.5-20,4.5-27.6,0s-7.6-11.8,0-16.3s20-4.5,27.6,0S281.2,505.5,273.6,510z
					"/>
			</g>
		</g>
		<ellipse class="st2" cx="259.8" cy="501.9" rx="19.5" ry="11.5"/>
	</g>
</g>
<g id="bubbles-front">
	<g>
		<path class="st2" d="M274.1,460c0,0.7-0.5,1.2-1.2,1.2c-0.6,0-1.2-0.5-1.2-1.2s0.5-1.2,1.2-1.2S274.1,459.3,274.1,460z"/>
		<path class="st2" d="M253.8,405.5c0,0.7-0.5,1.2-1.2,1.2c-0.6,0-1.2-0.5-1.2-1.2s0.5-1.2,1.2-1.2
			C253.3,404.3,253.8,404.8,253.8,405.5z"/>
		<path class="st2" d="M256.1,446.2c0,1-0.8,1.8-1.7,1.8s-1.7-0.8-1.7-1.8s0.8-1.8,1.7-1.8S256.1,445.2,256.1,446.2z"/>
		<path class="st14" d="M252.9,476.2c0,0.7-0.5,1.2-1.2,1.2c-0.7,0-1.2-0.6-1.2-1.2c0-0.7,0.5-1.2,1.2-1.2S252.9,475.5,252.9,476.2z
			"/>
		<path class="st14" d="M270.2,426c0,1-0.8,1.9-1.9,1.9s-1.9-0.9-1.9-1.9s0.8-1.9,1.9-1.9S270.2,424.9,270.2,426z"/>
		<path class="st14" d="M268.8,432.1c0,0.7-0.6,1.3-1.3,1.3s-1.3-0.6-1.3-1.3c0-0.7,0.6-1.3,1.3-1.3
			C268.2,430.9,268.8,431.4,268.8,432.1z"/>
	</g>
	<path class="st14" d="M286.4,472.9c0,1-0.8,1.9-1.9,1.9s-1.9-0.9-1.9-1.9s0.8-1.9,1.9-1.9S286.4,471.8,286.4,472.9z"/>
	<path class="st14" d="M287.3,467.6c0,0.8-0.6,1.4-1.4,1.4c-0.8,0-1.4-0.6-1.4-1.4c0-0.8,0.6-1.4,1.4-1.4
		C286.6,466.2,287.3,466.8,287.3,467.6z"/>
	<ellipse class="st14" cx="289.8" cy="467" rx="0.9" ry="0.9"/>
	<path class="st14" d="M294.2,465.1c0.3,0.2,0.3,0.6,0.2,0.8c-0.2,0.3-0.5,0.4-0.8,0.2s-0.3-0.6-0.2-0.8
		C293.5,465,293.9,464.9,294.2,465.1z"/>
	<path class="st14" d="M295.9,462.4c0.4,0.3,0.5,0.8,0.2,1.1s-0.8,0.5-1.1,0.2s-0.5-0.8-0.2-1.1C295,462.3,295.5,462.2,295.9,462.4z
		"/>
	<path class="st14" d="M294.3,460.5c0.5,0.3,0.6,1,0.3,1.4s-0.9,0.6-1.4,0.3c-0.5-0.3-0.6-1-0.3-1.4
		C293.2,460.4,293.8,460.2,294.3,460.5z"/>
	<ellipse class="st14" cx="234.9" cy="421.8" rx="1.9" ry="1.9"/>
	<ellipse class="st14" cx="229.2" cy="422.2" rx="1.3" ry="1.3"/>
	<path class="st14" d="M231.2,426c0,0.6-0.5,1.1-1.1,1.1s-1.1-0.5-1.1-1.1c0-0.6,0.5-1.1,1.1-1.1S231.2,425.3,231.2,426z"/>
	<ellipse class="st14" cx="229.1" cy="428.7" rx="0.7" ry="0.7"/>
	<path class="st14" d="M225.8,428.7c0.3,0.1,0.5,0.4,0.4,0.7c-0.1,0.3-0.4,0.5-0.7,0.4c-0.3-0.1-0.5-0.4-0.4-0.7
		C225.2,428.8,225.5,428.6,225.8,428.7z"/>
	<path class="st14" d="M286.4,425c0,1-0.8,1.9-1.9,1.9s-1.9-0.9-1.9-1.9s0.8-1.9,1.9-1.9S286.4,423.9,286.4,425z"/>
	<path class="st14" d="M287.8,419.8c0,0.8-0.6,1.4-1.4,1.4s-1.4-0.6-1.4-1.4c0-0.8,0.6-1.4,1.4-1.4S287.8,419.1,287.8,419.8z"/>
	<ellipse class="st14" cx="290.2" cy="418.1" rx="1" ry="1"/>
	<ellipse class="st14" cx="293.3" cy="418.4" rx="0.7" ry="0.7"/>
	<path class="st14" d="M295.2,416.3c0,0.2-0.2,0.4-0.4,0.4c-0.2,0-0.4-0.2-0.4-0.4c0-0.2,0.2-0.4,0.4-0.4S295.2,416.1,295.2,416.3z"
		/>
</g>
<g id="keyboard" class="st33">
	<path id="fn-key" class="st17" d="M94.6,315l-6.1-3.6c-0.5-0.3-0.4-0.8,0.1-1.1l7.2-4.2c0.6-0.3,1.4-0.4,1.9-0.1l6.1,3.6
		c0.5,0.3,0.4,0.8-0.1,1.1l-7.2,4.2C95.9,315.2,95.1,315.3,94.6,315z"/>
	<path id="ctrl" class="st17" d="M104,320.5l-6.1-3.6c-0.5-0.3-0.4-0.8,0.1-1.1l7.2-4.2c0.6-0.3,1.4-0.4,1.9-0.1l6.1,3.6
		c0.5,0.3,0.4,0.8-0.1,1.1l-7.2,4.2C105.3,320.8,104.5,320.8,104,320.5z"/>
	<path class="st17" d="M113.4,326.1l-6.1-3.6c-0.5-0.3-0.4-0.8,0.1-1.1l7.2-4.2c0.6-0.3,1.4-0.4,1.9-0.1l6.1,3.6
		c0.5,0.3,0.4,0.8-0.1,1.1l-7.2,4.2C114.7,326.3,113.9,326.4,113.4,326.1z"/>
	<path class="st17" d="M126.4,321.5l-6.1-3.6c-0.5-0.3-0.4-0.8,0.1-1.1l6-3.6c0.6-0.3,1.4-0.4,1.9-0.1l6.1,3.6
		c0.5,0.3,0.4,0.8-0.1,1.1l-6,3.6C127.8,321.7,126.9,321.8,126.4,321.5z"/>
	<path class="st17" d="M135.8,327l-6.1-3.6c-0.5-0.3-0.4-0.8,0.1-1.1l6-3.6c0.6-0.3,1.4-0.4,1.9-0.1l6.1,3.6
		c0.5,0.3,0.4,0.8-0.1,1.1l-6,3.6C137.1,327.3,136.3,327.3,135.8,327z"/>
	<path class="st17" d="M145.2,332.6l-6.1-3.6c-0.5-0.3-0.4-0.8,0.1-1.1l6-3.6c0.6-0.3,1.4-0.4,1.9-0.1l6.1,3.6
		c0.5,0.3,0.4,0.8-0.1,1.1l-6,3.6C146.6,332.8,145.7,332.9,145.2,332.6z"/>
	<path class="st17" d="M154.6,338.1l-6.1-3.6c-0.5-0.3-0.4-0.8,0.1-1.1l6-3.6c0.6-0.3,1.4-0.4,1.9-0.1l6.1,3.6
		c0.5,0.3,0.4,0.8-0.1,1.1l-6,3.6C156,338.4,155.1,338.4,154.6,338.1z"/>
	<path class="st17" d="M164,343.7l-6.1-3.6c-0.5-0.3-0.4-0.8,0.1-1.1l6-3.6c0.6-0.3,1.4-0.4,1.9-0.1l6.1,3.6
		c0.5,0.3,0.4,0.8-0.1,1.1l-6,3.6C165.4,343.9,164.5,344,164,343.7z"/>
	<path class="st17" d="M173.4,349.2l-6.1-3.6c-0.5-0.3-0.4-0.8,0.1-1.1l6-3.6c0.6-0.3,1.4-0.4,1.9-0.1l6.1,3.6
		c0.5,0.3,0.4,0.8-0.1,1.1l-6,3.6C174.8,349.5,173.9,349.5,173.4,349.2z"/>
	<path id="m" class="st17" d="M182.8,354.8l-6.1-3.6c-0.5-0.3-0.4-0.8,0.1-1.1l6-3.6c0.6-0.3,1.4-0.4,1.9-0.1l6.1,3.6
		c0.5,0.3,0.4,0.8-0.1,1.1l-6,3.6C184.2,355,183.3,355.1,182.8,354.8z"/>
	<path class="st17" d="M192.2,360.3l-6.1-3.6c-0.5-0.3-0.4-0.8,0.1-1.1l6-3.6c0.6-0.3,1.4-0.4,1.9-0.1l6.1,3.6
		c0.5,0.3,0.4,0.8-0.1,1.1l-6,3.6C193.6,360.6,192.7,360.6,192.2,360.3z"/>
	<path class="st17" d="M201.6,365.9l-6.1-3.6c-0.5-0.3-0.4-0.8,0.1-1.1l6-3.6c0.6-0.3,1.4-0.4,1.9-0.1l6.1,3.6
		c0.5,0.3,0.4,0.8-0.1,1.1l-6,3.6C203,366.1,202.1,366.2,201.6,365.9z"/>
	<path class="st17" d="M211.1,371.5l-6.1-3.6c-0.5-0.3-0.4-0.8,0.1-1.1l6-3.6c0.6-0.3,1.4-0.4,1.9-0.1l6.1,3.6
		c0.5,0.3,0.4,0.8-0.1,1.1l-6,3.6C212.4,371.7,211.5,371.7,211.1,371.5z"/>
	<path class="st17" d="M140.3,318.9l-6.1-3.6c-0.5-0.3-0.4-0.8,0.1-1.1l6-3.6c0.6-0.3,1.4-0.4,1.9-0.1l6.1,3.6
		c0.5,0.3,0.4,0.8-0.1,1.1l-6,3.6C141.6,319.1,140.8,319.1,140.3,318.9z"/>
	<path class="st17" d="M130.7,313.2l-6.1-3.6c-0.5-0.3-0.4-0.8,0.1-1.1l6-3.6c0.6-0.3,1.4-0.4,1.9-0.1l6.1,3.6
		c0.5,0.3,0.4,0.8-0.1,1.1l-6,3.6C132.1,313.5,131.2,313.5,130.7,313.2z"/>
	<path id="caps-lock" class="st17" d="M121.2,307.6l-13.1-7.7c-0.5-0.3-0.4-0.8,0.1-1.1l6-3.6c0.6-0.3,1.4-0.4,1.9-0.1l13.1,7.7
		c0.5,0.3,0.4,0.8-0.1,1.1l-6,3.6C122.5,307.8,121.6,307.9,121.2,307.6z"/>
	<path id="tab" class="st17" d="M127.8,300.7l-10.6-6.3c-0.5-0.3-0.4-0.8,0.1-1.1l6-3.6c0.6-0.3,1.4-0.4,1.9-0.1l10.6,6.3
		c0.5,0.3,0.4,0.8-0.1,1.1l-6,3.6C129.2,301,128.3,301,127.8,300.7z"/>
	<path class="st17" d="M149.7,324.4l-6.1-3.6c-0.5-0.3-0.4-0.8,0.1-1.1l6-3.6c0.6-0.3,1.4-0.4,1.9-0.1l6.1,3.6
		c0.5,0.3,0.4,0.8-0.1,1.1l-6,3.6C151,324.7,150.1,324.7,149.7,324.4z"/>
	<path id="f" class="st17" d="M159.1,330l-6.1-3.6c-0.5-0.3-0.4-0.8,0.1-1.1l6-3.6c0.6-0.3,1.4-0.4,1.9-0.1l6.1,3.6
		c0.5,0.3,0.4,0.8-0.1,1.1l-6,3.6C160.4,330.2,159.6,330.2,159.1,330z"/>
	<path class="st17" d="M168.5,335.5l-6.1-3.6c-0.5-0.3-0.4-0.8,0.1-1.1l6-3.6c0.6-0.3,1.4-0.4,1.9-0.1l6.1,3.6
		c0.5,0.3,0.4,0.8-0.1,1.1l-6,3.6C169.8,335.8,169,335.8,168.5,335.5z"/>
	<path class="st17" d="M177.9,341.1l-6.1-3.6c-0.5-0.3-0.4-0.8,0.1-1.1l6-3.6c0.6-0.3,1.4-0.4,1.9-0.1l6.1,3.6
		c0.5,0.3,0.4,0.8-0.1,1.1l-6,3.6C179.2,341.3,178.4,341.4,177.9,341.1z"/>
	<path class="st17" d="M187.3,346.6l-6.1-3.6c-0.5-0.3-0.4-0.8,0.1-1.1l6-3.6c0.6-0.3,1.4-0.4,1.9-0.1l6.1,3.6
		c0.5,0.3,0.4,0.8-0.1,1.1l-6,3.6C188.6,346.9,187.8,346.9,187.3,346.6z"/>
	<path id="k" class="st17" d="M196.7,352.2l-6.1-3.6c-0.5-0.3-0.4-0.8,0.1-1.1l6-3.6c0.6-0.3,1.4-0.4,1.9-0.1l6.1,3.6
		c0.5,0.3,0.4,0.8-0.1,1.1l-6,3.6C198,352.4,197.2,352.5,196.7,352.2z"/>
	<path class="st17" d="M206.1,357.7l-6.1-3.6c-0.5-0.3-0.4-0.8,0.1-1.1l6-3.6c0.6-0.3,1.4-0.4,1.9-0.1l6.1,3.6
		c0.5,0.3,0.4,0.8-0.1,1.1l-6,3.6C207.4,358,206.6,358,206.1,357.7z"/>
	<path class="st17" d="M215.5,363.3l-6.1-3.6c-0.5-0.3-0.4-0.8,0.1-1.1l6-3.6c0.6-0.3,1.4-0.4,1.9-0.1l6.1,3.6
		c0.5,0.3,0.4,0.8-0.1,1.1l-6,3.6C216.8,363.5,216,363.5,215.5,363.3z"/>
	<path class="st17" d="M224.9,368.8l-6.1-3.6c-0.5-0.3-0.4-0.8,0.1-1.1l6-3.6c0.6-0.3,1.4-0.4,1.9-0.1l6.1,3.6
		c0.5,0.3,0.4,0.8-0.1,1.1l-6,3.6C226.3,369.1,225.4,369.1,224.9,368.8z"/>
	<path id="enter" class="st17" d="M241.6,378.7l-13.3-7.8c-0.5-0.3-0.4-0.8,0.1-1.1l6-3.6c0.6-0.3,1.4-0.4,1.9-0.1l13.3,7.8
		c0.5,0.3,0.4,0.8-0.1,1.1l-6,3.6C243,378.9,242.1,379,241.6,378.7z"/>
	<path id="backspace" class="st17" d="M259.9,367.9l-11.2-6.6c-0.5-0.3-0.4-0.8,0.1-1.1l6-3.6c0.6-0.3,1.4-0.4,1.9-0.1l11.2,6.6
		c0.5,0.3,0.4,0.8-0.1,1.1l-6,3.6C261.3,368.1,260.4,368.2,259.9,367.9z"/>
	<path class="st17" d="M166.1,323.3l-6.1-3.6c-0.5-0.3-0.4-0.8,0.1-1.1l6-3.6c0.6-0.3,1.4-0.4,1.9-0.1l6.1,3.6
		c0.5,0.3,0.4,0.8-0.1,1.1l-6,3.6C167.5,323.6,166.6,323.6,166.1,323.3z"/>
	<path class="st17" d="M156.5,317.6l-6.1-3.6c-0.5-0.3-0.4-0.8,0.1-1.1l6-3.6c0.6-0.3,1.4-0.4,1.9-0.1l6.1,3.6
		c0.5,0.3,0.4,0.8-0.1,1.1l-6,3.6C157.8,317.9,157,317.9,156.5,317.6z"/>
	<path class="st17" d="M146.9,311.9l-6.1-3.6c-0.5-0.3-0.4-0.8,0.1-1.1l6-3.6c0.6-0.3,1.4-0.4,1.9-0.1l6.1,3.6
		c0.5,0.3,0.4,0.8-0.1,1.1l-6,3.6C148.2,312.2,147.4,312.2,146.9,311.9z"/>
	<path class="st17" d="M137.2,306.3l-6.1-3.6c-0.5-0.3-0.4-0.8,0.1-1.1l6-3.6c0.6-0.3,1.4-0.4,1.9-0.1l6.1,3.6
		c0.5,0.3,0.4,0.8-0.1,1.1l-6,3.6C138.6,306.5,137.7,306.5,137.2,306.3z"/>
	<path class="st17" d="M175.5,328.9l-6.1-3.6c-0.5-0.3-0.4-0.8,0.1-1.1l6-3.6c0.6-0.3,1.4-0.4,1.9-0.1l6.1,3.6
		c0.5,0.3,0.4,0.8-0.1,1.1l-6,3.6C176.9,329.1,176,329.2,175.5,328.9z"/>
	<path id="y" class="st17" d="M184.9,334.4l-6.1-3.6c-0.5-0.3-0.4-0.8,0.1-1.1l6-3.6c0.6-0.3,1.4-0.4,1.9-0.1l6.1,3.6
		c0.5,0.3,0.4,0.8-0.1,1.1l-6,3.6C186.3,334.7,185.4,334.7,184.9,334.4z"/>
	<path class="st17" d="M194.4,340l-6.1-3.6c-0.5-0.3-0.4-0.8,0.1-1.1l6-3.6c0.6-0.3,1.4-0.4,1.9-0.1l6.1,3.6
		c0.5,0.3,0.4,0.8-0.1,1.1l-6,3.6C195.7,340.2,194.8,340.3,194.4,340z"/>
	<path class="st17" d="M203.8,345.5l-6.1-3.6c-0.5-0.3-0.4-0.8,0.1-1.1l6-3.6c0.6-0.3,1.4-0.4,1.9-0.1l6.1,3.6
		c0.5,0.3,0.4,0.8-0.1,1.1l-6,3.6C205.1,345.8,204.2,345.8,203.8,345.5z"/>
	<path class="st17" d="M213.2,351.1l-6.1-3.6c-0.5-0.3-0.4-0.8,0.1-1.1l6-3.6c0.6-0.3,1.4-0.4,1.9-0.1l6.1,3.6
		c0.5,0.3,0.4,0.8-0.1,1.1l-6,3.6C214.5,351.3,213.6,351.4,213.2,351.1z"/>
	<path id="o" class="st17" d="M222.6,356.6l-6.1-3.6c-0.5-0.3-0.4-0.8,0.1-1.1l6-3.6c0.6-0.3,1.4-0.4,1.9-0.1l6.1,3.6
		c0.5,0.3,0.4,0.8-0.1,1.1l-6,3.6C223.9,356.9,223.1,356.9,222.6,356.6z"/>
	<path class="st17" d="M232,362.2l-6.1-3.6c-0.5-0.3-0.4-0.8,0.1-1.1l6-3.6c0.6-0.3,1.4-0.4,1.9-0.1l6.1,3.6
		c0.5,0.3,0.4,0.8-0.1,1.1l-6,3.6C233.3,362.4,232.5,362.5,232,362.2z"/>
	<path class="st17" d="M241.4,367.7l-6.1-3.6c-0.5-0.3-0.4-0.8,0.1-1.1l6-3.6c0.6-0.3,1.4-0.4,1.9-0.1l6.1,3.6
		c0.5,0.3,0.4,0.8-0.1,1.1l-6,3.6C242.7,368,241.9,368,241.4,367.7z"/>
	<path class="st17" d="M250.8,373.3l-6.1-3.6c-0.5-0.3-0.4-0.8,0.1-1.1l6-3.6c0.6-0.3,1.4-0.4,1.9-0.1l6.1,3.6
		c0.5,0.3,0.4,0.8-0.1,1.1l-6,3.6C252.1,373.5,251.3,373.6,250.8,373.3z"/>
	<path id="e" class="st17" d="M161.2,309.6l-6.1-3.6c-0.5-0.3-0.4-0.8,0.1-1.1l6-3.6c0.6-0.3,1.4-0.4,1.9-0.1l6.1,3.6
		c0.5,0.3,0.4,0.8-0.1,1.1l-6,3.6C162.5,309.8,161.7,309.9,161.2,309.6z"/>
	<path id="w" class="st17" d="M151.8,304.1l-6.1-3.6c-0.5-0.3-0.4-0.8,0.1-1.1l6-3.6c0.6-0.3,1.4-0.4,1.9-0.1l6.1,3.6
		c0.5,0.3,0.4,0.8-0.1,1.1l-6,3.6C153.2,304.3,152.3,304.4,151.8,304.1z"/>
	<path id="q" class="st17" d="M142.5,298.5l-6.1-3.6c-0.5-0.3-0.4-0.8,0.1-1.1l6-3.6c0.6-0.3,1.4-0.4,1.9-0.1l6.1,3.6
		c0.5,0.3,0.4,0.8-0.1,1.1l-6,3.6C143.8,298.8,143,298.8,142.5,298.5z"/>
	<path id="escape" class="st17" d="M133.1,293l-6.1-3.6c-0.5-0.3-0.4-0.8,0.1-1.1l6-3.6c0.6-0.3,1.4-0.4,1.9-0.1l6.1,3.6
		c0.5,0.3,0.4,0.8-0.1,1.1l-6,3.6C134.4,293.3,133.6,293.3,133.1,293z"/>
	<path class="st17" d="M142.7,287.3l-6.1-3.6c-0.5-0.3-0.4-0.8,0.1-1.1l2-1.2c0.6-0.3,1.4-0.4,1.9-0.1l6.1,3.6
		c0.5,0.3,0.4,0.8-0.1,1.1l-2,1.2C144.1,287.6,143.2,287.6,142.7,287.3z"/>
	<path class="st17" d="M154.9,294.5l-6.1-3.6c-0.5-0.3-0.4-0.8,0.1-1.1l2-1.2c0.6-0.3,1.4-0.4,1.9-0.1l6.1,3.6
		c0.5,0.3,0.4,0.8-0.1,1.1l-2,1.2C156.3,294.8,155.4,294.8,154.9,294.5z"/>
	<path class="st17" d="M164.3,300l-6.1-3.6c-0.5-0.3-0.4-0.8,0.1-1.1l2-1.2c0.6-0.3,1.4-0.4,1.9-0.1l6.1,3.6
		c0.5,0.3,0.4,0.8-0.1,1.1l-2,1.2C165.6,300.3,164.8,300.3,164.3,300z"/>
	<path class="st17" d="M173.6,305.5l-6.1-3.6c-0.5-0.3-0.4-0.8,0.1-1.1l2-1.2c0.6-0.3,1.4-0.4,1.9-0.1l6.1,3.6
		c0.5,0.3,0.4,0.8-0.1,1.1l-2,1.2C174.9,305.8,174.1,305.8,173.6,305.5z"/>
	<path class="st17" d="M182.9,311l-6.1-3.6c-0.5-0.3-0.4-0.8,0.1-1.1l2-1.2c0.6-0.3,1.4-0.4,1.9-0.1l6.1,3.6
		c0.5,0.3,0.4,0.8-0.1,1.1l-2,1.2C184.2,311.3,183.4,311.3,182.9,311z"/>
	<path class="st17" d="M234.9,341.8l-6.1-3.6c-0.5-0.3-0.4-0.8,0.1-1.1l2-1.2c0.6-0.3,1.4-0.4,1.9-0.1l6.1,3.6
		c0.5,0.3,0.4,0.8-0.1,1.1l-2,1.2C236.3,342,235.4,342,234.9,341.8z"/>
	<path class="st17" d="M244.3,347.3l-6.1-3.6c-0.5-0.3-0.4-0.8,0.1-1.1l2-1.2c0.6-0.3,1.4-0.4,1.9-0.1l6.1,3.6
		c0.5,0.3,0.4,0.8-0.1,1.1l-2,1.2C245.6,347.5,244.7,347.5,244.3,347.3z"/>
	<path class="st17" d="M253.6,352.8l-6.1-3.6c-0.5-0.3-0.4-0.8,0.1-1.1l2-1.2c0.6-0.3,1.4-0.4,1.9-0.1l6.1,3.6
		c0.5,0.3,0.4,0.8-0.1,1.1l-2,1.2C254.9,353,254.1,353,253.6,352.8z"/>
	<path class="st17" d="M262.9,358.3l-6.1-3.6c-0.5-0.3-0.4-0.8,0.1-1.1l2-1.2c0.6-0.3,1.4-0.4,1.9-0.1l6.1,3.6
		c0.5,0.3,0.4,0.8-0.1,1.1l-2,1.2C264.2,358.5,263.4,358.5,262.9,358.3z"/>
	<path class="st17" d="M170.6,315.1l-6.1-3.6c-0.5-0.3-0.4-0.8,0.1-1.1l6-3.6c0.6-0.3,1.4-0.4,1.9-0.1l6.1,3.6
		c0.5,0.3,0.4,0.8-0.1,1.1l-6,3.6C171.9,315.4,171.1,315.4,170.6,315.1z"/>
	<path class="st17" d="M180,320.7l-6.1-3.6c-0.5-0.3-0.4-0.8,0.1-1.1l6-3.6c0.6-0.3,1.4-0.4,1.9-0.1l6.1,3.6
		c0.5,0.3,0.4,0.8-0.1,1.1l-6,3.6C181.3,320.9,180.5,321,180,320.7z"/>
	<path class="st17" d="M189.4,326.2l-6.1-3.6c-0.5-0.3-0.4-0.8,0.1-1.1l6-3.6c0.6-0.3,1.4-0.4,1.9-0.1l6.1,3.6
		c0.5,0.3,0.4,0.8-0.1,1.1l-6,3.6C190.7,326.5,189.9,326.5,189.4,326.2z"/>
	<path class="st17" d="M198.8,331.8l-6.1-3.6c-0.5-0.3-0.4-0.8,0.1-1.1l6-3.6c0.6-0.3,1.4-0.4,1.9-0.1l6.1,3.6
		c0.5,0.3,0.4,0.8-0.1,1.1l-6,3.6C200.1,332,199.3,332.1,198.8,331.8z"/>
	<path class="st17" d="M208.2,337.3l-6.1-3.6c-0.5-0.3-0.4-0.8,0.1-1.1l6-3.6c0.6-0.3,1.4-0.4,1.9-0.1l6.1,3.6
		c0.5,0.3,0.4,0.8-0.1,1.1l-6,3.6C209.6,337.6,208.7,337.6,208.2,337.3z"/>
	<path class="st17" d="M217.6,342.9l-6.1-3.6c-0.5-0.3-0.4-0.8,0.1-1.1l6-3.6c0.6-0.3,1.4-0.4,1.9-0.1l6.1,3.6
		c0.5,0.3,0.4,0.8-0.1,1.1l-6,3.6C218.9,343.1,218.1,343.2,217.6,342.9z"/>
	<path class="st17" d="M227,348.5l-6.1-3.6c-0.5-0.3-0.4-0.8,0.1-1.1l6-3.6c0.6-0.3,1.4-0.4,1.9-0.1l6.1,3.6
		c0.5,0.3,0.4,0.8-0.1,1.1l-6,3.6C228.4,348.7,227.5,348.7,227,348.5z"/>
	<path class="st17" d="M236.4,354l-6.1-3.6c-0.5-0.3-0.4-0.8,0.1-1.1l6-3.6c0.6-0.3,1.4-0.4,1.9-0.1l6.1,3.6
		c0.5,0.3,0.4,0.8-0.1,1.1l-6,3.6C237.8,354.3,236.9,354.3,236.4,354z"/>
	<path class="st17" d="M245.8,359.5l-6.1-3.6c-0.5-0.3-0.4-0.8,0.1-1.1l6-3.6c0.6-0.3,1.4-0.4,1.9-0.1l6.1,3.6
		c0.5,0.3,0.4,0.8-0.1,1.1l-6,3.6C247.2,359.8,246.3,359.8,245.8,359.5z"/>
	<path class="st17" d="M116.8,315.8l-17.9-10.6c-0.5-0.3-0.4-0.8,0.1-1.1l6-3.6c0.6-0.3,1.4-0.4,1.9-0.1l17.9,10.6
		c0.5,0.3,0.4,0.8-0.1,1.1l-6,3.6C118.2,316.1,117.3,316.1,116.8,315.8z"/>
	<path class="st17" d="M232.4,384l-17.9-10.6c-0.5-0.3-0.4-0.8,0.1-1.1l6-3.6c0.6-0.3,1.4-0.4,1.9-0.1l17.9,10.6
		c0.5,0.3,0.4,0.8-0.1,1.1l-6,3.6C233.7,384.3,232.9,384.3,232.4,384z"/>
	<path class="st17" d="M194.8,374.1l-6.1-3.6c-0.5-0.3-0.4-0.8,0.1-1.1l7.2-4.2c0.6-0.3,1.4-0.4,1.9-0.1l6.1,3.6
		c0.5,0.3,0.4,0.8-0.1,1.1l-7.2,4.2C196.1,374.3,195.2,374.4,194.8,374.1z"/>
	<path id="alt-left" class="st17" d="M126.4,333.8l-9.7-5.8c-0.5-0.3-0.4-0.8,0.1-1.1l7.2-4.2c0.6-0.3,1.4-0.4,1.9-0.1l9.7,5.8
		c0.5,0.3,0.4,0.8-0.1,1.1l-7.2,4.2C127.8,334,126.9,334.1,126.4,333.8z"/>
	<path id="alt-right" class="st17" d="M185.7,368.7l-9.7-5.8c-0.5-0.3-0.4-0.8,0.1-1.1l7.2-4.2c0.6-0.3,1.4-0.4,1.9-0.1l9.7,5.8
		c0.5,0.3,0.4,0.8-0.1,1.1l-7.2,4.2C187,369,186.2,369,185.7,368.7z"/>
	<path class="st17" d="M140,341.8l-9.7-5.8c-0.5-0.3-0.4-0.8,0.1-1.1l7.2-4.2c0.6-0.3,1.4-0.4,1.9-0.1l9.7,5.8
		c0.5,0.3,0.4,0.8-0.1,1.1l-7.2,4.2C141.4,342,140.5,342.1,140,341.8z"/>
	<path id="space" class="st17" d="M139.6,330.6l42.3,25c0.5,0.3,0.5,0.8,0,1.1l-7.3,4.3c-0.5,0.3-1.4,0.3-1.9,0l-42.3-25
		L139.6,330.6z"/>
	<path class="st17" d="M221,384.1l6.8,4c0.4,0.2,0.4,0.6-0.1,0.9l-2.9,1.7c-0.5,0.3-1.2,0.3-1.6,0.1l-6.8-4
		c-0.4-0.2-0.4-0.6,0.1-0.9l2.9-1.7C219.9,384,220.6,383.9,221,384.1z"/>
	<path class="st17" d="M211.6,378.6l6.8,4c0.4,0.2,0.4,0.6-0.1,0.9l-2.9,1.7c-0.5,0.3-1.2,0.3-1.6,0.1l-6.8-4
		c-0.4-0.2-0.4-0.6,0.1-0.9l2.9-1.7C210.4,378.4,211.1,378.3,211.6,378.6z"/>
	<path class="st17" d="M202.1,373l6.8,4c0.4,0.2,0.4,0.6-0.1,0.9l-2.9,1.7c-0.5,0.3-1.2,0.3-1.6,0.1l-6.8-4
		c-0.4-0.2-0.4-0.6,0.1-0.9l2.9-1.7C201,372.8,201.7,372.8,202.1,373z"/>
	<path class="st17" d="M216.7,375.5l6.8,4c0.4,0.2,0.4,0.6-0.1,0.9l-2.9,1.7c-0.5,0.3-1.2,0.3-1.6,0.1l-6.8-4
		c-0.4-0.2-0.4-0.6,0.1-0.9l2.9-1.7C215.6,375.3,216.3,375.3,216.7,375.5z"/>
</g>
</svg>
