<?xml version="1.0" encoding="utf-8"?>
<!-- Generator: Adobe Illustrator 24.0.0, SVG Export Plug-In . SVG Version: 6.00 Build 0)  -->
<svg version="1.1" id="Layer_1" xmlns="http://www.w3.org/2000/svg" xmlns:xlink="http://www.w3.org/1999/xlink" x="0px" y="0px"
	 viewBox="0 0 510.5 262" style="enable-background:new 0 0 510.5 262;" xml:space="preserve">
<style type="text/css">
	.st0{fill:#FFA600;}
	.st1{fill:#FFFFFF;}
</style>
<g id="orange-stroke">
	<path class="st0" d="M486.1,36.3c-0.4-1.4-1.2-4-4.6-13.3c-3.6-9.8-4.6-12.1-5.3-13.4c-3.9-7.8-12.4-11.3-21.5-8.8
		c-4.4,1.2-10.8,3-19.6,5.6c-8.4,2.5-14.7,4.3-18.9,5.4c-4.2,1.1-10.7,2.7-19.3,4.8c-9,2.1-15.5,3.8-20,5c-4.5,1.2-8,4-10,7.8
		c-1.9,3.7-2.2,8-0.8,12.1l0.4,1c2.1,6.4,3.7,11.7,5,15.8c-6.8-6.6-14.4-11.5-22.7-14.7c-11.5-4.3-25.7-5.2-42.3-2.5
		c-6,1-17.9,3.9-36.6,8.9c-10.1,2.7-17.2,4.9-21.7,6.6c-0.1,0-0.2,0.1-0.3,0.1c-7.7,3.3-11.7,10.9-9.7,18.6c0.5,1.9,1.1,4.1,1.8,6.6
		c-2.3-1.6-4.7-3.1-7.2-4.5c-19.2-10.9-41.2-13.7-61.9-8c-6,1.7-11.7,3.9-17.1,6.7c0.1-0.7,0.2-1.3,0.3-2c0-0.1,0-0.1,0-0.2
		c0.2-2.7,0-5.2-0.7-7.6c-0.6-2.4-1.7-4.7-3.1-6.7c0.8-2.9,0.5-5.5,0-7.2c-1-3.7-3.2-6.1-6.2-9.1c-2.8-2.8-8-7.9-15.8-5.8
		c-2.1,0.6-4.1,1.4-6,2.4c-2.5-3.3-4.6-6.7-10.5-7.8C106,30.7,51.8,47,51,47.2c-7.6,2-11.9,9.5-9.9,17.1c0.6,2.2,1.5,5.2,2.7,9.4
		c1.2,3.8,2,6.7,2.5,8.5c0.4,1.5,1.3,5.2,3.3,14.4c0.6,2.8,0.9,3.9,0.9,4.4c0.1,0.4,0.2,0.8,0.3,1.2c0.3,1.1,0.7,2.1,1.2,3.1
		c-19.9,6-34.6,18.5-43.8,37.3c-8.9,18.2-10.7,38.1-5.1,59c5.8,21.6,17.4,38.1,34.5,49c17.9,11.5,38.1,14.4,60.1,8.5
		c21.8-5.8,37.4-18.6,46.5-37.9c0-0.1,0.1-0.2,0.1-0.2c0.5-1.2,1-2.4,1.3-3.5c1.9,1.2,3.7,2.4,5.7,3.5c18.9,10.6,40.7,13.4,61.3,7.9
		c0.3-0.1,0.6-0.1,0.8-0.2c25-6.9,43.9-23.9,53.7-45.3c1,4.2,1.9,7.7,2.7,10.6c2.3,8.5,10.6,13.1,19.4,10.8c2.7-0.7,7-1.8,12.6-3.1
		c6-1.4,10.4-2.5,13.4-3.3c15.6-4.2,24.9-6.7,28.4-7.8c8-2.4,15.1-5.6,21.3-9.6c0.2,0.8,0.5,1.5,0.9,2.3c1.3,2.5,8.8,29.9,8.8,32.2
		c0,0.2,0,0.5,0,0.7c0.2,2.9,0.4,5.1,0.6,6.8c0,2.8,0.1,4.9,0.1,6.4c0,0.1,0,0.3,0,0.4c0.1,1.6,0.2,2.9,0.6,4.1
		c0.9,3.3,3.7,9,12.6,11.1c2.6,0.6,5.7,0.9,9.8,1.1c4.3,0.2,9-0.5,14.5-1.9c8.7-2.3,15.6-7.4,20-14.7c0.5-0.8,1-1.6,1.4-2.6
		c10.4,6.7,19.9,6.3,26.6,4.6c8.1-2.2,18.9-8.3,24-25.3c3.4-11,3.3-23.1-0.1-35.8c-1.5-5.7-3.6-11-6.1-15.7
		c10.1-2.5,13.5-3.1,14.6-3.3c1.9-0.2,3.3-0.5,4.5-0.8c5.7-1.5,9.9-5.6,11.7-11.3c0-0.1,0.1-0.3,0.1-0.5c0.9-3.1,1.1-7.2-0.3-18.9
		c-1.2-10.3-11.7-47.6-12.3-49.6C495.1,62.2,487.3,40.7,486.1,36.3z"/>
</g>
<g id="outer-clock">
	<path class="st1" d="M210,215.7c-36.1,10-74.5-11.5-84.6-47.5c-10.6-37.8,11-75.6,49.1-86.1c35.9-9.9,74.3,11.9,84.3,47.8
		C269.2,167.5,247.8,205.2,210,215.7z M142.1,159.9c3.1-0.8,3.4-0.8,6.5-1.8c2.1-0.7,2.4,0.4,2.8,2c0.3,1.5,1.1,2.8-1.4,3.4
		c-6,1.4-9,2.5-14.9,3.9c-2.5,0.6-3.3,1.5-2.3,4c2.7,6.9,6.4,13.1,11.2,18.8c1.2,1.4,1.9,1.1,3,0c1.9-2,3.9-3.8,5.7-5.8
		c1.5-1.6,2.1-0.1,3,0.7c0.9,0.8,1.6,1.5,0.3,2.8c-2,1.8-3.8,3.9-5.8,5.7c-1.3,1.2-1.1,1.9,0.1,3c6.2,5.4,13.3,9.4,21,12.1
		c1.7,0.6,2.2,0.1,2.6-1.5c0.6-2.6,1.5-5.2,2.1-7.9c0.5-2.2,1.8-1.2,2.9-0.9c1.1,0.2,2.4,0.2,1.7,2.1c-0.9,2.6-1.4,5.4-2.2,8.1
		c-0.4,1.3-0.2,2,1.3,2.3c7.8,1.4,15.6,1.6,23.4,0.1c1.9-0.3,2.3-1.1,1.8-3c-1.7-6.1-2.4-9.3-4.2-15.4c-0.6-2,0.1-2.7,2-3.2
		c1.8-0.5,2.8-0.4,3.3,1.7c1.5,6.1,2.5,9.2,4,15.2c0.5,2,1.2,2.7,3.4,1.9c7.4-2.7,14-6.6,20-11.7c1.2-1,1.2-1.8,0-2.8
		c-1.8-1.6-3.4-3.5-5.2-5.1c-1.4-1.2-1.1-2.1,0.1-3.3c1.1-1.1,1.9-1.7,3.3-0.2c1.6,1.9,3.6,3.6,5.3,5.4c1,1,1.7,1,2.6-0.1
		c5.5-6.3,9.5-13.4,12.3-21.2c0.6-1.6-0.1-2.1-1.5-2.4c-2.5-0.6-4.9-1.4-7.3-1.9c-2-0.4-2.1-1.2-1.6-3c0.5-2,1.3-2.1,3-1.6
		c2.4,0.8,4.9,1.3,7.3,2c1.3,0.4,2,0.2,2.3-1.3c1.5-7.7,1.6-15.4,0.2-23.1c-0.3-1.8-1.1-2.1-2.8-1.7c-6.2,1.7-9.5,2.5-15.7,4.3
		c-2.2,0.7-2.6-0.4-3-2c-0.4-1.6-0.8-2.8,1.5-3.3c6.3-1.5,9.7-2.6,16-4.2c1.6-0.4,2-1.1,1.4-2.6c-2.5-7.7-6.6-14.4-11.8-20.6
		c-1.2-1.4-1.9-1.1-3,0.1c-1.9,2-3.9,3.8-5.7,5.8c-1.5,1.6-2.1,0.1-3-0.6c-0.9-0.8-1.7-1.5-0.3-2.8c2.1-1.9,3.9-4,6-5.9
		c1-1,1-1.7,0-2.6c-6.3-5.5-13.3-9.6-21.2-12.3c-1.3-0.5-2-0.2-2.3,1.2c-0.6,2.6-1.5,5-2,7.6c-0.4,1.8-1.1,2.1-2.8,1.6
		c-1.7-0.5-2.5-1-1.8-3c0.8-2.4,1.3-4.9,2-7.3c0.4-1.5,0.1-2.1-1.5-2.4c-7.7-1.4-15.4-1.6-23.2-0.2c-2.3,0.4-2.6,1.4-2,3.5
		c1.7,5.8,2.3,8.8,4,14.6c0.6,2,0.2,2.9-1.9,3.4c-2.1,0.5-2.9,0.1-3.4-2c-1.5-6-2.4-9-3.9-14.9c-0.5-1.9-1.1-2.6-3.2-1.9
		c-7.4,2.6-14,6.6-20,11.6c-1.1,0.9-1.2,1.6-0.1,2.6c1.9,1.8,3.6,3.8,5.6,5.5c1.6,1.3,1.1,2.1-0.1,3.4c-1.4,1.4-2.2,1.3-3.4-0.1
		c-1.7-1.9-3.6-3.6-5.3-5.4c-1-1.1-1.8-1.1-2.8,0.1c-5.3,6.2-9.4,13-12.2,20.7c-0.6,1.7,0,2.2,1.5,2.6c2.5,0.6,5,1.5,7.6,2
		c1.9,0.4,1.6,1.5,1.3,2.8c-0.4,1.3-0.6,2.5-2.5,1.9c-2.7-0.9-5.4-1.4-8.1-2.2c-1.2-0.4-1.8-0.1-2.1,1.2c-1.6,8.3-1.9,16.7,0,25
		c0.3,1.5,1.1,1.5,2.3,1.2C135.7,161.6,138.9,160.7,142.1,159.9z"/>
</g>
<g id="i">
	<path class="st1" d="M70,75.8c0.6,2.2,1.5,5.5,2.8,9.9c1.3,4.4,2.2,7.7,2.8,9.9c0.1,0.4,0.1,0.6-0.1,0.8c0,0-0.3,0.1-0.7,0.3
		c-1.2,0.5-2.8,1-4.8,1.5c-2.7,0.7-4.5,1.1-5.3,1.2c-0.6,0-0.9-0.2-1-0.7c0.1,0.3-0.3-1.4-1.1-5c-1.7-7.7-2.8-12.7-3.5-15.1
		c-0.5-2-1.4-5-2.6-8.9c-1.2-4-2.1-6.9-2.6-8.9c-0.1-0.4,0-0.7,0.5-0.8c0.6-0.2,1.5-0.4,2.6-0.6s2.1-0.5,2.6-0.6
		c0.6-0.2,1.4-0.4,2.5-0.8c1.1-0.4,2-0.6,2.5-0.8c0.5-0.1,0.9,0,1,0.4c0.5,2,1.2,5,2.1,9.1C68.7,70.8,69.4,73.8,70,75.8z"/>
</g>
<g id="t">
	<path class="st1" d="M100.3,57c0.1,0.4-0.1,0.6-0.5,0.7c-0.7,0.2-3.6,0.8-8.5,1.8c1.2,4.8,2,8.1,2.5,9.9c0.6,2.2,1.6,5.5,2.9,9.9
		c1.4,4.4,2.3,7.7,2.9,9.9c0.1,0.4,0.1,0.6-0.1,0.7c0,0.1-0.3,0.2-0.7,0.4c-1.1,0.5-2.7,1-4.9,1.5c-2.4,0.6-4.1,1-5.1,1.1
		c-0.5,0-0.9-0.2-1-0.7c-0.6-2.2-1.4-5.5-2.4-10c-1-4.5-1.8-7.8-2.4-10c-0.4-1.5-1.3-4.7-2.8-9.7c-3.6,1.4-6.6,2.4-8.8,2.9
		c-0.3,0.1-0.5,0-0.5-0.2c-0.1-0.2-0.1-1-0.2-2.3c0-1.4-0.1-2.2-0.1-2.5c-0.2-0.9-0.3-1.8-0.5-2.7c-0.2-1.4-0.2-2.2,0.1-2.3
		c0,0,0.2,0,0.4-0.1c3.1-0.4,7.7-1.4,13.6-3c1.7-0.4,4.7-1.5,9.2-3c2.4-0.8,3.6-1.3,3.6-1.3c0.4-0.1,0.6-0.1,0.7-0.1
		c0.1,0,0.2,0.2,0.3,0.5c0.1,0.5,0.3,1.2,0.5,2.1c0.2,1,0.4,1.7,0.5,2.1c0.1,0.5,0.4,1.1,0.7,2C99.9,55.9,100.2,56.5,100.3,57z"/>
</g>
<g id="_x27_">
	<path class="st1" d="M113.7,51.6c0.6,2.1,0.6,4.5,0,7.3c-0.5,2.5-1.3,4.8-2.6,6.8c-0.3,0.5-0.5,0.7-0.7,0.8c-0.2,0-0.4,0-0.7-0.2
		c-0.2-0.1-0.9-0.5-2.2-1.1c-1.2-0.6-1.7-0.9-1.8-1c0,0.2,0.4-0.6,0.9-2.3c0.6-1.7,0.6-3.4,0.2-5c-0.3-1.2-1.4-2.4-3.2-3.4
		c-1.8-1.1-2.7-1.7-2.7-1.7c-0.1-0.3,0.2-0.9,1-1.9c0.5-0.6,1-1.3,1.5-1.9c0.4-0.7,0.9-1.4,1.3-2.1c0.7-1.1,1.1-1.7,1.3-1.7
		c0.2,0,0.5,0,0.9,0.2C110.6,45.8,112.8,48.2,113.7,51.6z"/>
</g>
<g id="s">
	<path class="st1" d="M137.5,55.7c0,0.2,0,0.5-0.2,0.9c-0.6,0-1.1,0.1-1.6,0.2c-1.1,0.3-2,0.8-2.6,1.5c-0.7,0.8-1,1.7-0.7,2.7
		c0.2,0.7,0.9,1.4,2.1,2.1c1.8,1.1,3,1.9,3.5,2.3c1.3,1.2,2.2,2.6,2.6,4.2c0.3,1,0.3,2,0.2,3.2c-0.1,1.3-0.4,2.3-0.9,3
		c-1.1,1.6-2.4,3-4,4.3c-1.8,1.4-3.5,2.3-5.2,2.8c-0.4,0.1-1.5-0.7-3.3-2.4c-1.8-1.7-2.8-2.7-2.9-3.2c0-0.2,0-0.3,0.2-0.4
		c1.2-0.6,2.5-1.2,3.8-1.8c1.5-1,2.1-2,1.8-3.2c-0.2-0.8-0.9-1.7-2.2-2.5c-2.2-1.4-3.4-2.2-3.5-2.3c-1.3-1.1-2.2-2.4-2.6-3.9
		c-0.7-2.8,0-5.6,2.4-8.3c2.1-2.4,4.6-4,7.5-4.8c0.3-0.1,1.3,0.7,3,2.4C136.5,54.3,137.5,55.3,137.5,55.7z"/>
</g>
<g id="_x33_">
	<path class="st1" d="M423.5,203.4c2,7.4,1.4,13.7-1.8,18.8c-2.7,4.4-6.7,7.3-12.1,8.8c-4.2,1.1-7.7,1.6-10.6,1.5
		c-6.3-0.2-9.7-1-10-2.4c-0.1-0.2-0.1-0.6-0.1-1.1c0-1.6,0-4-0.1-7.1c-0.2-1.5-0.4-3.9-0.6-6.9c0-1.1,0.3-1.7,0.8-1.8
		c-0.1,0,1.3,0.3,4.2,1c2.9,0.6,5.2,0.7,6.8,0.3c5.4-1.4,7.4-4.8,6-10.1c-1.1-4.2-4.3-5.6-9.4-4.3c-0.7,0.2-1.6,0.5-2.7,0.9
		c-1.1,0.4-1.9,0.6-2.2,0.7c-1.7,0.5-2.6,0.7-2.8,0.7c-1.3,0.1-2.1-0.4-2.4-1.6c-1.6-6.1-2.5-10-2.6-11.7c0-1.1,0.3-1.7,0.9-1.9
		c0.9-0.3,2.4-0.4,4.3-0.6c1.9-0.2,3.4-0.3,4.3-0.6c1.2-0.3,2-1.2,2.5-2.5c0.5-1.4,0.5-2.9,0-4.7c-1.3-4.7-4.3-6.5-9-5.2
		c-2,0.5-4.5,2-7.5,4.5c-0.1,0.1-0.2,0.1-0.4,0.2c-0.4,0.1-0.8-0.4-1.4-1.4c-0.5-1.7-1.1-3.6-1.8-5.7c-0.2-0.5-0.5-1.4-1-2.8
		c-0.4-1.1-0.7-2.1-0.9-2.8c-0.6-2.1,1.3-4.4,5.5-6.8c2.9-1.6,5.8-2.9,8.8-3.6c4.7-1.3,9.2-0.9,13.6,1.2c5.3,2.5,8.7,6.9,10.4,13.3
		c2,7.3,1.1,13.5-2.4,18.6c3.1,0.6,5.8,2.2,8.2,5C420.6,195.9,422.4,199.3,423.5,203.4z"/>
</g>
<g id="_x30_">
	<path class="st1" d="M472.1,173.5c2.8,10.3,2.8,19.9,0.2,28.5c-2.7,9-7.6,14.4-14.7,16.3c-7.1,1.9-14-0.4-20.9-6.8
		c-6.6-6.2-11.3-14.4-14.1-24.8c-2.8-10.4-2.8-19.9-0.1-28.5c2.7-8.9,7.7-14.2,14.7-16.1c7.1-1.9,14,0.3,20.8,6.6
		C464.7,154.9,469.4,163.2,472.1,173.5z M456.7,177.6c-1.1-4.1-2.9-7.5-5.4-10.1c-2.6-2.8-5.4-3.8-8.1-3c-2.9,0.8-4.7,3-5.6,6.7
		c-0.8,3.4-0.7,7.2,0.4,11.5c1.1,4.2,2.9,7.6,5.4,10.2c2.7,2.9,5.4,3.9,8.2,3.2c2.7-0.7,4.5-3,5.4-6.9
		C457.9,185.5,457.8,181.7,456.7,177.6z"/>
</g>
<g>
	<path class="st1" d="M475.6,58.9c0,0.1,0,0.1,0.1,0.2C475.7,59,475.6,59,475.6,58.9z"/>
</g>
<g id="C">
	<path class="st1" d="M113.2,193.3c-0.8-0.5-1.4-0.7-2-0.5c-0.3,0.1-1.4,1.6-3.4,4.5c-2.4,3.5-4.9,6.3-7.5,8.6
		c-4,3.5-8.5,5.9-13.6,7.2c-8.6,2.3-16.4,0.9-23.3-4.3c-6.4-4.8-10.7-11.6-13.1-20.5c-2.3-8.8-1.9-16.8,1.2-24.1
		c3.4-7.8,9.5-12.9,18.1-15.2c5-1.3,10.1-1.4,15.4-0.3c3.5,0.8,7.2,2.1,11.1,4.1c3.3,1.6,5,2.4,5.3,2.3c0.7-0.2,1.2-0.6,1.6-1.2
		c0.8-1.2,2.3-5.9,4.5-14.1c2.2-8.2,3.1-12.9,2.8-14c-0.3-1-1.2-2-2.7-3c-13.9-8.8-30.3-10.6-49.3-5.6c-17.5,4.7-30.1,15-38,31.1
		c-7.5,15.3-8.9,31.9-4.2,49.7c4.9,18.4,14.5,32.2,28.8,41.3c14.7,9.5,31.2,11.7,49.5,6.8c17.9-4.8,30.5-15,37.9-30.7
		c0.8-1.9,1.1-3.2,0.9-4.2c-0.2-0.6-3.3-3.7-9.3-9C118,197.1,114.5,194.1,113.2,193.3z"/>
</g>
<g id="D">
	<path class="st1" d="M376.4,148.9c7.7-15.6,9.2-32,4.6-49.3c-2.5-9.5-7.1-18.2-13.6-26.1c-6.8-8.4-14.6-14.2-23.4-17.5
		c-9.4-3.5-21.2-4.1-35.4-1.8c-5.5,0.9-17.2,3.8-35.3,8.6c-9.5,2.5-16.3,4.6-20.3,6.2c-1.6,0.7-2.3,1.6-2,2.9
		c1.8,6.7,4.7,16.7,8.8,30c4.1,13.3,7,23.4,8.8,30.1c1.7,6.5,4.1,16.2,7,29.3c3,13.1,5.3,22.8,7,29.3c0.4,1.4,1.4,1.8,3.1,1.3
		c2.9-0.8,7.2-1.8,13-3.2c5.8-1.4,10.2-2.4,13-3.2c15.3-4.1,24.6-6.6,28-7.7C357.5,172.4,369.7,162.8,376.4,148.9z M346,136
		c-4,8.3-11.1,13.8-21.2,16.5c-9.4,2.5-14.4,2.5-15.1,0c-0.9-3.5-2.4-8.6-4.3-15.4c-1.9-6.8-3.4-11.9-4.3-15.3
		c-0.9-3.5-2.3-8.7-4-15.7c-1.7-7-3.1-12.2-4-15.7c-0.6-2.4,3.6-4.8,12.6-7.2c9.8-2.6,18.6-1.5,26.4,3.4c7.6,4.7,12.7,12,15.4,21.9
		C350.2,119,349.7,128.1,346,136z"/>
</g>
<g id="E">
	<path class="st1" d="M491.3,104.2c-3.1,0.8-7.6,2.3-13.5,4.5c-6,2.2-10.5,3.7-13.6,4.5c-8.7,2.3-13,3.5-12.8,3.4
		c-6.6,1.3-10.7,1-12.3-0.9c-0.9-1.1-2-3.9-3.2-8.4c-0.9-3.3-1.3-5.2-1.4-5.5c0.1-1.3,1.3-2.2,3.8-2.9l9.3-2.5
		c11.9-3.2,19.6-5,23-5.6l8.1-1.2c1.7-0.5,2.4-1.3,2.1-2.4c-1.2-4.7-2.3-9.4-3.1-14.3c-1.5-9.5-2.2-14.2-2.1-14.1
		c-0.4-1.2-1.3-1.6-2.6-1.3c-1.2,0.3-2.7,0.9-4.6,1.6c-2.5,0.9-4.1,1.5-4.7,1.7c-7.5,2.4-14.9,4.6-22.3,6.6
		c-1.1,0.3-2.5,0.7-4.2,1.3c-1.7,0.5-2.8,0.9-3.4,1.1c-2.8,0.7-4.9,0.7-6.2-0.1c-1.5-1-2.8-3.5-3.9-7.4c-1-3.8-1.5-6.1-1.4-6.9
		c0.3-1.7,2-2.9,5.1-3.7c12.4-3.3,26.6-6.4,42.6-9.3c0.9-0.2,1.5-0.3,1.9-0.4c1.2-0.3,1.6-1.1,1.3-2.3c-0.4-1.5-1.8-5.5-4.2-12.2
		c-2.4-6.7-4-10.6-4.6-11.9c-1.1-2.2-3.1-2.8-6.2-2c-4.3,1.1-10.7,3-19.2,5.5c-8.6,2.5-15,4.4-19.2,5.5c-4.3,1.2-10.9,2.8-19.7,4.9
		s-15.3,3.7-19.7,4.9c-1.6,0.4-2.1,1.3-1.7,2.6l0.4,1.2c3,9.2,5.1,16.1,6.6,20.8c5.6,18,9.2,30.4,11,37.1c1.8,6.6,4,16.5,6.8,29.9
		c2.8,13.4,5,23.3,6.8,29.9c0.5,1.7,1.6,2.3,3.6,1.8c1.4-0.4,2.9-0.8,4.7-1.2c3.2-9.9,9.1-16.1,17.5-18.4c8.5-2.3,16.7,0.2,24.5,7.3
		c16.8-4.4,27.2-6.9,31.2-7.4c1.3-0.2,2.2-0.3,2.7-0.4c1.2-0.3,2.1-1.1,2.5-2.4c0.4-1.6,0.2-6.2-0.7-13.9c-0.8-7-1.5-11.8-2.2-14.3
		C493.5,104.8,492.6,103.9,491.3,104.2z"/>
</g>
<g id="hr-hand">
	<rect x="186.8" y="124.1" transform="matrix(0.9659 -0.259 0.259 0.9659 -28.978 53.5556)" class="st1" width="4" height="25.3"/>
</g>
<g id="min-hand">
	<rect x="191.4" y="142" transform="matrix(0.966 -0.2586 0.2586 0.966 -30.066 59.3932)" class="st1" width="38.7" height="4"/>
</g>
<g id="dial">
	<g>
		<path class="st0" d="M192.1,154.2c-2.3,0-4.4-1.6-5-3.9c-0.4-1.3-0.2-2.7,0.5-3.9c0.7-1.2,1.8-2.1,3.2-2.4
			c0.4-0.1,0.9-0.2,1.3-0.2c2.3,0,4.4,1.6,5,3.9c0.4,1.3,0.2,2.7-0.5,3.9c-0.7,1.2-1.8,2.1-3.2,2.4
			C193,154.1,192.5,154.2,192.1,154.2z"/>
	</g>
	<g>
		<path class="st1" d="M192.1,144.8L192.1,144.8c1.9,0,3.6,1.3,4,3.1c0.3,1.1,0.1,2.2-0.4,3.2s-1.5,1.7-2.5,1.9
			c-0.4,0.1-0.7,0.1-1.1,0.1c-1.9,0-3.6-1.3-4-3.1c-0.3-1.1-0.1-2.2,0.4-3.2s1.5-1.7,2.5-1.9C191.3,144.8,191.7,144.8,192.1,144.8
			 M192.1,142.8c-0.5,0-1.1,0.1-1.6,0.2c-3.3,0.9-5.3,4.3-4.4,7.6c0.7,2.8,3.2,4.6,6,4.6c0.5,0,1.1-0.1,1.6-0.2
			c3.3-0.9,5.3-4.3,4.4-7.6C197.3,144.6,194.8,142.8,192.1,142.8L192.1,142.8z"/>
	</g>
</g>
</svg>
