<?xml version="1.0" encoding="utf-8"?>
<!-- Generator: Adobe Illustrator 24.0.0, SVG Export Plug-In . SVG Version: 6.00 Build 0)  -->
<svg version="1.1" id="Layer_1" xmlns="http://www.w3.org/2000/svg" xmlns:xlink="http://www.w3.org/1999/xlink" x="0px" y="0px"
	 viewBox="0 0 510.5 262" style="enable-background:new 0 0 510.5 262;" xml:space="preserve">
<style type="text/css">
	.st0{fill:#FFFFFF;}
	.st1{fill:#FFA600;}
</style>
<g>
	<path class="st0" d="M475.6,58.9c0,0.1,0,0.1,0.1,0.2C475.7,59,475.6,59,475.6,58.9z"/>
</g>
<g>
	<path class="st1" d="M251.5,136.3c-6.2,1.7-9.5,2.5-15.7,4.3c-2.2,0.7-2.6-0.4-3-2c-0.4-1.6-0.8-2.8,1.5-3.3
		c6.3-1.5,9.7-2.6,16-4.2c1.6-0.4,2-1.1,1.4-2.6c-2.5-7.7-6.6-14.4-11.8-20.6c-1.2-1.4-1.9-1.1-3,0.1c-1.9,2-3.9,3.8-5.7,5.8
		c-1.5,1.6-2.1,0.1-3-0.6c-0.9-0.8-1.7-1.5-0.3-2.8c2.1-1.9,3.9-4,6-5.9c1-1,1-1.7,0-2.6c-6.3-5.5-13.3-9.6-21.2-12.3
		c-1.3-0.5-2-0.2-2.3,1.2c-0.6,2.6-1.5,5-2,7.6c-0.4,1.8-1.1,2.1-2.8,1.6c-1.7-0.5-2.5-1-1.8-3c0.8-2.4,1.3-4.9,2-7.3
		c0.4-1.5,0.1-2.1-1.5-2.4c-7.7-1.4-15.4-1.6-23.2-0.2c-2.3,0.4-2.6,1.4-2,3.5c1.7,5.8,2.3,8.8,4,14.6c0.6,2,0.2,2.9-1.9,3.4
		c-2.1,0.5-2.9,0.1-3.4-2c-1.5-6-2.4-9-3.9-14.9c-0.5-1.9-1.1-2.6-3.2-1.9c-7.4,2.6-14,6.6-20,11.6c-1.1,0.9-1.2,1.6-0.1,2.6
		c1.9,1.8,3.6,3.8,5.6,5.5c1.6,1.3,1.1,2.1-0.1,3.4c-1.4,1.4-2.2,1.3-3.4-0.1c-1.7-1.9-3.6-3.6-5.3-5.4c-1-1.1-1.8-1.1-2.8,0.1
		c-5.3,6.2-9.4,13-12.2,20.7c-0.6,1.7,0,2.2,1.5,2.6c2.5,0.6,5,1.5,7.6,2c1.9,0.4,1.6,1.5,1.3,2.8c-0.4,1.3-0.6,2.5-2.5,1.9
		c-2.7-0.9-5.4-1.4-8.1-2.2c-1.2-0.4-1.8-0.1-2.1,1.2c-1.6,8.3-1.9,16.7,0,25c0.3,1.5,1.1,1.5,2.3,1.2c3.2-0.9,6.4-1.8,9.6-2.6
		c3.1-0.8,3.4-0.8,6.5-1.8c2.1-0.7,2.4,0.4,2.8,2c0.3,1.5,1.1,2.8-1.4,3.4c-6,1.4-9,2.5-14.9,3.9c-2.5,0.6-3.3,1.5-2.3,4
		c2.7,6.9,6.4,13.1,11.2,18.8c1.2,1.4,1.9,1.1,3,0c1.9-2,3.9-3.8,5.7-5.8c1.5-1.6,2.1-0.1,3,0.7c0.9,0.8,1.6,1.5,0.3,2.8
		c-2,1.8-3.8,3.9-5.8,5.7c-1.3,1.2-1.1,1.9,0.1,3c6.2,5.4,13.3,9.4,21,12.1c1.7,0.6,2.2,0.1,2.6-1.5c0.6-2.6,1.5-5.2,2.1-7.9
		c0.5-2.2,1.8-1.2,2.9-0.9c1.1,0.2,2.4,0.2,1.7,2.1c-0.9,2.6-1.4,5.4-2.2,8.1c-0.4,1.3-0.2,2,1.3,2.3c7.8,1.4,15.6,1.6,23.4,0.1
		c1.9-0.3,2.3-1.1,1.8-3c-1.7-6.1-2.4-9.3-4.2-15.4c-0.6-2,0.1-2.7,2-3.2c1.8-0.5,2.8-0.4,3.3,1.7c1.5,6.1,2.5,9.2,4,15.2
		c0.5,2,1.2,2.7,3.4,1.9c7.4-2.7,14-6.6,20-11.7c1.2-1,1.2-1.8,0-2.8c-1.8-1.6-3.4-3.5-5.2-5.1c-1.4-1.2-1.1-2.1,0.1-3.3
		c1.1-1.1,1.9-1.7,3.3-0.2c1.6,1.9,3.6,3.6,5.3,5.4c1,1,1.7,1,2.6-0.1c5.5-6.3,9.5-13.4,12.3-21.2c0.6-1.6-0.1-2.1-1.5-2.4
		c-2.5-0.6-4.9-1.4-7.3-1.9c-2-0.4-2.1-1.2-1.6-3c0.5-2,1.3-2.1,3-1.6c2.4,0.8,4.9,1.3,7.3,2c1.3,0.4,2,0.2,2.3-1.3
		c1.5-7.7,1.6-15.4,0.2-23.1C254,136.1,253.2,135.8,251.5,136.3z"/>
	<path class="st1" d="M332,86.6c-7.7-4.9-16.5-6.1-26.4-3.4c-9,2.4-13.2,4.8-12.6,7.2c0.9,3.5,2.3,8.7,4,15.7s3.1,12.2,4,15.7
		c0.9,3.4,2.3,8.5,4.3,15.3c1.9,6.8,3.4,11.9,4.3,15.4c0.7,2.5,5.7,2.5,15.1,0c10.1-2.7,17.2-8.2,21.2-16.5c3.7-7.8,4.2-17,1.4-27.4
		C344.8,98.6,339.6,91.3,332,86.6z"/>
	<path class="st1" d="M451.4,167.5c-2.6-2.8-5.4-3.8-8.1-3c-2.9,0.8-4.7,3-5.6,6.7c-0.8,3.4-0.7,7.2,0.4,11.5
		c1.1,4.2,2.9,7.6,5.4,10.2c2.7,2.9,5.4,3.9,8.2,3.2c2.7-0.7,4.5-3,5.4-6.9c0.8-3.6,0.7-7.4-0.3-11.4
		C455.6,173.5,453.8,170.1,451.4,167.5z"/>
	<path class="st1" d="M509.5,119.7c-1.2-10.3-11.7-47.6-12.3-49.6c-2.1-7.8-10-29.3-11.1-33.7c-0.4-1.4-1.2-4-4.6-13.3
		c-3.6-9.8-4.6-12.1-5.3-13.4c-3.9-7.8-12.4-11.3-21.5-8.8c-4.4,1.2-10.8,3-19.6,5.6c-8.4,2.5-14.7,4.3-18.9,5.4
		c-4.2,1.1-10.7,2.7-19.3,4.8c-9,2.1-15.5,3.8-20,5c-4.5,1.2-8,4-10,7.8c-1.9,3.7-2.2,8-0.8,12.1l0.4,1c2.1,6.4,3.7,11.7,5,15.8
		c-6.8-6.6-14.4-11.5-22.7-14.7c-11.5-4.3-25.7-5.2-42.3-2.5c-6,1-17.9,3.9-36.6,8.9c-10.1,2.7-17.2,4.9-21.7,6.6
		c-0.1,0-0.2,0.1-0.3,0.1c-7.7,3.3-11.7,10.9-9.7,18.6c0.5,1.9,1.1,4.1,1.8,6.6c-2.3-1.6-4.7-3.1-7.2-4.5
		c-19.2-10.9-41.2-13.7-61.9-8c-6,1.7-11.7,3.9-17.1,6.7c0.1-0.7,0.2-1.3,0.3-2c0-0.1,0-0.1,0-0.2c0.2-2.7,0-5.2-0.7-7.6
		c-0.6-2.4-1.7-4.7-3.1-6.7c0.8-2.9,0.5-5.5,0-7.2c-1-3.7-3.2-6.1-6.2-9.1c-2.8-2.8-8-7.9-15.8-5.8c-2.1,0.6-4.1,1.4-6,2.4
		c-2.5-3.3-4.6-6.7-10.5-7.8C106,30.7,51.8,47,51,47.2c-7.6,2-11.9,9.5-9.9,17.1c0.6,2.2,1.5,5.2,2.7,9.4c1.2,3.8,2,6.7,2.5,8.5
		c0.4,1.5,1.3,5.2,3.3,14.4c0.6,2.8,0.9,3.9,0.9,4.4c0.1,0.4,0.2,0.8,0.3,1.2c0.3,1.1,0.7,2.1,1.2,3.1c-19.9,6-34.6,18.5-43.8,37.3
		c-8.9,18.2-10.7,38.1-5.1,59c5.8,21.6,17.4,38.1,34.5,49c17.9,11.5,38.1,14.4,60.1,8.5c21.8-5.8,37.4-18.6,46.5-37.9
		c0-0.1,0.1-0.2,0.1-0.2c0.5-1.2,1-2.4,1.3-3.5c1.9,1.2,3.7,2.4,5.7,3.5c18.9,10.6,40.7,13.4,61.3,7.9c0.3-0.1,0.6-0.1,0.8-0.2
		c25-6.9,43.9-23.9,53.7-45.3c1,4.2,1.9,7.7,2.7,10.6c2.3,8.5,10.6,13.1,19.4,10.8c2.7-0.7,7-1.8,12.6-3.1c6-1.4,10.4-2.5,13.4-3.3
		c15.6-4.2,24.9-6.7,28.4-7.8c8-2.4,15.1-5.6,21.3-9.6c0.2,0.8,0.5,1.5,0.9,2.3c1.3,2.5,8.8,29.9,8.8,32.2c0,0.2,0,0.5,0,0.7
		c0.2,2.9,0.4,5.1,0.6,6.8c0,2.8,0.1,4.9,0.1,6.4c0,0.1,0,0.3,0,0.4c0.1,1.6,0.2,2.9,0.6,4.1c0.9,3.3,3.7,9,12.6,11.1
		c2.6,0.6,5.7,0.9,9.8,1.1c4.3,0.2,9-0.5,14.5-1.9c8.7-2.3,15.6-7.4,20-14.7c0.5-0.8,1-1.6,1.4-2.6c10.4,6.7,19.9,6.3,26.6,4.6
		c8.1-2.2,18.9-8.3,24-25.3c3.4-11,3.3-23.1-0.1-35.8c-1.5-5.7-3.6-11-6.1-15.7c10.1-2.5,13.5-3.1,14.6-3.3c1.9-0.2,3.3-0.5,4.5-0.8
		c5.7-1.5,9.9-5.6,11.7-11.3c0-0.1,0.1-0.3,0.1-0.5C510.7,135.4,510.9,131.3,509.5,119.7z M124.3,55c2.1-2.4,4.6-4,7.5-4.8
		c0.3-0.1,1.3,0.7,3,2.4c1.7,1.7,2.6,2.7,2.7,3c0,0.2,0,0.5-0.2,0.9c-0.6,0-1.1,0.1-1.6,0.2c-1.1,0.3-2,0.8-2.6,1.5
		c-0.7,0.8-1,1.7-0.7,2.7c0.2,0.7,0.9,1.4,2.1,2.1c1.8,1.1,3,1.9,3.5,2.3c1.3,1.2,2.2,2.6,2.6,4.2c0.3,1,0.3,2,0.2,3.2
		c-0.1,1.3-0.4,2.3-0.9,3c-1.1,1.6-2.4,3-4,4.3c-1.8,1.4-3.5,2.3-5.2,2.8c-0.4,0.1-1.5-0.7-3.3-2.4c-1.8-1.7-2.8-2.7-2.9-3.2
		c0-0.2,0-0.3,0.2-0.4c1.2-0.6,2.5-1.2,3.8-1.8c1.5-1,2.1-2,1.8-3.2c-0.2-0.8-0.9-1.7-2.2-2.5c-2.2-1.4-3.4-2.2-3.5-2.3
		c-1.3-1.1-2.2-2.4-2.6-3.9C121.2,60.5,122,57.7,124.3,55z M102.1,49.8c0.5-0.6,1-1.3,1.5-1.9c0.4-0.7,0.9-1.4,1.3-2.1
		c0.7-1.1,1.1-1.7,1.3-1.7c0.2,0,0.5,0,0.9,0.2c3.5,1.5,5.8,3.9,6.7,7.3c0.6,2.1,0.6,4.5,0,7.3c-0.5,2.5-1.3,4.8-2.6,6.8
		c-0.3,0.5-0.5,0.7-0.7,0.8c-0.2,0-0.4,0-0.7-0.2c-0.2-0.1-0.9-0.5-2.2-1.1c-1.2-0.6-1.7-0.9-1.8-1c0,0.2,0.4-0.6,0.9-2.3
		c0.6-1.7,0.6-3.4,0.2-5c-0.3-1.2-1.4-2.4-3.2-3.4c-1.8-1.1-2.7-1.7-2.7-1.7C101,51.4,101.3,50.8,102.1,49.8z M70.2,55.7
		c0,0,0.2,0,0.4-0.1c3.1-0.4,7.7-1.4,13.6-3c1.7-0.4,4.7-1.5,9.2-3c2.4-0.8,3.6-1.3,3.6-1.3c0.4-0.1,0.6-0.1,0.7-0.1
		c0.1,0,0.2,0.2,0.3,0.5c0.1,0.5,0.3,1.2,0.5,2.1c0.2,1,0.4,1.7,0.5,2.1c0.1,0.5,0.4,1.1,0.7,2c0.3,0.9,0.6,1.5,0.7,2
		c0.1,0.4-0.1,0.6-0.5,0.7c-0.7,0.2-3.6,0.8-8.5,1.8c1.2,4.8,2,8.1,2.5,9.9c0.6,2.2,1.6,5.5,2.9,9.9c1.4,4.4,2.3,7.7,2.9,9.9
		c0.1,0.4,0.1,0.6-0.1,0.7c0,0.1-0.3,0.2-0.7,0.4c-1.1,0.5-2.7,1-4.9,1.5c-2.4,0.6-4.1,1-5.1,1.1c-0.5,0-0.9-0.2-1-0.7
		c-0.6-2.2-1.4-5.5-2.4-10c-1-4.5-1.8-7.8-2.4-10c-0.4-1.5-1.3-4.7-2.8-9.7c-3.6,1.4-6.6,2.4-8.8,2.9c-0.3,0.1-0.5,0-0.5-0.2
		c-0.1-0.2-0.1-1-0.2-2.3c0-1.4-0.1-2.2-0.1-2.5c-0.2-0.9-0.3-1.8-0.5-2.7C69.8,56.5,69.9,55.7,70.2,55.7z M54.4,60
		c0.6-0.2,1.5-0.4,2.6-0.6c1.2-0.3,2.1-0.5,2.6-0.6c0.6-0.2,1.4-0.4,2.5-0.8c1.1-0.4,2-0.6,2.5-0.8c0.5-0.1,0.9,0,1,0.4
		c0.5,2,1.2,5,2.1,9.1c0.9,4.1,1.6,7.1,2.1,9.1c0.6,2.2,1.5,5.5,2.8,9.9s2.2,7.7,2.8,9.9c0.1,0.4,0.1,0.6-0.1,0.8
		c0,0-0.3,0.1-0.7,0.3c-1.2,0.5-2.8,1-4.8,1.5c-2.7,0.7-4.5,1.1-5.3,1.2c-0.6,0-0.9-0.2-1-0.7c0.1,0.3-0.3-1.4-1.1-5
		c-1.7-7.7-2.8-12.7-3.5-15.1c-0.5-2-1.4-5-2.6-8.9c-1.2-4-2.1-6.9-2.6-8.9C53.9,60.4,54,60.1,54.4,60z M132.2,215.5
		c-7.4,15.7-20,26-37.9,30.7c-18.3,4.9-34.8,2.6-49.5-6.8c-14.3-9.1-23.9-22.9-28.8-41.3c-4.8-17.8-3.4-34.4,4.2-49.7
		c7.8-16,20.5-26.4,38-31.1c19-5.1,35.4-3.2,49.3,5.6c1.5,1,2.4,2,2.7,3c0.3,1.1-0.6,5.8-2.8,14c-2.2,8.2-3.7,12.9-4.5,14.1
		c-0.3,0.6-0.9,1-1.6,1.2c-0.3,0.1-2.1-0.7-5.3-2.3c-3.9-2-7.6-3.3-11.1-4.1c-5.3-1.1-10.4-1-15.4,0.3c-8.6,2.3-14.6,7.4-18.1,15.2
		c-3.2,7.2-3.6,15.3-1.2,24.1c2.4,8.9,6.7,15.8,13.1,20.5c6.9,5.2,14.7,6.6,23.3,4.3c5.1-1.4,9.6-3.8,13.6-7.2
		c2.6-2.3,5.1-5.1,7.5-8.6c2-2.9,3.1-4.4,3.4-4.5c0.6-0.2,1.3,0,2,0.5c1.2,0.8,4.7,3.8,10.6,8.9c6,5.4,9.1,8.4,9.3,9
		C133.4,212.2,133.1,213.6,132.2,215.5z M210,215.7c-36.1,10-74.5-11.5-84.6-47.5c-10.6-37.8,11-75.6,49.1-86.1
		c35.9-9.9,74.3,11.9,84.3,47.8C269.2,167.5,247.8,205.2,210,215.7z M339.9,177.7c-3.4,1-12.7,3.6-28,7.7c-2.9,0.8-7.2,1.8-13,3.2
		c-5.8,1.4-10.2,2.4-13,3.2c-1.7,0.5-2.7,0-3.1-1.3c-1.7-6.4-4.1-16.2-7-29.3c-2.9-13.1-5.3-22.8-7-29.3c-1.8-6.7-4.7-16.8-8.8-30.1
		c-4.1-13.3-7-23.3-8.8-30c-0.3-1.2,0.3-2.2,2-2.9c4-1.6,10.8-3.6,20.3-6.2c18-4.8,29.8-7.7,35.3-8.6c14.3-2.3,26.1-1.7,35.4,1.8
		c8.8,3.3,16.6,9.1,23.4,17.5c6.5,7.9,11,16.6,13.6,26.1c4.6,17.2,3,33.7-4.6,49.3C369.7,162.8,357.5,172.4,339.9,177.7z
		 M421.7,222.3c-2.7,4.4-6.7,7.3-12.1,8.8c-4.2,1.1-7.7,1.6-10.6,1.5c-6.3-0.2-9.7-1-10-2.4c-0.1-0.2-0.1-0.6-0.1-1.1
		c0-1.6,0-4-0.1-7.1c-0.2-1.5-0.4-3.9-0.6-6.9c0-1.1,0.3-1.7,0.8-1.8c-0.1,0,1.3,0.3,4.2,1c2.9,0.6,5.2,0.7,6.8,0.3
		c5.4-1.4,7.4-4.8,6-10.1c-1.1-4.2-4.3-5.6-9.4-4.3c-0.7,0.2-1.6,0.5-2.7,0.9c-1.1,0.4-1.9,0.6-2.2,0.7c-1.7,0.5-2.6,0.7-2.8,0.7
		c-1.3,0.1-2.1-0.4-2.4-1.6c-1.6-6.1-2.5-10-2.6-11.7c0-1.1,0.3-1.7,0.9-1.9c0.9-0.3,2.4-0.4,4.3-0.6c1.9-0.2,3.4-0.3,4.3-0.6
		c1.2-0.3,2-1.2,2.5-2.5c0.5-1.4,0.5-2.9,0-4.7c-1.3-4.7-4.3-6.5-9-5.2c-2,0.5-4.5,2-7.5,4.5c-0.1,0.1-0.2,0.1-0.4,0.2
		c-0.4,0.1-0.8-0.4-1.4-1.4c-0.5-1.7-1.1-3.6-1.8-5.7c-0.2-0.5-0.5-1.4-1-2.8c-0.4-1.1-0.7-2.1-0.9-2.8c-0.6-2.1,1.3-4.4,5.5-6.8
		c2.9-1.6,5.8-2.9,8.8-3.6c4.7-1.3,9.2-0.9,13.6,1.2c5.3,2.5,8.7,6.9,10.4,13.3c2,7.3,1.1,13.5-2.4,18.6c3.1,0.6,5.8,2.2,8.2,5
		c2.4,2.7,4.2,6.1,5.3,10.2C425.5,210.8,424.9,217.1,421.7,222.3z M472.3,202c-2.7,9-7.6,14.4-14.7,16.3s-14-0.4-20.9-6.8
		c-6.6-6.2-11.3-14.4-14.1-24.8c-2.8-10.4-2.8-19.9-0.1-28.5c2.7-8.9,7.7-14.2,14.7-16.1s14,0.3,20.8,6.6
		c6.6,6.1,11.3,14.4,14.1,24.7C474.9,183.9,475,193.4,472.3,202z M497,135c-0.4,1.3-1.2,2.1-2.5,2.4c-0.5,0.1-1.4,0.3-2.7,0.4
		c-3.9,0.5-14.3,3-31.2,7.4c-7.8-7.1-16.1-9.6-24.5-7.3c-8.4,2.3-14.3,8.4-17.5,18.4c-1.8,0.5-3.3,0.9-4.7,1.2
		c-1.9,0.5-3.1-0.1-3.6-1.8c-1.8-6.6-4-16.5-6.8-29.9c-2.8-13.4-5-23.3-6.8-29.9c-1.8-6.7-5.5-19-11-37.1
		c-1.4-4.6-3.6-11.6-6.6-20.8l-0.4-1.2c-0.5-1.3,0.1-2.2,1.7-2.6c4.3-1.2,10.9-2.8,19.7-4.9c8.8-2.1,15.3-3.7,19.7-4.9
		c4.3-1.1,10.7-3,19.2-5.5c8.6-2.5,15-4.4,19.2-5.5c3-0.8,5.1-0.1,6.2,2c0.7,1.3,2.2,5.2,4.6,11.9c2.4,6.7,3.9,10.7,4.2,12.2
		c0.3,1.2-0.1,2-1.3,2.3c-0.3,0.1-1,0.2-1.9,0.4c-15.9,2.9-30.1,6-42.6,9.3c-3.1,0.8-4.8,2.1-5.1,3.7c-0.1,0.8,0.4,3.1,1.4,6.9
		c1.1,4,2.4,6.5,3.9,7.4c1.3,0.9,3.4,0.9,6.2,0.1c0.6-0.2,1.7-0.5,3.4-1.1c1.7-0.5,3.1-1,4.2-1.3c7.4-2,14.8-4.2,22.3-6.6
		c0.6-0.2,2.2-0.8,4.7-1.7c1.9-0.8,3.5-1.3,4.6-1.6c1.3-0.4,2.2,0.1,2.6,1.3c-0.1-0.1,0.6,4.5,2.1,14.1c0.8,4.8,1.8,9.6,3.1,14.3
		c0.3,1.2-0.4,2-2.1,2.4l-8.1,1.2c-3.4,0.5-11.1,2.4-23,5.6l-9.3,2.5c-2.4,0.6-3.7,1.6-3.8,2.9c0,0.3,0.5,2.1,1.4,5.5
		c1.2,4.5,2.2,7.3,3.2,8.4c1.6,2,5.7,2.3,12.3,0.9c-0.1,0,4.2-1.1,12.8-3.4c3.1-0.8,7.6-2.3,13.6-4.5c6-2.2,10.5-3.7,13.5-4.5
		c1.3-0.3,2.2,0.5,2.8,2.7c0.7,2.5,1.4,7.3,2.2,14.3C497.2,128.8,497.4,133.4,497,135z"/>
	<path class="st0" d="M174.5,82.1c-38.2,10.5-59.7,48.3-49.1,86.1c10.1,36,48.5,57.6,84.6,47.5c37.8-10.5,59.2-48.2,48.8-85.9
		C248.8,94,210.4,72.2,174.5,82.1z M254.1,161.1c-0.3,1.5-1,1.7-2.3,1.3c-2.4-0.7-4.9-1.2-7.3-2c-1.7-0.6-2.6-0.4-3,1.6
		c-0.4,1.7-0.3,2.6,1.6,3c2.5,0.5,4.9,1.3,7.3,1.9c1.4,0.3,2,0.8,1.5,2.4c-2.8,7.9-6.8,14.9-12.3,21.2c-0.9,1.1-1.6,1.1-2.6,0.1
		c-1.7-1.8-3.7-3.5-5.3-5.4c-1.3-1.5-2.1-0.9-3.3,0.2c-1.2,1.2-1.5,2-0.1,3.3c1.8,1.6,3.4,3.5,5.2,5.1c1.1,1,1.2,1.8,0,2.8
		c-6,5.1-12.6,9-20,11.7c-2.1,0.8-2.9,0.1-3.4-1.9c-1.5-6-2.5-9.1-4-15.2c-0.5-2.1-1.5-2.1-3.3-1.7c-1.9,0.5-2.6,1.1-2,3.2
		c1.7,6.1,2.5,9.3,4.2,15.4c0.5,1.8,0.1,2.6-1.8,3c-7.8,1.5-15.6,1.3-23.4-0.1c-1.5-0.3-1.7-1-1.3-2.3c0.8-2.7,1.3-5.5,2.2-8.1
		c0.7-1.9-0.7-1.9-1.7-2.1c-1.1-0.3-2.4-1.3-2.9,0.9c-0.6,2.6-1.4,5.2-2.1,7.9c-0.4,1.6-1,2.1-2.6,1.5c-7.8-2.8-14.8-6.8-21-12.1
		c-1.2-1.1-1.4-1.8-0.1-3c2-1.8,3.8-3.9,5.8-5.7c1.4-1.2,0.7-1.9-0.3-2.8c-0.9-0.8-1.5-2.3-3-0.7c-1.9,2-3.9,3.8-5.7,5.8
		c-1.1,1.2-1.9,1.4-3,0c-4.7-5.6-8.4-11.9-11.2-18.8c-1-2.5-0.3-3.4,2.3-4c6-1.4,9-2.5,14.9-3.9c2.5-0.6,1.7-1.9,1.4-3.4
		c-0.4-1.6-0.7-2.7-2.8-2c-3.1,1-3.4,1-6.5,1.8c-3.2,0.9-6.5,1.7-9.6,2.6c-1.2,0.3-2,0.3-2.3-1.2c-1.8-8.4-1.6-16.7,0-25
		c0.3-1.3,0.9-1.6,2.1-1.2c2.7,0.8,5.4,1.4,8.1,2.2c1.9,0.6,2.1-0.6,2.5-1.9c0.4-1.3,0.7-2.4-1.3-2.8c-2.6-0.5-5.1-1.4-7.6-2
		c-1.6-0.4-2.1-0.9-1.5-2.6c2.8-7.7,6.8-14.5,12.2-20.7c1-1.2,1.8-1.2,2.8-0.1c1.7,1.8,3.6,3.5,5.3,5.4c1.2,1.4,2.1,1.5,3.4,0.1
		c1.2-1.3,1.7-2,0.1-3.4c-2-1.7-3.7-3.7-5.6-5.5c-1.1-1-1-1.7,0.1-2.6c6-5.1,12.6-9,20-11.6c2.1-0.7,2.7,0,3.2,1.9
		c1.5,6,2.4,9,3.9,14.9c0.5,2.1,1.3,2.5,3.4,2c2.1-0.6,2.5-1.4,1.9-3.4c-1.7-5.8-2.3-8.8-4-14.6c-0.6-2.1-0.3-3.1,2-3.5
		c7.7-1.3,15.4-1.2,23.2,0.2c1.6,0.3,1.9,1,1.5,2.4c-0.7,2.4-1.2,4.9-2,7.3c-0.7,1.9,0.1,2.5,1.8,3c1.7,0.5,2.4,0.2,2.8-1.6
		c0.5-2.6,1.4-5,2-7.6c0.3-1.4,0.9-1.7,2.3-1.2c7.9,2.7,14.9,6.8,21.2,12.3c1.1,0.9,1.1,1.6,0,2.6c-2,1.9-3.9,4-6,5.9
		c-1.4,1.2-0.7,1.9,0.3,2.8c0.9,0.8,1.5,2.2,3,0.6c1.8-2,3.9-3.8,5.7-5.8c1.1-1.1,1.8-1.5,3-0.1c5.1,6.2,9.2,12.9,11.8,20.6
		c0.5,1.6,0.2,2.2-1.4,2.6c-6.3,1.6-9.7,2.7-16,4.2c-2.3,0.5-1.9,1.7-1.5,3.3c0.4,1.7,0.8,2.7,3,2c6.1-1.8,9.5-2.5,15.7-4.3
		c1.7-0.5,2.5-0.2,2.8,1.7C255.7,145.7,255.5,153.4,254.1,161.1z"/>
	<path class="st0" d="M56.6,69.7c1.2,4,2.1,6.9,2.6,8.9c0.6,2.4,1.8,7.4,3.5,15.1c0.8,3.6,1.1,5.3,1.1,5c0.1,0.5,0.5,0.7,1,0.7
		c0.8-0.1,2.6-0.4,5.3-1.2c2-0.5,3.6-1,4.8-1.5c0.4-0.2,0.7-0.3,0.7-0.3c0.1-0.1,0.2-0.4,0.1-0.8c-0.6-2.2-1.5-5.5-2.8-9.9
		S70.5,78,70,75.8c-0.5-2-1.2-5-2.1-9.1c-0.9-4.1-1.5-7.1-2.1-9.1c-0.1-0.4-0.4-0.5-1-0.4c-0.6,0.2-1.4,0.4-2.5,0.8
		c-1.1,0.4-2,0.6-2.5,0.8c-0.6,0.2-1.5,0.4-2.6,0.6c-1.2,0.3-2.1,0.5-2.6,0.6c-0.4,0.1-0.6,0.4-0.5,0.8
		C54.5,62.8,55.4,65.8,56.6,69.7z"/>
	<path class="st0" d="M70.6,60.6c0,0.3,0.1,1.1,0.1,2.5c0,1.3,0.1,2,0.2,2.3c0,0.2,0.2,0.2,0.5,0.2c2.2-0.6,5.1-1.6,8.8-2.9
		c1.5,5,2.4,8.2,2.8,9.7c0.6,2.2,1.4,5.5,2.4,10c1,4.5,1.8,7.8,2.4,10c0.1,0.5,0.5,0.7,1,0.7c1-0.1,2.7-0.5,5.1-1.1
		c2.2-0.6,3.8-1.1,4.9-1.5c0.4-0.2,0.7-0.3,0.7-0.4c0.1-0.1,0.2-0.4,0.1-0.7C99,87,98,83.7,96.7,79.3c-1.4-4.4-2.3-7.7-2.9-9.9
		c-0.5-1.9-1.3-5.2-2.5-9.9c5-1,7.8-1.6,8.5-1.8c0.4-0.1,0.6-0.3,0.5-0.7c-0.1-0.4-0.4-1.1-0.7-2c-0.4-0.9-0.6-1.5-0.7-2
		c-0.1-0.4-0.3-1.1-0.5-2.1c-0.2-0.9-0.4-1.6-0.5-2.1c-0.1-0.3-0.2-0.5-0.3-0.5c-0.1,0-0.3,0-0.7,0.1c0,0-1.2,0.4-3.6,1.3
		c-4.4,1.6-7.5,2.6-9.2,3c-5.9,1.6-10.5,2.6-13.6,3c-0.2,0-0.4,0.1-0.4,0.1c-0.3,0.1-0.4,0.9-0.1,2.3C70.2,58.8,70.4,59.7,70.6,60.6
		z"/>
	<path class="st0" d="M103.8,53.5c1.8,1.1,2.8,2.2,3.2,3.4c0.4,1.6,0.4,3.2-0.2,5c-0.6,1.7-0.9,2.5-0.9,2.3c0,0.1,0.6,0.4,1.8,1
		c1.3,0.6,2,1,2.2,1.1c0.3,0.2,0.5,0.3,0.7,0.2c0.2-0.1,0.5-0.3,0.7-0.8c1.2-2,2.1-4.3,2.6-6.8c0.5-2.7,0.5-5.1,0-7.3
		c-0.9-3.4-3.1-5.8-6.7-7.3c-0.4-0.2-0.7-0.2-0.9-0.2c-0.1,0-0.6,0.6-1.3,1.7c-0.4,0.7-0.8,1.4-1.3,2.1c-0.5,0.6-1,1.3-1.5,1.9
		c-0.7,1-1.1,1.6-1,1.9C101.1,51.8,102,52.4,103.8,53.5z"/>
	<path class="st0" d="M124.6,67.2c0.1,0.1,1.3,0.9,3.5,2.3c1.2,0.8,2,1.7,2.2,2.5c0.3,1.2-0.3,2.3-1.8,3.2c-1.3,0.6-2.5,1.2-3.8,1.8
		c-0.2,0.1-0.3,0.2-0.2,0.4c0.1,0.4,1.1,1.5,2.9,3.2c1.8,1.7,2.9,2.5,3.3,2.4c1.7-0.5,3.4-1.4,5.2-2.8c1.6-1.3,3-2.8,4-4.3
		c0.5-0.7,0.8-1.7,0.9-3c0.1-1.2,0-2.2-0.2-3.2c-0.4-1.6-1.3-3-2.6-4.2c-0.5-0.4-1.6-1.2-3.5-2.3c-1.2-0.7-1.9-1.5-2.1-2.1
		c-0.3-1,0-1.9,0.7-2.7c0.6-0.7,1.5-1.2,2.6-1.5c0.5-0.1,1.1-0.2,1.6-0.2c0.2-0.4,0.3-0.7,0.2-0.9c-0.1-0.3-1-1.4-2.7-3
		c-1.7-1.7-2.7-2.5-3-2.4c-2.9,0.8-5.4,2.4-7.5,4.8c-2.3,2.7-3.1,5.5-2.4,8.3C122.4,64.8,123.2,66.1,124.6,67.2z"/>
	<path class="st0" d="M418.2,193.2c-2.4-2.7-5.2-4.4-8.2-5c3.6-5,4.4-11.2,2.4-18.6c-1.7-6.4-5.2-10.8-10.4-13.3
		c-4.4-2.1-8.9-2.5-13.6-1.2c-2.9,0.8-5.9,2-8.8,3.6c-4.2,2.4-6.1,4.6-5.5,6.8c0.2,0.7,0.5,1.7,0.9,2.8c0.5,1.4,0.9,2.3,1,2.8
		c0.7,2.1,1.3,4,1.8,5.7c0.6,1.1,1,1.5,1.4,1.4c0.1,0,0.2-0.1,0.4-0.2c3-2.5,5.5-4,7.5-4.5c4.8-1.3,7.8,0.5,9,5.2
		c0.5,1.8,0.5,3.3,0,4.7c-0.5,1.4-1.3,2.2-2.5,2.5c-0.9,0.2-2.3,0.4-4.3,0.6c-1.9,0.2-3.4,0.4-4.3,0.6c-0.7,0.2-1,0.8-0.9,1.9
		c0.1,1.7,1,5.6,2.6,11.7c0.3,1.2,1.1,1.7,2.4,1.6c0.2,0,1.1-0.2,2.8-0.7c0.4-0.1,1.1-0.3,2.2-0.7c1.1-0.4,2-0.7,2.7-0.9
		c5.1-1.4,8.3,0,9.4,4.3c1.4,5.3-0.6,8.6-6,10.1c-1.6,0.4-3.9,0.3-6.8-0.3c-2.9-0.6-4.3-1-4.2-1c-0.6,0.2-0.9,0.8-0.8,1.8
		c0.2,3.1,0.4,5.4,0.6,6.9c0,3.2,0.1,5.5,0.1,7.1c0,0.5,0.1,0.9,0.1,1.1c0.4,1.4,3.7,2.2,10,2.4c2.9,0.1,6.4-0.4,10.6-1.5
		c5.4-1.4,9.4-4.4,12.1-8.8c3.2-5.1,3.8-11.4,1.8-18.8C422.4,199.3,420.6,195.9,418.2,193.2z"/>
	<path class="st0" d="M458.1,148.8c-6.8-6.3-13.7-8.5-20.8-6.6s-12,7.3-14.7,16.1c-2.7,8.6-2.6,18.1,0.1,28.5
		c2.8,10.3,7.5,18.6,14.1,24.8c6.8,6.4,13.8,8.7,20.9,6.8s12-7.3,14.7-16.3c2.6-8.7,2.6-18.2-0.2-28.5
		C469.4,163.2,464.7,154.9,458.1,148.8z M457.1,189.1c-0.9,3.9-2.7,6.2-5.4,6.9c-2.8,0.8-5.6-0.3-8.2-3.2c-2.5-2.6-4.2-6.1-5.4-10.2
		c-1.1-4.3-1.3-8.1-0.4-11.5c0.9-3.7,2.8-5.9,5.6-6.7c2.8-0.7,5.5,0.3,8.1,3c2.5,2.6,4.3,6,5.4,10.1
		C457.8,181.7,457.9,185.5,457.1,189.1z"/>
	<path class="st0" d="M123.8,202.3c-5.8-5.2-9.4-8.1-10.6-8.9c-0.8-0.5-1.4-0.7-2-0.5c-0.3,0.1-1.4,1.6-3.4,4.5
		c-2.4,3.5-4.9,6.3-7.5,8.6c-4,3.5-8.5,5.9-13.6,7.2c-8.6,2.3-16.4,0.9-23.3-4.3c-6.4-4.8-10.7-11.6-13.1-20.5
		c-2.3-8.8-1.9-16.8,1.2-24.1c3.4-7.8,9.5-12.9,18.1-15.2c5-1.3,10.1-1.4,15.4-0.3c3.5,0.8,7.2,2.1,11.1,4.1c3.3,1.6,5,2.4,5.3,2.3
		c0.7-0.2,1.2-0.6,1.6-1.2c0.8-1.2,2.3-5.9,4.5-14.1c2.2-8.2,3.1-12.9,2.8-14c-0.3-1-1.2-2-2.7-3c-13.9-8.8-30.3-10.6-49.3-5.6
		c-17.5,4.7-30.1,15-38,31.1c-7.5,15.3-8.9,31.9-4.2,49.7c4.9,18.4,14.5,32.2,28.8,41.3c14.7,9.5,31.2,11.7,49.5,6.8
		c17.9-4.8,30.5-15,37.9-30.7c0.8-1.9,1.1-3.2,0.9-4.2C132.9,210.6,129.8,207.6,123.8,202.3z"/>
	<path class="st0" d="M381.1,99.6c-2.5-9.5-7.1-18.2-13.6-26.1c-6.8-8.4-14.6-14.2-23.4-17.5c-9.4-3.5-21.2-4.1-35.4-1.8
		c-5.5,0.9-17.2,3.8-35.3,8.6c-9.5,2.5-16.3,4.6-20.3,6.2c-1.6,0.7-2.3,1.6-2,2.9c1.8,6.7,4.7,16.7,8.8,30c4.1,13.3,7,23.4,8.8,30.1
		c1.7,6.5,4.1,16.2,7,29.3c3,13.1,5.3,22.8,7,29.3c0.4,1.4,1.4,1.8,3.1,1.3c2.9-0.8,7.2-1.8,13-3.2c5.8-1.4,10.2-2.4,13-3.2
		c15.3-4.1,24.6-6.6,28-7.7c17.6-5.3,29.7-14.9,36.5-28.9C384.1,133.2,385.7,116.8,381.1,99.6z M346,136c-4,8.3-11.1,13.8-21.2,16.5
		c-9.4,2.5-14.4,2.5-15.1,0c-0.9-3.5-2.4-8.6-4.3-15.4c-1.9-6.8-3.4-11.9-4.3-15.3c-0.9-3.5-2.3-8.7-4-15.7s-3.1-12.2-4-15.7
		c-0.6-2.4,3.6-4.8,12.6-7.2c9.8-2.6,18.6-1.5,26.4,3.4c7.6,4.7,12.7,12,15.4,21.9C350.2,119,349.7,128.1,346,136z"/>
	<path class="st0" d="M494.1,106.9c-0.6-2.1-1.5-3-2.8-2.7c-3.1,0.8-7.6,2.3-13.5,4.5c-6,2.2-10.5,3.7-13.6,4.5
		c-8.7,2.3-13,3.5-12.8,3.4c-6.6,1.3-10.7,1-12.3-0.9c-0.9-1.1-2-3.9-3.2-8.4c-0.9-3.3-1.3-5.2-1.4-5.5c0.1-1.3,1.3-2.2,3.8-2.9
		l9.3-2.5c11.9-3.2,19.6-5,23-5.6l8.1-1.2c1.7-0.5,2.4-1.3,2.1-2.4c-1.2-4.7-2.3-9.4-3.1-14.3c-1.5-9.5-2.2-14.2-2.1-14.1
		c-0.4-1.2-1.3-1.6-2.6-1.3c-1.2,0.3-2.7,0.9-4.6,1.6c-2.5,0.9-4.1,1.5-4.7,1.7c-7.5,2.4-14.9,4.6-22.3,6.6
		c-1.1,0.3-2.5,0.7-4.2,1.3c-1.7,0.5-2.8,0.9-3.4,1.1c-2.8,0.8-4.9,0.7-6.2-0.1c-1.5-1-2.8-3.5-3.9-7.4c-1-3.8-1.5-6.1-1.4-6.9
		c0.3-1.7,2-2.9,5.1-3.7c12.4-3.3,26.6-6.4,42.6-9.3c0.9-0.2,1.5-0.3,1.9-0.4c1.2-0.3,1.6-1.1,1.3-2.3c-0.4-1.5-1.8-5.5-4.2-12.2
		c-2.4-6.7-4-10.6-4.6-11.9c-1.1-2.2-3.1-2.8-6.2-2c-4.3,1.1-10.7,3-19.2,5.5c-8.6,2.5-15,4.4-19.2,5.5c-4.3,1.2-10.9,2.8-19.7,4.9
		c-8.8,2.1-15.3,3.7-19.7,4.9c-1.6,0.4-2.1,1.3-1.7,2.6l0.4,1.2c3,9.2,5.1,16.1,6.6,20.8c5.6,18,9.2,30.4,11,37.1
		c1.8,6.6,4,16.5,6.8,29.9c2.8,13.4,5,23.3,6.8,29.9c0.5,1.7,1.6,2.3,3.6,1.8c1.4-0.4,2.9-0.8,4.7-1.2c3.2-9.9,9.1-16.1,17.5-18.4
		c8.5-2.3,16.7,0.2,24.5,7.3c16.8-4.4,27.2-6.9,31.2-7.4c1.3-0.2,2.2-0.3,2.7-0.4c1.2-0.3,2.1-1.1,2.5-2.4c0.4-1.6,0.2-6.2-0.7-13.9
		C495.5,114.2,494.8,109.4,494.1,106.9z"/>
</g>
<g id="clock-dial">
	<g id="hr-hand">
		<rect x="186.8" y="124.1" transform="matrix(0.9659 -0.259 0.259 0.9659 -28.978 53.5556)" class="st0" width="4" height="25.3"/>
	</g>
	<g id="min-hand">
		<rect x="191.4" y="142" transform="matrix(0.966 -0.2586 0.2586 0.966 -30.066 59.3932)" class="st0" width="38.7" height="4"/>
	</g>
	<g id="dial">
		<g>
			<path class="st1" d="M192.1,154.2c-2.3,0-4.4-1.6-5-3.9c-0.4-1.3-0.2-2.7,0.5-3.9c0.7-1.2,1.8-2.1,3.2-2.4
				c0.4-0.1,0.9-0.2,1.3-0.2c2.3,0,4.4,1.6,5,3.9c0.4,1.3,0.2,2.7-0.5,3.9c-0.7,1.2-1.8,2.1-3.2,2.4
				C193,154.1,192.5,154.2,192.1,154.2z"/>
		</g>
		<g>
			<path class="st0" d="M192.1,144.8L192.1,144.8c1.9,0,3.6,1.3,4,3.1c0.3,1.1,0.1,2.2-0.4,3.2s-1.5,1.7-2.5,1.9
				c-0.4,0.1-0.7,0.1-1.1,0.1c-1.9,0-3.6-1.3-4-3.1c-0.3-1.1-0.1-2.2,0.4-3.2s1.5-1.7,2.5-1.9C191.3,144.8,191.7,144.8,192.1,144.8
				 M192.1,142.8c-0.5,0-1.1,0.1-1.6,0.2c-3.3,0.9-5.3,4.3-4.4,7.6c0.7,2.8,3.2,4.6,6,4.6c0.5,0,1.1-0.1,1.6-0.2
				c3.3-0.9,5.3-4.3,4.4-7.6C197.3,144.6,194.8,142.8,192.1,142.8L192.1,142.8z"/>
		</g>
	</g>
</g>
</svg>
